<?xml version="1.0" standalone="no"?>
<!DOCTYPE svg PUBLIC "-//W3C//DTD SVG 1.1//EN" "http://www.w3.org/Graphics/SVG/1.1/DTD/svg11.dtd" >
<svg xmlns="http://www.w3.org/2000/svg" xmlns:xlink="http://www.w3.org/1999/xlink" version="1.1">
<metadata>
Created by FontForge 20170731 at Mon Apr 18 16:00:39 2016
 By Aleksey,,,
Copyright (c) 2011 - 2012 Linotype Corp., www.linotype.com. All rights reserved. This font software may not be reproduced, modified, disclosed or transferred without the express written approval of Linotype Corp. Neue Haas Grotesk is a trademark of Linotype Corp. registered in the U.S. Patent and Trademark Office and may be registered in certain other jurisdictions in the name of Linotype Corp. or its licensee Linotype GmbH. This typeface is original artwork of Christian Schwartz. The design may be protected in certain jurisdictions.
</metadata>
<defs>
<font id="NHaasGroteskTXPro-Rg" horiz-adv-x="500" >
  <font-face 
    font-family="Neue Haas Grotesk Text Pro"
    font-weight="400"
    font-stretch="normal"
    units-per-em="1000"
    panose-1="2 11 5 4 2 2 2 2 2 4"
    ascent="800"
    descent="-200"
    x-height="537"
    cap-height="744"
    bbox="-278 -245 1304 978"
    underline-thickness="50"
    underline-position="-150"
    unicode-range="U+000D-FB04"
  />
<missing-glyph 
 />
    <glyph glyph-name="uniFB00" unicode="ff" horiz-adv-x="640" 
d="M404 464h-197v-464h-93v464h-83v73h83v70q0 71 35 101.5t104 32.5q13 3 29.5 3.5t34.5 -1.5v-77q-33 2 -54 0.5t-33.5 -9t-17.5 -21t-5 -34.5v-65h197v74q0 71 35 101.5t104 32.5q13 3 29.5 3.5t35.5 -1.5v-77q-33 2 -54.5 0.5t-34 -9t-17.5 -20.5t-5 -34v-70h110v-73
h-110v-464h-93v464z" />
    <glyph glyph-name="uniFB01" unicode="fi" horiz-adv-x="561" 
d="M31 537h83v74q0 74 38 107q20 17 49.5 24t68.5 7q11 0 23 -0.5t25 -1.5v-77q-33 2 -54.5 0.5t-34 -9t-17.5 -20.5t-5 -34v-70h110v-73h-110v-464h-93v464h-83v73zM404 537h93v-537h-93v537zM402 744h97v-108h-97v108z" />
    <glyph glyph-name="uniFB02" unicode="fl" horiz-adv-x="564" 
d="M31 537h83v74q0 74 38 107q20 17 49.5 24t68.5 7q11 0 23 -0.5t25 -1.5v-77q-33 2 -54.5 0.5t-34 -9t-17.5 -20.5t-5 -34v-70h110v-73h-110v-464h-93v464h-83v73zM404 744h93v-744h-93v744z" />
    <glyph glyph-name="uniFB03" unicode="ffi" horiz-adv-x="851" 
d="M404 464h-197v-464h-93v464h-83v73h83v70q0 71 35 101.5t104 32.5q13 3 29.5 3.5t34.5 -1.5v-77q-33 2 -54 0.5t-33.5 -9t-17.5 -21t-5 -34.5v-65h197v74q0 71 35 101.5t104 32.5q13 3 29.5 3.5t35.5 -1.5v-77q-33 2 -54.5 0.5t-34 -9t-17.5 -20.5t-5 -34v-70h110v-73
h-110v-464h-93v464zM694 537h93v-537h-93v537zM692 744h97v-108h-97v108z" />
    <glyph glyph-name="uniFB04" unicode="ffl" horiz-adv-x="854" 
d="M404 464h-197v-464h-93v464h-83v73h83v70q0 71 35 101.5t104 32.5q13 3 29.5 3.5t34.5 -1.5v-77q-33 2 -54 0.5t-33.5 -9t-17.5 -21t-5 -34.5v-65h197v74q0 71 35 101.5t104 32.5q13 3 29.5 3.5t35.5 -1.5v-77q-33 2 -54.5 0.5t-34 -9t-17.5 -20.5t-5 -34v-70h110v-73
h-110v-464h-93v464zM694 744h93v-744h-93v744z" />
    <glyph glyph-name=".notdef" 
 />
    <glyph glyph-name="glyph1" horiz-adv-x="0" 
 />
    <glyph glyph-name="glyph1" horiz-adv-x="0" 
 />
    <glyph glyph-name="uni000D" unicode="&#xd;" horiz-adv-x="0" 
 />
    <glyph glyph-name="space" unicode=" " horiz-adv-x="266" 
 />
    <glyph glyph-name="exclam" unicode="!" horiz-adv-x="264" 
d="M81 511v233h101v-233l-24 -295h-51zM78 110h109v-110h-109v110z" />
    <glyph glyph-name="quotedbl" unicode="&#x22;" horiz-adv-x="353" 
d="M216 744h84v-248h-84v248zM53 744h84v-248h-84v248z" />
    <glyph glyph-name="numbersign" unicode="#" horiz-adv-x="622" 
d="M87 519h103l28 194h74l-28 -194h138l28 194h75l-28 -194h105l-13 -80h-103l-22 -155h103l-13 -81h-101l-29 -203h-75l29 203h-138l-28 -203h-75l29 203h-106l13 81h104l22 155h-104zM232 284h137l22 155h-138z" />
    <glyph glyph-name="dollar" unicode="$" horiz-adv-x="640" 
d="M293 -5q-67 4 -115 25t-79 52.5t-47 71t-18 81.5h96q7 -65 45 -105.5t118 -48.5v260q-49 11 -90.5 24.5t-72 35t-47.5 55t-17 83.5q0 44 16.5 79.5t46.5 60t71.5 39t92.5 16.5v73h59v-73q105 -8 160 -57t66 -130h-94q-6 48 -39.5 76.5t-92.5 35.5v-241q51 -11 95.5 -24.5
t77 -36t51 -57t18.5 -87.5q0 -47 -18.5 -84.5t-51 -64t-77 -42t-95.5 -18.5v-104h-59v105zM499 199q0 27 -9.5 46t-28.5 32t-46 22t-63 18v-246q30 3 56.5 12.5t47 26t32 39t11.5 50.5zM157 534q0 -48 33 -73t103 -41v230q-61 -5 -98.5 -34.5t-37.5 -81.5z" />
    <glyph glyph-name="percent" unicode="%" horiz-adv-x="896" 
d="M207 316q-38 0 -69 14.5t-53.5 41.5t-35 65.5t-12.5 85.5t13 85t36 65t54 41.5t67 14.5q37 0 68 -14t53.5 -41t35.5 -65t13 -86q0 -47 -12.5 -85.5t-35 -65.5t-53.5 -41.5t-69 -14.5zM615 712h73l-406 -712h-74zM689 -15q-38 0 -69 14.5t-53.5 41.5t-35 65t-12.5 85
q0 48 13 86t36 64.5t54 41t67 14.5q37 0 68 -14t53.5 -40.5t35.5 -65t13 -86.5q0 -47 -12.5 -85t-35 -65t-53.5 -41.5t-69 -14.5zM207 382q45 0 66.5 39.5t21.5 101.5q0 30 -6 55.5t-17 44.5t-27.5 30t-37.5 11q-42 0 -64 -40t-22 -101q0 -60 22 -100.5t64 -40.5zM689 51
q45 0 66 39t21 101q0 60 -22.5 101t-64.5 41t-64 -40t-22 -102q0 -60 22 -100t64 -40z" />
    <glyph glyph-name="ampersand" unicode="&#x26;" horiz-adv-x="660" 
d="M280 -15q-46 0 -89 14.5t-76 41.5t-53 65.5t-20 86.5q0 42 13 74.5t36 59t54 48.5t67 43l-11 15q-36 45 -52.5 85t-16.5 83q0 33 13 61.5t36 49.5t54.5 33t68.5 12q33 0 64 -10t54.5 -30.5t38 -51t14.5 -70.5q0 -35 -11.5 -62.5t-31 -49.5t-45.5 -40.5t-54 -35.5
q10 -12 29 -36t41.5 -52t45 -55.5t37.5 -46.5q13 32 20 69t8 79h81q-1 -60 -13.5 -115t-38.5 -103l118 -147h-114l-56 71l-2 2q-39 -42 -91 -65t-118 -23zM285 67q45 0 83.5 18.5t68.5 51.5l-180 225q-26 -17 -47.5 -34.5t-37.5 -37.5t-25 -43.5t-9 -52.5t11.5 -52t32 -40
t47 -26t56.5 -9zM221 601q0 -33 14 -61.5t40 -59.5l14 -18q48 31 71.5 62t23.5 73q0 38 -22 61t-58 23t-59.5 -22.5t-23.5 -57.5z" />
    <glyph glyph-name="quotesingle" unicode="'" horiz-adv-x="190" 
d="M53 744h84v-248h-84v248z" />
    <glyph glyph-name="parenleft" unicode="(" horiz-adv-x="338" 
d="M238 -125q-34 48 -63 100t-50 109.5t-33 122t-12 137.5q0 68 12.5 130t34.5 117.5t50.5 103.5t60.5 89h75q-55 -88 -90.5 -198.5t-35.5 -241.5q0 -69 8.5 -131.5t24.5 -119.5t39.5 -111t53.5 -107h-75v0z" />
    <glyph glyph-name="parenright" unicode=")" horiz-adv-x="338" 
d="M25 -125q31 53 54.5 107t40 111t25 119.5t8.5 131.5q0 131 -35.5 241.5t-92.5 198.5h77q31 -41 59.5 -89t50 -103.5t34 -117.5t12.5 -130q0 -73 -12 -137.5t-33 -122t-49.5 -109.5t-61.5 -100h-77v0z" />
    <glyph glyph-name="asterisk" unicode="*" horiz-adv-x="407" 
d="M83 462l70 103l-109 37l20 53l108 -34v123h64v-123l107 34l20 -53l-108 -37l71 -103l-49 -33l-72 109l-73 -109z" />
    <glyph glyph-name="plus" unicode="+" horiz-adv-x="601" 
d="M63 376h199v206h77v-206h199v-73h-199v-207h-77v207h-199v73z" />
    <glyph glyph-name="comma" unicode="," horiz-adv-x="216" 
d="M55 -103q21 7 35 26.5t14 66.5v10h-50v110h108v-120q0 -131 -107 -145v52z" />
    <glyph glyph-name="hyphen" unicode="-" horiz-adv-x="374" 
d="M48 327h278v-84h-278v84z" />
    <glyph glyph-name="period" unicode="." horiz-adv-x="216" 
d="M54 110h108v-110h-108v110z" />
    <glyph glyph-name="slash" unicode="/" horiz-adv-x="438" 
d="M338 783h94l-362 -908h-93z" />
    <glyph glyph-name="zero" unicode="0" horiz-adv-x="667" 
d="M333 -16q-66 0 -118 26.5t-88 75t-55 117.5t-19 154q0 86 20 155t56.5 117t88.5 74t116 26t116 -25.5t88.5 -73.5t56 -117t19.5 -156q0 -85 -18.5 -154t-54.5 -117.5t-88.5 -75t-119.5 -26.5zM334 66q93 0 136.5 78t43.5 213q0 66 -11 120t-33.5 92t-56.5 58.5t-79 20.5
q-46 0 -80 -20.5t-56.5 -58t-34 -91.5t-11.5 -121q0 -66 11.5 -120t34 -92t56.5 -58.5t80 -20.5z" />
    <glyph glyph-name="one" unicode="1" horiz-adv-x="394" 
d="M208 513h-165v64q34 1 65.5 8t57 23.5t42.5 43t22 65.5h75v-717h-97v513z" />
    <glyph glyph-name="two" unicode="2" horiz-adv-x="598" 
d="M40 0q3 65 23.5 112t52.5 84q41 45 93 78t103 64q33 19 59.5 36.5t44.5 36.5t27.5 42t9.5 54q0 63 -39.5 102t-108.5 39q-70 0 -109 -44q-21 -22 -30.5 -52.5t-9.5 -75.5h-99q0 60 17 104t49 77q33 35 82 53t108 18q55 0 99 -16.5t75.5 -46t48.5 -69.5t17 -87
q0 -50 -15.5 -84.5t-41.5 -61.5t-61.5 -48.5t-75.5 -44.5q-28 -17 -58.5 -35.5t-58.5 -40t-50 -45.5t-32 -52l-2 -8h382v-89h-500v0z" />
    <glyph glyph-name="three" unicode="3" horiz-adv-x="613" 
d="M313 -16q-60 0 -111.5 16t-89.5 48q-39 32 -61 77.5t-23 105.5h94q2 -79 51.5 -123.5t136.5 -44.5q71 0 116.5 36t45.5 109q0 66 -46.5 99.5t-133.5 33.5h-45v74h44q80 0 120.5 31.5t40.5 87.5q0 28 -11.5 50.5t-32 38t-47.5 23.5t-58 8q-38 0 -67 -11.5t-49.5 -32
t-31.5 -49t-11 -61.5h-93q0 50 17.5 92t50.5 72.5t80 47.5t107 17q50 0 94 -13.5t76.5 -38.5t51 -61.5t18.5 -82.5q0 -60 -32.5 -96t-85.5 -53v-3q75 -20 109 -66t34 -115q0 -52 -20 -92.5t-54.5 -68t-82 -41.5t-101.5 -14z" />
    <glyph glyph-name="four" unicode="4" horiz-adv-x="623" 
d="M387 173h-345v86l360 461h79v-472h116v-75h-116v-173h-94v173zM120 244q20 1 38 2q16 1 34 1.5t34 0.5h161v242q0 14 0.5 32t1.5 35q1 18 3 38h-2q-9 -16 -20 -33q-9 -14 -20 -30t-22 -30l-132 -168q-11 -14 -24.5 -28.5t-24.5 -28.5q-14 -16 -27 -31v-2z" />
    <glyph glyph-name="five" unicode="5" horiz-adv-x="590" 
d="M291 -15q-56 0 -102.5 16t-80 44t-53.5 65.5t-23 80.5h95q11 -54 50 -88.5t112 -34.5q75 0 118.5 45.5t43.5 121.5q0 39 -12 69.5t-33 51.5t-49 32t-60 11q-60 0 -98 -20t-58 -46h-92l77 379h380v-84h-312l-46 -212h2q30 31 70 47.5t95 16.5q45 0 87 -16.5t75 -48
t52.5 -77.5t19.5 -105q0 -57 -19.5 -103t-54 -78.5t-82 -49.5t-102.5 -17z" />
    <glyph glyph-name="six" unicode="6" horiz-adv-x="626" 
d="M334 -16q-60 0 -105 18t-77 50q-56 51 -77.5 125.5t-21.5 182.5q0 84 18 152t53 117q35 48 87 74t121 26q54 0 94 -16t68 -42.5t44 -59t21 -65.5h-95q-3 18 -12 36.5t-25.5 33.5t-39.5 24.5t-53 9.5q-50 0 -85.5 -20t-58 -57.5t-33.5 -92t-13 -123.5h2q35 59 83 85.5
t113 26.5q49 0 92 -19t75 -51.5t51 -76t19 -93.5q0 -51 -19 -95.5t-52 -77.5t-78 -52.5t-96 -19.5zM332 61q34 0 62.5 12t49.5 33.5t33 52t12 67.5t-12 67t-33.5 52t-51 34t-63.5 12q-75 0 -121 -44.5t-46 -119.5q0 -37 13 -67.5t36 -52.5t54 -34t67 -12z" />
    <glyph glyph-name="seven" unicode="7" horiz-adv-x="555" 
d="M133 0q6 94 32 185.5t67 174t94.5 151.5t113.5 118v2q-17 -1 -37 -2q-17 -1 -41.5 -1.5t-52.5 -0.5h-277v85h501v-77q-54 -48 -105.5 -114t-92.5 -147t-68 -175t-32 -199h-102v0z" />
    <glyph glyph-name="eight" unicode="8" horiz-adv-x="628" 
d="M317 -16q-51 0 -100.5 12t-88.5 38.5t-63 68.5t-24 101q0 38 11.5 68t32.5 53t49.5 39t62.5 25v3q-58 17 -89 56t-31 94q0 43 18 77.5t50 59t75.5 38t93.5 13.5q51 0 94.5 -13t75.5 -37.5t50 -59t18 -77.5q0 -55 -31 -94t-88 -57v-3q69 -17 111 -65t42 -120
q0 -60 -23 -101.5t-60.5 -68t-86 -38.5t-99.5 -12zM314 425q67 0 105.5 30t38.5 84t-38.5 83.5t-105.5 29.5t-105.5 -29.5t-38.5 -83.5t38.5 -84t105.5 -30zM317 63q81 0 127 37.5t46 104.5q0 68 -46.5 107.5t-129.5 39.5q-82 0 -128 -39.5t-46 -107.5t46.5 -105t130.5 -37z
" />
    <glyph glyph-name="nine" unicode="9" horiz-adv-x="626" 
d="M305 -16q-53 0 -97 15t-76 41.5t-51.5 61.5t-22.5 74h97q3 -22 14 -42.5t29.5 -36t44.5 -25t60 -9.5q77 0 119 48q31 34 45.5 91t17.5 142h-2q-35 -48 -84 -74.5t-112 -26.5q-50 0 -93 19t-75.5 52t-51.5 77t-19 94q0 51 19 95.5t52.5 77.5t80 52t101.5 19q54 0 95 -15.5
t73 -39.5q61 -47 84 -124.5t23 -195.5q0 -107 -23 -184.5t-75 -124.5q-66 -61 -173 -61zM300 321q39 0 70.5 12t53.5 34t34 52.5t12 67.5t-13 67t-36 52t-54 34t-66 12q-36 0 -66 -12t-51.5 -34t-33.5 -52t-12 -67q0 -36 12.5 -66.5t34.5 -52.5t51.5 -34.5t63.5 -12.5z" />
    <glyph glyph-name="colon" unicode=":" horiz-adv-x="222" 
d="M57 426h108v-110h-108v110zM57 110h108v-110h-108v110z" />
    <glyph glyph-name="semicolon" unicode=";" horiz-adv-x="222" 
d="M57 426h108v-110h-108v110zM58 -103q21 7 35 26.5t14 66.5v10h-50v110h108v-120q0 -131 -107 -145v52z" />
    <glyph glyph-name="less" unicode="&#x3c;" horiz-adv-x="548" 
d="M60 277v93l424 180v-83l-229 -93q-20 -8 -43.5 -16t-43.5 -16q-24 -9 -47 -17v-2q23 -8 47 -16q20 -7 43.5 -15.5t43.5 -16.5l229 -93v-85z" />
    <glyph glyph-name="equal" unicode="=" horiz-adv-x="601" 
d="M64 455h473v-73h-473v73zM64 269h473v-73h-473v73z" />
    <glyph glyph-name="greater" unicode="&#x3e;" horiz-adv-x="548" 
d="M488 370v-93l-424 -180v84l230 92q19 8 42.5 16t43.5 16q24 9 47 17v2q-23 8 -47 16q-20 7 -43.5 15.5t-42.5 16.5l-230 93v85z" />
    <glyph glyph-name="question" unicode="?" horiz-adv-x="547" 
d="M204 110h109v-110h-109v110zM215 216q0 37 6 65.5t19 52.5t32.5 45.5t48.5 46.5q17 15 33 29.5t28.5 30t20 34.5t7.5 43q0 48 -34 80t-97 32q-39 0 -68.5 -12t-49 -33.5t-30 -50.5t-11.5 -63h-94q1 45 16.5 88.5t46.5 77.5t78 54.5t112 20.5q53 0 95.5 -15t72 -40.5
t45.5 -61t16 -75.5q0 -31 -8 -55.5t-21 -45t-30 -37t-35 -31.5q-32 -27 -53 -46.5t-35 -37.5q-14 -19 -18.5 -41t-5.5 -55h-87z" />
    <glyph glyph-name="at" unicode="@" horiz-adv-x="935" 
d="M430 95q-38 0 -69 13.5t-53 38t-33.5 59t-11.5 75.5q0 56 15.5 101t42.5 77t63.5 49.5t78.5 17.5q45 0 74.5 -19.5t44.5 -49.5h2l7 60h88l-33 -271q-5 -38 8 -58.5t42 -20.5q22 0 43.5 9.5t38.5 31.5t28 57.5t11 88.5q0 81 -25.5 141t-70.5 99.5t-106 59t-131 19.5
q-73 0 -139 -25.5t-116 -74t-79.5 -119t-29.5 -159.5q0 -73 22 -135t65 -107.5t106 -71t144 -25.5q106 0 198 37l25 -58q-54 -25 -107.5 -35t-111.5 -10q-92 0 -169 29t-132.5 82t-86 128t-30.5 167q0 107 38 190t100 139.5t141.5 86t163.5 29.5q78 0 151 -24.5t129.5 -73
t91 -120.5t34.5 -167q0 -62 -15 -110t-41.5 -80.5t-63.5 -49.5t-81 -17q-46 0 -77.5 21t-42.5 58h-1q-23 -39 -59 -61t-81 -22zM443 163q31 0 54.5 13.5t39.5 37.5t24 56.5t8 70.5q0 54 -25 85.5t-73 31.5q-30 0 -52 -13.5t-36.5 -37t-21.5 -55.5t-7 -69q0 -52 21 -86
t68 -34z" />
    <glyph glyph-name="A" unicode="A" horiz-adv-x="698" 
d="M291 744h114l274 -744h-112l-74 217h-293l-76 -217h-105zM228 297h238l-71 208q-10 27 -18 55t-14 51q-7 26 -13 52h-3q-7 -26 -14 -53q-7 -23 -15 -51t-17 -54z" />
    <glyph glyph-name="B" unicode="B" horiz-adv-x="691" 
d="M77 744h320q115 0 178 -63q23 -24 36.5 -56t13.5 -73q0 -61 -33 -100t-93 -56v-3q34 -8 62.5 -23t49.5 -37.5t32.5 -52t11.5 -66.5q0 -45 -15 -81.5t-42 -63.5q-32 -33 -79 -51t-107 -18h-335v744zM383 427q66 0 102.5 30.5t36.5 87.5q0 53 -33.5 82t-93.5 29h-216v-229
h204zM406 90q75 0 112 37q33 31 33 84q0 67 -42.5 100t-108.5 33h-221v-254h227z" />
    <glyph glyph-name="C" unicode="C" horiz-adv-x="756" 
d="M399 -15q-80 0 -144.5 29t-110 80.5t-70.5 122.5t-25 155q0 82 24 153t69.5 123t111 82t148.5 30q66 0 117.5 -17.5t89.5 -48.5q40 -32 63.5 -76.5t31.5 -98.5h-102q-13 69 -64.5 110.5t-137.5 41.5q-59 0 -105 -22.5t-77.5 -62.5t-48 -95t-16.5 -119q0 -67 17.5 -122
t50 -94t78.5 -60.5t102 -21.5q51 0 88.5 16t63 43t40 62.5t17.5 75.5h102q0 -28 -6.5 -56.5t-18.5 -55.5t-28 -51.5t-36 -43.5q-79 -79 -224 -79z" />
    <glyph glyph-name="D" unicode="D" horiz-adv-x="732" 
d="M77 744h275q83 0 145.5 -27t104 -76.5t62 -118.5t20.5 -153q0 -83 -21.5 -151t-64.5 -116.5t-106 -75t-147 -26.5h-268v744zM341 89q63 0 108 19.5t73.5 56t42 88.5t13.5 116t-12.5 117t-40 90.5t-71.5 58t-107 20.5h-167v-566h161z" />
    <glyph glyph-name="E" unicode="E" horiz-adv-x="666" 
d="M77 744h529v-90h-427v-225h386v-85h-386v-251h438v-93h-540v744z" />
    <glyph glyph-name="F" unicode="F" horiz-adv-x="622" 
d="M77 744h509v-90h-407v-223h339v-87h-339v-344h-102v744z" />
    <glyph glyph-name="G" unicode="G" horiz-adv-x="781" 
d="M631 105h-3q-40 -61 -98.5 -91t-131.5 -30q-78 0 -142 28.5t-110 79.5q-47 51 -72 121.5t-25 155.5t24 156.5t71 124.5q45 51 110.5 80t152.5 29q66 0 117.5 -17t89.5 -47.5t62 -73t35 -93.5h-106q-17 63 -65 103t-134 40q-65 0 -113 -23t-79 -63.5t-46 -96t-15 -119.5
q0 -66 18.5 -120.5t51.5 -93.5t79 -60.5t101 -21.5t96.5 17.5t68.5 47.5t40.5 69.5t13.5 83.5v16h-216v87h317v-394h-65z" />
    <glyph glyph-name="H" unicode="H" horiz-adv-x="743" 
d="M77 744h102v-313h384v313h103v-744h-103v348h-384v-348h-102v744z" />
    <glyph glyph-name="I" unicode="I" horiz-adv-x="260" 
d="M79 744h102v-744h-102v744z" />
    <glyph glyph-name="J" unicode="J" horiz-adv-x="539" 
d="M254 -15q-104 0 -163.5 58.5t-59.5 186.5v16h100v-13q0 -47 7.5 -78.5t23 -50t39 -26.5t54.5 -8q55 0 85 30t30 97v547h102v-553q0 -45 -13 -82t-40 -64q-27 -28 -68 -44t-97 -16z" />
    <glyph glyph-name="K" unicode="K" horiz-adv-x="686" 
d="M77 744h102v-230q0 -38 -1 -74t-3 -63l359 368h128l-299 -299l323 -446h-119l-275 380l-113 -111v-269h-102v744z" />
    <glyph glyph-name="L" unicode="L" horiz-adv-x="595" 
d="M77 744h102v-651h385v-93h-487v744z" />
    <glyph glyph-name="M" unicode="M" horiz-adv-x="881" 
d="M77 744h132l155 -404q11 -31 24.5 -71t24.5 -76q13 -42 26 -86h2q14 44 27 86q11 36 24.5 76t24.5 71l152 404h136v-744h-98v450q0 25 0.5 57.5t2.5 62.5q1 34 3 71h-2l-18 -63q-8 -26 -17 -55.5t-17 -51.5l-181 -471h-80l-181 471q-8 22 -17 51.5t-17 55.5l-18 63h-2
q1 -37 3 -71q1 -30 2 -62.5t1 -57.5v-450h-92v744z" />
    <glyph glyph-name="N" unicode="N" horiz-adv-x="741" 
d="M77 744h107l305 -466q14 -21 28.5 -46.5t26.5 -48.5q14 -26 28 -53h3l-4 56q-2 24 -2.5 52t-0.5 51v455h96v-744h-106l-304 466q-14 21 -28.5 46t-27.5 48q-15 26 -29 53h-2q1 -28 3 -56q1 -24 2 -51t1 -50v-456h-96v744z" />
    <glyph glyph-name="O" unicode="O" horiz-adv-x="826" 
d="M413 -16q-84 0 -151.5 29.5t-115 81.5t-72.5 123t-25 154q0 84 25 155t72.5 122.5t115 81t151.5 29.5t151.5 -29.5t115 -81t73 -122.5t25.5 -155q0 -83 -25.5 -154t-73 -123t-115 -81.5t-151.5 -29.5zM413 74q63 0 111.5 22.5t81.5 62.5t49.5 94.5t16.5 118.5t-16.5 119
t-49.5 95t-81.5 63t-111.5 23t-111.5 -23t-81.5 -63t-50 -95t-17 -119t17 -118.5t50 -94.5t81.5 -62.5t111.5 -22.5z" />
    <glyph glyph-name="P" unicode="P" horiz-adv-x="647" 
d="M77 744h313q60 0 104.5 -18.5t73.5 -53.5q25 -29 39 -65t14 -81q0 -103 -60 -161.5t-181 -58.5h-200v-306h-103v744zM180 389h190q76 0 112.5 35.5t36.5 98.5q0 66 -38 99t-107 33h-194v-266z" />
    <glyph glyph-name="Q" unicode="Q" horiz-adv-x="825" 
d="M602 32q-40 -23 -87.5 -35.5t-101.5 -12.5q-84 0 -151.5 29.5t-115 81.5t-72.5 123t-25 154q0 84 25 155t72.5 122.5t115 81t151.5 29.5t151.5 -29.5t114.5 -81t72.5 -122.5t25.5 -155q0 -89 -28.5 -163t-81.5 -127l107 -86l-51 -62zM413 72q62 0 111 23l-96 78l50 62
l114 -92q39 41 59.5 99.5t20.5 129.5q0 64 -16.5 119t-49.5 95t-81.5 63t-111.5 23t-111.5 -23t-81.5 -63t-50 -95t-17 -119t17 -118.5t50 -95t81.5 -63.5t111.5 -23z" />
    <glyph glyph-name="R" unicode="R" horiz-adv-x="700" 
d="M77 744h348q50 0 91 -14.5t70.5 -41.5t45.5 -65t16 -84q0 -68 -31 -115.5t-105 -70.5v-3q31 -9 52 -24t34 -36.5t19.5 -51.5t9.5 -70q3 -44 7 -73.5t8 -48t8.5 -28t10.5 -13.5v-5h-109q-6 5 -10 15t-7 29t-5 48.5t-5 74.5q-5 79 -40 111t-108 32h-198v-310h-102v744z
M179 392h213q76 0 113.5 35.5t37.5 96.5q0 66 -33.5 99t-112.5 33h-218v-264z" />
    <glyph glyph-name="S" unicode="S" horiz-adv-x="672" 
d="M350 -15q-78 0 -136.5 20t-98 54.5t-60.5 81.5t-24 100h101q9 -85 64 -129.5t157 -44.5q37 0 68.5 8.5t54 25t35.5 41.5t13 59q0 36 -15.5 60t-44 40t-68 27t-88.5 22q-50 10 -94.5 24t-78.5 37.5t-53.5 58.5t-19.5 89q0 47 19 84t53 62.5t81.5 39t104.5 13.5
q69 0 119 -16.5t84.5 -45.5t53.5 -69t26 -88h-99q-10 68 -57 103.5t-126 35.5q-74 0 -118 -29t-44 -85q0 -30 14.5 -50.5t40 -34.5t61 -23.5t77.5 -18.5q54 -11 103.5 -25t88 -39.5t61 -65.5t22.5 -102q0 -53 -20.5 -94t-57.5 -69t-88 -42.5t-111 -14.5z" />
    <glyph glyph-name="T" unicode="T" horiz-adv-x="654" 
d="M31 744h592v-90h-245v-654h-103v654h-244v90z" />
    <glyph glyph-name="U" unicode="U" horiz-adv-x="704" 
d="M352 -11q-63 0 -115.5 14.5t-90.5 45t-59.5 78.5t-21.5 115v502h102v-493q0 -92 48.5 -133.5t138.5 -41.5q87 0 135 41.5t48 133.5v493h102v-502q0 -67 -22 -115t-60.5 -78.5t-91 -45t-113.5 -14.5z" />
    <glyph glyph-name="V" unicode="V" horiz-adv-x="664" 
d="M18 744h110l163 -496q7 -20 14.5 -47.5t14.5 -52.5q8 -29 15 -59h2q7 31 15 60q7 25 14 52t14 47l161 496h106l-260 -744h-112z" />
    <glyph glyph-name="W" unicode="W" horiz-adv-x="965" 
d="M18 744h107l107 -438q7 -28 13 -62t11 -64q5 -35 11 -71h2q6 37 12 72q5 30 12 64t15 62l120 437h108l116 -437q7 -28 14.5 -62t12.5 -64q6 -35 12 -72h2q6 36 12 71q5 30 11.5 64t13.5 62l111 438h105l-207 -744h-99l-122 476q-7 25 -13 57t-11 61q-6 33 -11 68h-2
q-6 -35 -12 -68q-5 -29 -11.5 -61t-12.5 -56l-131 -477h-102z" />
    <glyph glyph-name="X" unicode="X" horiz-adv-x="667" 
d="M279 382l-237 362h118l111 -179q11 -18 23 -39t22 -40q11 -22 23 -43h2q12 21 24 43q11 19 23 40t23 39l112 179h112l-241 -363l250 -381h-122l-118 194q-11 18 -23 39.5t-22 40.5q-11 22 -23 44h-2q-13 -22 -25 -44q-11 -19 -24 -40.5t-24 -39.5l-122 -194h-116z" />
    <glyph glyph-name="Y" unicode="Y" horiz-adv-x="678" 
d="M286 312l-268 432h114l134 -224q11 -20 24 -44t24 -45l25 -50h2q12 25 25 50q11 21 24 45t25 44l135 224h109l-271 -437v-307h-102v312z" />
    <glyph glyph-name="Z" unicode="Z" horiz-adv-x="668" 
d="M39 95l363 463q12 15 27 32.5t29 32.5q16 18 33 35v3q-23 -1 -47 -2q-20 -1 -43.5 -1.5t-42.5 -0.5h-292v87h539v-80l-358 -463q-14 -17 -31 -36t-32 -36q-18 -19 -35 -39v-3q24 1 49 2q21 1 45 1.5t45 0.5h334v-91h-583v95z" />
    <glyph glyph-name="bracketleft" unicode="[" horiz-adv-x="356" 
d="M87 784h228v-74h-134v-757h134v-78h-228v909z" />
    <glyph glyph-name="backslash" unicode="\" horiz-adv-x="438" 
d="M368 -125l-362 908h94l361 -908h-93z" />
    <glyph glyph-name="bracketright" unicode="]" horiz-adv-x="356" 
d="M40 -47h133v757h-133v74h229v-909h-229v78z" />
    <glyph glyph-name="asciicircum" unicode="^" horiz-adv-x="491" 
d="M196 744h99l175 -299h-99l-124 218h-2l-125 -218h-99z" />
    <glyph glyph-name="underscore" unicode="_" horiz-adv-x="427" 
d="M-2 -105h431v-68h-431v68z" />
    <glyph glyph-name="grave" unicode="`" horiz-adv-x="538" 
d="M148 770h114l53 -145h-78z" />
    <glyph glyph-name="a" unicode="a" horiz-adv-x="562" 
d="M224 -11q-38 0 -71.5 9.5t-58 28.5t-38.5 47.5t-14 67.5q0 47 16.5 77t47 48t73 28t94.5 16q30 3 54 8t41 13.5t26 21.5t9 34q0 44 -29.5 69t-85.5 25q-64 0 -95.5 -28t-33.5 -76h-90q1 34 15 65t41 55t67.5 38t94.5 14q38 0 71 -7t59 -22q34 -20 53 -56t19 -90v-251
q0 -32 11 -48t46 -8h4v-65q-10 -3 -21.5 -5.5t-28.5 -2.5q-43 0 -65 20.5t-30 63.5h-1q-13 -18 -30 -34t-39 -28.5t-49.5 -20t-61.5 -7.5zM247 57q40 0 69.5 13.5t49 34t29 45.5t9.5 48v88q-20 -13 -52.5 -22.5t-65.5 -15.5t-60 -12.5t-46 -18t-29.5 -29t-10.5 -45.5
q0 -26 9 -42.5t24 -26.5t34.5 -13.5t39.5 -3.5z" />
    <glyph glyph-name="b" unicode="b" horiz-adv-x="594" 
d="M327 -16q-54 0 -98 23.5t-70 68.5h-3v-76h-92v744h93v-190q0 -31 -1 -58t-2 -44h3q26 43 70 70.5t103 27.5q51 0 93 -19.5t72.5 -56t47 -89t16.5 -118.5q0 -65 -16 -117.5t-46 -89t-73 -56.5t-97 -20zM317 61q37 0 64.5 15.5t46 43t27.5 65t9 81.5t-9 82t-27 65.5
t-45.5 43t-64.5 15.5q-43 0 -74 -16t-51.5 -44t-30.5 -65.5t-10 -80.5q0 -44 10.5 -81.5t31 -65t51.5 -43t72 -15.5z" />
    <glyph glyph-name="c" unicode="c" horiz-adv-x="560" 
d="M297 -15q-60 0 -108.5 22t-82.5 60.5t-52.5 90t-18.5 110.5q0 58 18.5 109.5t52.5 90t82.5 60.5t108.5 22q97 0 157.5 -50.5t74.5 -137.5h-93q-10 53 -45 83t-94 30q-41 0 -72.5 -16t-52.5 -44t-31.5 -66t-10.5 -81q0 -44 10.5 -81.5t31.5 -65.5t52.5 -44t72.5 -16
q63 0 99.5 34.5t41.5 94.5h92q-9 -97 -69.5 -151t-163.5 -54z" />
    <glyph glyph-name="d" unicode="d" horiz-adv-x="596" 
d="M272 -16q-54 0 -98 20t-75 56.5t-47.5 89t-16.5 117.5q0 66 18 118.5t49.5 89t74.5 56t93 19.5q57 0 100.5 -26t69.5 -69h2q-2 18 -2.5 45t-0.5 54v190h93v-744h-92v77h-2q-26 -44 -67.5 -68.5t-98.5 -24.5zM279 61q43 0 74 15.5t51.5 43t30 65t9.5 81.5q0 45 -10.5 83
t-31.5 65.5t-52 42.5t-71 15q-37 0 -65 -15.5t-46.5 -43t-28 -65.5t-9.5 -82t9.5 -81.5t28 -65t46.5 -43t65 -15.5z" />
    <glyph glyph-name="e" unicode="e" horiz-adv-x="577" 
d="M297 -15q-62 0 -110.5 22t-82.5 60.5t-51.5 90t-17.5 110.5q0 58 18.5 109.5t52 90t81 60.5t105.5 22q60 0 106 -22t78 -61q33 -40 49.5 -96t16.5 -125h-412q3 -39 15 -73t33 -59t51 -39t69 -14q56 0 92.5 24.5t49.5 67.5h91q-18 -75 -79.5 -121.5t-154.5 -46.5zM292 478
q-36 0 -64 -12.5t-48 -34.5t-32 -52t-16 -66h311q-4 78 -42.5 121.5t-108.5 43.5z" />
    <glyph glyph-name="f" unicode="f" horiz-adv-x="350" 
d="M31 537h83v74q0 74 38 107q20 17 49.5 24t68.5 7q11 0 23 -0.5t25 -1.5v-77q-33 2 -54.5 0.5t-34 -9t-17.5 -20.5t-5 -34v-70h110v-73h-110v-464h-93v464h-83v73z" />
    <glyph glyph-name="g" unicode="g" horiz-adv-x="595" 
d="M291 -188q-106 0 -164.5 39.5t-66.5 111.5h87q6 -42 44 -60.5t98 -18.5q72 0 110.5 32.5t38.5 101.5v15q0 23 0.5 43.5t1.5 33.5h-2q-28 -40 -65.5 -63t-94.5 -23q-51 0 -94.5 19t-74.5 54t-48.5 83t-17.5 107q0 62 18 111t49.5 82.5t73.5 51.5t89 18q58 0 97.5 -21.5
t65.5 -62.5h2v71h92v-515q0 -54 -17 -93.5t-48 -65.5q-32 -26 -76 -38.5t-98 -12.5zM287 100q44 0 74 14.5t48.5 40t26.5 60.5t8 76q0 85 -38.5 133.5t-119.5 48.5q-74 0 -111 -51t-37 -136q0 -86 38 -136t111 -50z" />
    <glyph glyph-name="h" unicode="h" horiz-adv-x="571" 
d="M157 549q0 -20 -1 -45t-2 -45h3q30 43 71.5 67t100.5 24q85 0 133 -45t48 -130v-375h-92v364q0 52 -31.5 80t-86.5 28q-31 0 -57.5 -10.5t-45.5 -29.5t-29.5 -46t-10.5 -59v-327h-93v744h93v-195v0z" />
    <glyph glyph-name="i" unicode="i" horiz-adv-x="221" 
d="M62 744h97v-108h-97v108zM64 537h93v-537h-93v537z" />
    <glyph glyph-name="j" unicode="j" horiz-adv-x="222" 
d="M30 -170q-15 0 -28 1.5t-24 3.5v74h3q15 -3 29 -3q27 1 40.5 12.5t13.5 40.5v578h93v-583q0 -39 -9.5 -62.5t-26.5 -37.5q-18 -14 -41 -19t-50 -5zM62 744h97v-108h-97v108z" />
    <glyph glyph-name="k" unicode="k" horiz-adv-x="542" 
d="M233 283l-76 -72v-211h-93v744h93v-353q0 -14 -1 -38.5t-3 -44.5l233 229h116l-205 -193l229 -344h-109z" />
    <glyph glyph-name="l" unicode="l" horiz-adv-x="227" 
d="M67 744h93v-744h-93v744z" />
    <glyph glyph-name="m" unicode="m" horiz-adv-x="852" 
d="M64 537h92v-80h3q25 44 66 68.5t93 24.5q49 0 85.5 -25t53.5 -75h2q29 51 73 75.5t93 24.5q74 0 120 -45t46 -130v-375h-93v367q0 50 -28 77.5t-69 27.5q-26 0 -49 -10.5t-40 -29.5t-27.5 -44.5t-10.5 -56.5v-331h-92v367q0 50 -25 77.5t-67 27.5q-24 0 -48 -10.5
t-42.5 -29.5t-30.5 -44.5t-12 -56.5v-331h-93v537z" />
    <glyph glyph-name="n" unicode="n" horiz-adv-x="571" 
d="M156 461h3q29 41 70 65t100 24q85 0 133 -45t48 -130v-375h-92v364q0 52 -31.5 80t-86.5 28q-31 0 -57.5 -10.5t-45.5 -29.5t-29.5 -46t-10.5 -59v-327h-93v537h92v-76z" />
    <glyph glyph-name="o" unicode="o" horiz-adv-x="594" 
d="M298 -15q-61 0 -109.5 22t-82.5 60.5t-52.5 90t-18.5 110.5q0 58 18.5 109.5t52.5 90t82.5 60.5t109.5 22t109 -22t82 -60.5t52 -90t18 -109.5q0 -59 -18 -110.5t-52 -90t-82 -60.5t-109 -22zM297 61q41 0 72.5 16t52.5 44t31.5 65.5t10.5 81.5q0 43 -10.5 81t-31.5 66.5
t-52.5 44.5t-72.5 16t-72.5 -16t-52.5 -44.5t-31.5 -66.5t-10.5 -81q0 -44 10.5 -81.5t31.5 -65.5t52.5 -44t72.5 -16z" />
    <glyph glyph-name="p" unicode="p" horiz-adv-x="596" 
d="M64 537h92v-84h3q30 46 71.5 71.5t99.5 25.5q51 0 93.5 -19.5t73 -56t47.5 -89t17 -118.5q0 -65 -16 -117t-46.5 -89t-74 -57t-97.5 -20q-55 0 -98 22t-71 65h-3q1 -14 1.5 -36.5t0.5 -53.5v-163h-93v719zM317 61q37 0 65 15.5t46.5 42.5t28 64.5t9.5 81.5t-9 82
t-27.5 65.5t-46.5 43t-65 15.5q-43 0 -74 -16t-51.5 -44t-30.5 -65.5t-10 -80.5q0 -42 9 -79.5t29 -65t51 -43.5t76 -16z" />
    <glyph glyph-name="q" unicode="q" horiz-adv-x="596" 
d="M439 -19q0 3 0.5 13t1 23t1 27.5t0.5 26.5h-3q-31 -43 -70.5 -65t-96.5 -22q-54 0 -97.5 20t-74 57t-46.5 89t-16 117q0 66 17.5 118.5t48 89t73 56t92.5 19.5q58 0 100 -24.5t68 -68.5h3v80h91v-719h-92v163zM280 61q44 0 75.5 15.5t51 42.5t28.5 64.5t9 81.5
q0 45 -10 83t-30 65.5t-51.5 42.5t-73.5 15q-37 0 -64.5 -15.5t-46 -43t-27.5 -65.5t-9 -82t9 -81.5t27.5 -64.5t46 -42.5t65.5 -15.5z" />
    <glyph glyph-name="r" unicode="r" horiz-adv-x="379" 
d="M156 440h3q25 47 65 75.5t94 28.5q11 0 18.5 -1.5t15.5 -4.5v-88h-3q-10 3 -18 4t-20 1q-31 0 -59 -11.5t-49 -32.5t-33.5 -51t-12.5 -68v-292h-93v537h92v-97z" />
    <glyph glyph-name="s" unicode="s" horiz-adv-x="522" 
d="M270 -16q-112 0 -173 48.5t-67 130.5h94q4 -29 17 -49t32.5 -32t44.5 -17.5t54 -5.5q64 0 92.5 24.5t28.5 60.5q0 44 -34.5 61.5t-105.5 31.5q-39 8 -75.5 18t-64 27t-44 45t-16.5 72q0 69 51.5 109.5t145.5 40.5q101 0 153 -43t61 -113h-93q-6 42 -35.5 64t-87.5 22
q-55 0 -79.5 -22t-24.5 -53q0 -21 9.5 -34.5t28 -22.5t45 -15t60.5 -13q40 -8 76 -18t63.5 -28t43.5 -47.5t16 -76.5q0 -41 -16 -72t-44.5 -51.5t-68.5 -31t-87 -10.5z" />
    <glyph glyph-name="t" unicode="t" horiz-adv-x="351" 
d="M31 537h84v169h92v-169h111v-72h-111v-339q0 -29 14.5 -39.5t40.5 -10.5q12 0 25.5 2.5t21.5 4.5h3v-78q-38 -9 -75 -9q-54 1 -88 25.5t-34 83.5v360h-84v72z" />
    <glyph glyph-name="u" unicode="u" horiz-adv-x="564" 
d="M407 0v75h-2q-29 -40 -66.5 -63.5t-95.5 -23.5q-84 0 -133 47t-49 132v370h93v-365q0 -51 30.5 -79.5t86.5 -28.5q31 0 56 11t42.5 30.5t27 46.5t9.5 58v327h93v-537h-92z" />
    <glyph glyph-name="v" unicode="v" horiz-adv-x="493" 
d="M5 537h99l94 -290q8 -27 17 -57t16 -56q8 -30 16 -58h2q6 28 14 58q7 26 15.5 56t17.5 57l96 290h96l-193 -537h-103z" />
    <glyph glyph-name="w" unicode="w" horiz-adv-x="781" 
d="M10 537h99l84 -298q6 -23 12.5 -50t11.5 -51q6 -28 11 -56h2q5 26 11 53q5 23 11.5 50t13.5 52l81 300h88l80 -300q5 -22 11.5 -48.5t11.5 -50.5q6 -28 11 -57h2l10 54q5 23 11 51t14 53l89 298h96l-175 -537h-93l-79 296q-5 20 -11 45.5t-11 48.5q-6 27 -12 56h-2
q-6 -29 -12 -56q-5 -23 -10.5 -49t-10.5 -45l-81 -296h-94z" />
    <glyph glyph-name="x" unicode="x" horiz-adv-x="556" 
d="M222 281l-179 256h108l80 -123q6 -11 13.5 -23.5t14.5 -23.5q8 -13 15 -27h2q8 14 16 27q7 11 14 24t14 23l83 123h101l-175 -247l207 -290h-108l-103 152q-8 11 -16 24.5t-16 26.5q-9 15 -17 30h-2q-8 -15 -17 -30q-8 -13 -16 -26.5t-15 -24.5l-102 -152h-104z" />
    <glyph glyph-name="y" unicode="y" horiz-adv-x="519" 
d="M130 -187q-23 0 -45.5 3t-33.5 8v80h4q8 -5 23.5 -7.5t32.5 -2.5q28 0 47 13.5t33 51.5q0 1 3 10.5t7 21.5t7 23t2 13l-205 510h101l111 -298q8 -23 16 -48t15 -47q7 -26 14 -50h2q7 24 15 50q7 22 15 47t16 48l107 298h97l-228 -586q-17 -42 -33.5 -69t-35 -42.5
t-40 -21t-47.5 -5.5z" />
    <glyph glyph-name="z" unicode="z" horiz-adv-x="512" 
d="M44 72l240 313q8 11 19 23.5t21 23.5q11 13 24 26v3q-19 -1 -37 -2q-16 -1 -33 -1h-31h-185v79h403v-58l-244 -319q-9 -11 -20.5 -24.5t-22.5 -25.5q-12 -14 -25 -28v-3q20 0 39 1q17 1 35 1.5t33 0.5h217v-82h-433v72z" />
    <glyph glyph-name="braceleft" unicode="{" horiz-adv-x="338" 
d="M284 -125q-82 0 -125.5 38t-43.5 133v179q0 35 -18.5 52t-63.5 19v75q45 2 63.5 18.5t18.5 51.5v175q0 48 11 80t32.5 51.5t53 28t72.5 8.5h31v-74h-28q-41 0 -59 -19.5t-18 -75.5v-181q0 -82 -61 -99v-3q61 -20 61 -99v-186q0 -28 4.5 -46t13.5 -28.5t23.5 -15
t35.5 -4.5h28v-78h-31v0z" />
    <glyph glyph-name="bar" unicode="|" horiz-adv-x="250" 
d="M87 784h76v-909h-76v909z" />
    <glyph glyph-name="braceright" unicode="}" horiz-adv-x="338" 
d="M40 -47h18q20 0 34.5 4t24 14t14 27.5t4.5 45.5v186q0 42 14.5 65t46.5 34v3q-32 10 -46.5 33.5t-14.5 65.5v182q0 56 -18 76.5t-59 20.5h-18v74h20q41 0 72.5 -9t53 -29t32.5 -52.5t11 -79.5v-175q0 -35 15.5 -52t59.5 -19v-76q-42 -2 -58.5 -18.5t-16.5 -51.5v-178
q0 -48 -11 -80.5t-32.5 -52t-53 -28t-72.5 -8.5h-20v78z" />
    <glyph glyph-name="asciitilde" unicode="~" horiz-adv-x="432" 
d="M291 280q-20 0 -38.5 6.5t-36.5 14.5q-26 11 -40 17.5t-28 6.5q-29 0 -31 -44h-72q2 60 28 94t69 34q23 0 43 -7t38 -17q20 -11 32 -16t25 -5q34 0 36 43h71q-2 -56 -24 -91.5t-72 -35.5z" />
    <glyph glyph-name="uni00A0" unicode="&#xa0;" horiz-adv-x="245" 
 />
    <glyph glyph-name="exclamdown" unicode="&#xa1;" horiz-adv-x="264" 
d="M183 101v-233h-101v233l25 295h51zM187 502h-109v110h109v-110z" />
    <glyph glyph-name="cent" unicode="&#xa2;" horiz-adv-x="561" 
d="M265 -13q-54 6 -96.5 30t-72 61.5t-45.5 86t-16 103.5q0 54 16 102.5t46 86t72.5 62t95.5 30.5v86h59v-85q86 -8 139 -58t67 -130h-93q-9 46 -37.5 75.5t-75.5 36.5v-411q51 7 80.5 40t34.5 87h91q-8 -91 -61.5 -143.5t-144.5 -60.5v-105h-59v106zM129 268
q0 -39 8.5 -73.5t25.5 -62t42.5 -45.5t59.5 -24v410q-34 -6 -59.5 -24t-42.5 -45.5t-25.5 -62t-8.5 -73.5z" />
    <glyph glyph-name="sterling" unicode="&#xa3;" horiz-adv-x="595" 
d="M49 382h62q-14 33 -24 67.5t-10 74.5q0 44 16.5 81.5t47.5 64.5t75.5 42.5t100.5 15.5q47 0 89.5 -13t74.5 -42q33 -29 53 -73t21 -106h-95q-1 41 -12 70.5t-30.5 48t-46 27t-56.5 8.5q-67 0 -102.5 -33.5t-35.5 -92.5q0 -35 11 -69.5t24 -70.5h147v-70h-127l4 -28t2 -29
q0 -53 -24 -90t-71 -75l2 -3q29 15 48.5 20.5t46.5 5.5q28 0 50 -6.5t42 -14t39 -14t42 -6.5q32 0 58.5 14.5t49.5 34.5l52 -69q-32 -28 -72 -46t-90 -18q-36 0 -62.5 8.5t-50 18.5t-47.5 18.5t-54 8.5q-31 0 -56 -14.5t-47 -30.5l-54 75q22 16 42 33t35 36.5t23.5 43.5
t8.5 54q0 19 -3.5 37t-8.5 36h-88v70z" />
    <glyph glyph-name="currency" unicode="&#xa4;" horiz-adv-x="506" 
d="M253 222q57 0 88 40.5t31 102.5q0 30 -8 56.5t-23 46t-37.5 30.5t-50.5 11q-29 0 -51 -11t-37.5 -30.5t-23.5 -46t-8 -56.5q0 -31 8 -57t23.5 -45t37.5 -30t51 -11zM19 168l69 71q-38 55 -38 126t38 124l-69 71l45 43l67 -69q24 18 54.5 29t67.5 11q36 0 67 -11t55 -29
l67 69l45 -43l-69 -71q37 -54 37 -124q0 -35 -10 -67t-28 -58l70 -72l-45 -43l-68 69q-49 -37 -121 -37t-121 37l-68 -69z" />
    <glyph glyph-name="yen" unicode="&#xa5;" horiz-adv-x="611" 
d="M76 338h170l-225 374h108l88 -159q14 -25 30 -56t30 -59q16 -33 32 -67h2q16 34 32 67q14 28 30 59t30 56l88 159h104l-223 -374h172v-57h-186v-81h186v-57h-186v-143h-96v143h-186v57h186v81h-186v57z" />
    <glyph glyph-name="brokenbar" unicode="&#xa6;" horiz-adv-x="250" 
d="M87 784h76v-409h-76v409zM87 301h76v-426h-76v426z" />
    <glyph glyph-name="section" unicode="&#xa7;" horiz-adv-x="628" 
d="M319 -192q-53 0 -95 15.5t-71 42t-45 62t-17 74.5h93q4 -50 37 -82.5t99 -32.5q53 0 78.5 21.5t25.5 53.5q0 21 -12 38.5t-35 34.5t-58 36.5t-81 45.5q-47 26 -84 49t-62.5 47.5t-39.5 53t-14 64.5q0 57 33.5 90.5t89.5 48.5q-23 23 -35 47.5t-12 55.5q0 36 14 65
t40.5 49.5t63.5 31.5t82 11q49 0 87.5 -13.5t64.5 -37.5t41 -57t18 -72h-93q-5 45 -33.5 72.5t-85.5 27.5q-54 0 -79.5 -21t-25.5 -53q0 -20 10.5 -36t31 -31t50.5 -31.5t69 -36.5q45 -24 85 -46.5t70 -48.5t48 -57.5t18 -72.5q0 -60 -33 -95.5t-89 -51.5q23 -23 37 -48.5
t14 -57.5q0 -70 -53 -112.5t-147 -42.5zM326 360q-33 18 -63 35t-54 34q-40 -10 -60 -34.5t-20 -53.5q0 -21 7.5 -37t25 -31.5t46 -33.5t70.5 -42q35 -20 71.5 -40.5t67.5 -43.5q45 13 63 39t18 58q0 22 -10 39.5t-31 34t-53.5 34.5t-77.5 42z" />
    <glyph glyph-name="dieresis" unicode="&#xa8;" 
d="M303 744h92v-108h-92v108zM105 744h92v-108h-92v108z" />
    <glyph glyph-name="copyright" unicode="&#xa9;" horiz-adv-x="863" 
d="M431 -18q-80 0 -149.5 29t-120.5 81t-80.5 123t-29.5 154q0 84 29.5 155t80.5 122.5t120.5 81t149.5 29.5t150 -29.5t121.5 -81t81 -122.5t29.5 -155q0 -83 -29.5 -154t-81 -123t-121.5 -81t-150 -29zM431 24q71 0 132 26t105.5 72t69.5 109.5t25 137.5q0 75 -25 138.5
t-69.5 110t-105.5 72.5t-132 26t-131.5 -26t-105 -72.5t-70 -110t-25.5 -138.5q0 -74 25.5 -137.5t70 -109.5t105 -72t131.5 -26zM436 143q-46 0 -84.5 17t-66 47t-43 71.5t-15.5 90.5t15 91t42 73t65.5 48.5t86.5 17.5q39 0 70.5 -10.5t54.5 -30.5q24 -20 38 -46.5
t19 -58.5h-86q-5 31 -29 52.5t-67 21.5q-30 0 -53 -12.5t-38 -33.5t-22.5 -50t-7.5 -62q0 -68 32.5 -110t89.5 -42q46 0 71 25.5t29 60.5h83q-1 -31 -14 -61.5t-36 -50.5q-24 -23 -56 -35.5t-78 -12.5z" />
    <glyph glyph-name="ordfeminine" unicode="&#xaa;" horiz-adv-x="520" 
d="M378 246q-6 7 -9.5 21.5t-4.5 43.5h-2q-20 -29 -54.5 -51.5t-93.5 -22.5q-34 0 -64 8.5t-52.5 25.5t-35.5 42.5t-13 58.5q0 42 16 68.5t43.5 43t65.5 25t83 12.5q54 5 81.5 18t27.5 50q0 76 -96 76q-56 0 -83 -23t-32 -65h-84q2 31 15.5 58.5t38 48.5t60 33t83.5 12
q39 0 71.5 -7.5t55.5 -24.5q25 -18 39 -47.5t14 -72.5v-262q0 -26 5 -42.5t12 -21.5v-5h-87zM232 301q35 0 60.5 11t42 28t24.5 38.5t8 41.5v71q-17 -10 -46 -17t-58 -11q-30 -4 -52.5 -10t-38.5 -15.5t-24 -24.5t-8 -38q0 -22 8 -36.5t20.5 -22.5t29 -11.5t34.5 -3.5z" />
    <glyph glyph-name="guillemotleft" unicode="&#xab;" horiz-adv-x="515" 
d="M287 232v97l149 150v-100l-99 -97v-2l99 -98v-100zM79 232v97l150 150v-100l-100 -97v-2l100 -98v-100z" />
    <glyph glyph-name="logicalnot" unicode="&#xac;" horiz-adv-x="568" 
d="M63 435h425v-260h-77v187h-348v73z" />
    <glyph glyph-name="uni00AD" unicode="&#xad;" horiz-adv-x="374" 
d="M48 327h278v-84h-278v84z" />
    <glyph glyph-name="registered" unicode="&#xae;" horiz-adv-x="655" 
d="M328 172q-60 0 -112.5 22t-91.5 61t-61.5 92.5t-22.5 116.5t22.5 117t61.5 93t91.5 61t112.5 22t112.5 -22t91 -61t61 -93t22.5 -117t-22.5 -116.5t-61 -92.5t-91 -61t-112.5 -22zM328 211q52 0 97 19t77 52.5t50.5 80t18.5 101.5t-18.5 102t-50.5 81t-77 53t-97 19
t-96.5 -19t-76.5 -53t-50.5 -81t-18.5 -102t18.5 -101.5t50.5 -80t76.5 -52.5t96.5 -19zM214 623h145q43 0 71.5 -24t28.5 -64q0 -27 -15 -47t-48 -28v-1q27 -7 38 -21.5t14 -43.5q4 -32 5.5 -54t9.5 -25v-5h-60q-7 3 -9 24.5t-4 48.5q-3 53 -59 53h-56v-126h-61v313z
M275 483h70q26 0 39.5 12.5t13.5 32.5t-13 32t-39 12h-71v-89z" />
    <glyph glyph-name="macron" unicode="&#xaf;" 
d="M114 734h273v-75h-273v75z" />
    <glyph glyph-name="degree" unicode="&#xb0;" horiz-adv-x="382" 
d="M191 430q-32 0 -59.5 11.5t-48 32t-32.5 47.5t-12 58t12 58.5t32.5 47.5t48 32t59.5 12t60 -12t48.5 -32t32.5 -47.5t12 -58.5t-12 -58t-32.5 -47.5t-48.5 -32t-60 -11.5zM191 485q40 0 63 26.5t23 67.5q0 40 -23 67t-63 27q-38 0 -62 -27t-24 -67q0 -41 24 -67.5
t62 -26.5z" />
    <glyph glyph-name="plusminus" unicode="&#xb1;" horiz-adv-x="601" 
d="M63 406h199v176h77v-176h199v-73h-199v-177h-77v177h-199v73zM63 73h475v-73h-475v73z" />
    <glyph glyph-name="uni00B2" unicode="&#xb2;" horiz-adv-x="394" 
d="M28 286q1 39 14 68.5t32.5 53.5t43.5 42.5t48 34.5q22 15 42.5 27.5t36.5 27t25.5 31t9.5 38.5q0 36 -21.5 57t-58.5 21q-40 0 -62 -26t-23 -69h-77q0 74 45 118t122 44q36 0 65 -11.5t49.5 -31t31.5 -45.5t11 -56q0 -33 -10.5 -57t-28 -42.5t-40 -33t-46.5 -29.5
l-32.5 -19.5t-33.5 -22.5t-28 -25.5t-17 -28.5h235v-66h-333v0z" />
    <glyph glyph-name="uni00B3" unicode="&#xb3;" horiz-adv-x="403" 
d="M203 277q-85 0 -133.5 43t-49.5 115h75q2 -43 27.5 -69t77.5 -26q42 0 67.5 20.5t25.5 62.5q0 37 -25.5 56.5t-73.5 19.5h-29v61h28q42 0 64.5 17.5t22.5 49.5t-22 50t-57 18q-44 0 -66.5 -24.5t-24.5 -62.5h-76q1 32 12.5 59t33 46.5t52.5 30.5t70 11q68 0 111.5 -33.5
t43.5 -92.5q0 -38 -21.5 -61t-59.5 -34v-2q98 -22 98 -115q0 -35 -13.5 -61t-37 -43.5t-54.5 -26.5t-66 -9z" />
    <glyph glyph-name="acute" unicode="&#xb4;" 
d="M257 770h114l-89 -145h-78z" />
    <glyph glyph-name="mu" unicode="&#xb5;" horiz-adv-x="568" 
d="M155 22q0 -11 1 -26q1 -13 1.5 -31.5t0.5 -41.5v-105h-93v719h93v-365q0 -51 30.5 -79.5t86.5 -28.5q31 0 56 11t42.5 30.5t27 46.5t9.5 58v327h93v-537h-92v75h-2q-29 -40 -65.5 -63.5t-87.5 -23.5q-35 0 -58 7.5t-40 26.5h-3z" />
    <glyph glyph-name="paragraph" unicode="&#xb6;" horiz-adv-x="571" 
d="M247 365q-103 0 -155.5 51t-52.5 140q0 42 14 76.5t39 60.5t63 38.5t88 12.5h251v-884h-68v800h-82v-800h-68v505h-29z" />
    <glyph glyph-name="periodcentered" unicode="&#xb7;" horiz-adv-x="234" 
d="M63 381h108v-110h-108v110z" />
    <glyph glyph-name="cedilla" unicode="&#xb8;" 
d="M227 -208q-38 0 -65 9t-46 22l16 31q35 -16 75 -16q26 0 44.5 7.5t18.5 27.5q0 18 -12 25.5t-30 7.5q-14 0 -24 -2t-19 -5l-16 25l73 76h59l-64 -56v-2q15 2 33 0t33.5 -9.5t26 -22t10.5 -37.5q0 -40 -31.5 -60.5t-81.5 -20.5z" />
    <glyph glyph-name="uni00B9" unicode="&#xb9;" horiz-adv-x="283" 
d="M141 609h-111v53q47 1 81.5 20t40.5 66h69v-462h-80v323z" />
    <glyph glyph-name="ordmasculine" unicode="&#xba;" horiz-adv-x="548" 
d="M275 232q-54 0 -96.5 19.5t-72.5 53t-46 78.5t-16 97t16 97t46 79t72.5 53.5t96.5 19.5t96.5 -19.5t72 -53.5t45 -79t15.5 -97t-15.5 -97t-45 -78.5t-72 -53t-96.5 -19.5zM275 301q35 0 61 13.5t43.5 37.5t26 57t8.5 71t-8.5 71t-26 57t-43.5 38t-61 14t-61.5 -14
t-44 -38t-26 -57t-8.5 -71t8.5 -71t26 -57t44 -37.5t61.5 -13.5z" />
    <glyph glyph-name="guillemotright" unicode="&#xbb;" horiz-adv-x="515" 
d="M229 329v-97l-150 -150v100l100 97v2l-100 98v100zM436 329v-97l-149 -150v100l99 97v2l-99 98v100z" />
    <glyph glyph-name="onequarter" unicode="&#xbc;" horiz-adv-x="835" 
d="M664 -5h-226v79l227 280h76v-298h73v-61h-73v-105h-77v105zM682 744h86l-650 -874h-85zM144 609h-111v53q47 1 81.5 20t40.5 66h69v-462h-80v323zM493 52q13 1 25 2q11 1 23 1.5t23 0.5h100v128q0 12 0.5 26.5t2.5 27.5l4 30h-3l-18 -27q-8 -11 -17.5 -24t-17.5 -23
l-67 -80q-8 -10 -17.5 -20t-17.5 -19q-10 -11 -20 -21v-2z" />
    <glyph glyph-name="onehalf" unicode="&#xbd;" horiz-adv-x="892" 
d="M144 609h-111v53q47 1 81.5 20t40.5 66h69v-462h-80v323zM683 744h86l-650 -874h-85zM523 -110q1 39 14 68.5t32.5 53.5t43.5 42.5t48 34.5q22 15 42.5 27.5t36.5 27t25.5 31t9.5 38.5q0 36 -21.5 57t-58.5 21q-40 0 -62 -26t-23 -69h-77q0 74 45 118t122 44
q36 0 65 -11.5t49.5 -31t31.5 -45.5t11 -56q0 -33 -10.5 -57t-28 -42.5t-40 -33t-46.5 -29.5l-32.5 -19.5t-33.5 -22.5t-28 -25.5t-17 -28.5h235v-66h-333z" />
    <glyph glyph-name="threequarters" unicode="&#xbe;" horiz-adv-x="923" 
d="M752 -5h-226v79l227 280h76v-298h73v-61h-73v-105h-77v105zM206 277q-85 0 -133.5 43t-49.5 115h75q2 -43 27.5 -69t77.5 -26q42 0 67.5 20.5t25.5 62.5q0 37 -25.5 56.5t-73.5 19.5h-29v61h28q42 0 64.5 17.5t22.5 49.5t-22 50t-57 18q-44 0 -66.5 -24.5t-24.5 -62.5
h-76q1 32 12.5 59t33 46.5t52.5 30.5t70 11q68 0 111.5 -33.5t43.5 -92.5q0 -38 -21.5 -61t-59.5 -34v-2q98 -22 98 -115q0 -35 -13.5 -61t-37 -43.5t-54.5 -26.5t-66 -9zM771 744h86l-650 -874h-85zM581 52q13 1 25 2q11 1 23 1.5t23 0.5h100v128q0 12 0.5 26.5t2.5 27.5
l4 30h-3l-18 -27q-8 -11 -17.5 -24t-17.5 -23l-67 -80q-8 -10 -17.5 -20t-17.5 -19q-10 -11 -20 -21v-2z" />
    <glyph glyph-name="questiondown" unicode="&#xbf;" horiz-adv-x="547" 
d="M343 502h-109v110h109v-110zM331 396q0 -38 -6 -66t-19 -52t-33 -45.5t-48 -46.5q-17 -15 -33 -29.5t-28 -30t-19.5 -34.5t-7.5 -43q0 -48 34 -80t97 -32q39 0 68 12t48.5 33.5t30 50.5t12.5 63h93q-1 -45 -16.5 -88.5t-46.5 -77.5t-78 -54.5t-112 -20.5q-53 0 -95.5 15
t-72 40.5t-45 60.5t-15.5 76q0 31 7.5 55.5t20.5 44.5t30 37t35 32q33 27 54 46.5t34 37.5q14 19 19 41t6 55h86z" />
    <glyph glyph-name="Agrave" unicode="&#xc0;" horiz-adv-x="698" 
d="M291 744h114l274 -744h-112l-74 217h-293l-76 -217h-105zM228 297h238l-71 208q-10 27 -18 55t-14 51q-7 26 -13 52h-3q-7 -26 -14 -53q-7 -23 -15 -51t-17 -54zM222 910h114l53 -125h-78z" />
    <glyph glyph-name="Aacute" unicode="&#xc1;" horiz-adv-x="698" 
d="M291 744h114l274 -744h-112l-74 217h-293l-76 -217h-105zM228 297h238l-71 208q-10 27 -18 55t-14 51q-7 26 -13 52h-3q-7 -26 -14 -53q-7 -23 -15 -51t-17 -54zM359 910h114l-89 -125h-78z" />
    <glyph glyph-name="Acircumflex" unicode="&#xc2;" horiz-adv-x="698" 
d="M291 744h114l274 -744h-112l-74 217h-293l-76 -217h-105zM228 297h238l-71 208q-10 27 -18 55t-14 51q-7 26 -13 52h-3q-7 -26 -14 -53q-7 -23 -15 -51t-17 -54zM299 898h103l98 -113h-96l-54 61h-2l-56 -61h-94z" />
    <glyph glyph-name="Atilde" unicode="&#xc3;" horiz-adv-x="698" 
d="M291 744h114l274 -744h-112l-74 217h-293l-76 -217h-105zM228 297h238l-71 208q-10 27 -18 55t-14 51q-7 26 -13 52h-3q-7 -26 -14 -53q-7 -23 -15 -51t-17 -54zM416 786q-20 0 -37.5 6t-33 13.5t-29 13.5t-23.5 6q-12 0 -19.5 -11.5t-9.5 -26.5h-64q2 52 24 79.5
t60 27.5q21 0 37.5 -6t31 -13.5t27.5 -13.5t27 -6q15 0 20.5 11.5t7.5 25.5h64q-2 -50 -21.5 -78t-61.5 -28z" />
    <glyph glyph-name="Adieresis" unicode="&#xc4;" horiz-adv-x="698" 
d="M291 744h114l274 -744h-112l-74 217h-293l-76 -217h-105zM228 297h238l-71 208q-10 27 -18 55t-14 51q-7 26 -13 52h-3q-7 -26 -14 -53q-7 -23 -15 -51t-17 -54zM403 893h94v-108h-94v108zM201 893h94v-108h-94v108z" />
    <glyph glyph-name="Aring" unicode="&#xc5;" horiz-adv-x="698" 
d="M291 744h114l274 -744h-112l-74 217h-293l-76 -217h-105zM228 297h238l-71 208q-10 27 -18 55t-14 51q-7 26 -13 52h-3q-7 -26 -14 -53q-7 -23 -15 -51t-17 -54zM350 778q-21 0 -40 8t-33 21.5t-22 32t-8 39.5t8 39t22 31.5t33 21t40 7.5t39.5 -7.5t32.5 -21t22 -31.5
t8 -39t-8 -39.5t-22 -32t-32.5 -21.5t-39.5 -8zM350 820q24 0 39.5 16.5t15.5 42.5q0 25 -15.5 41.5t-39.5 16.5q-25 0 -40.5 -16.5t-15.5 -41.5q0 -26 15.5 -42.5t40.5 -16.5z" />
    <glyph glyph-name="AE" unicode="&#xc6;" horiz-adv-x="1010" 
d="M949 654h-383v-225h342v-85h-342v-250h395v-94h-498v217h-260l-76 -217h-103l269 744h656v-90zM232 299h231v355h-105z" />
    <glyph glyph-name="Ccedilla" unicode="&#xc7;" horiz-adv-x="756" 
d="M359 -208q-38 0 -65 9t-46 22l16 31q35 -16 75 -16q26 0 44.5 7.5t18.5 27.5q0 18 -12 25.5t-30 7.5q-14 0 -24 -2t-19 -5l-16 25l60 63q-72 7 -129.5 38t-98 82t-62.5 118.5t-22 146.5q0 82 24 153t69.5 123t111 82t148.5 30q66 0 117.5 -17.5t89.5 -48.5
q40 -32 63.5 -76.5t31.5 -98.5h-102q-13 69 -64.5 110.5t-137.5 41.5q-59 0 -105 -22.5t-77.5 -62.5t-48 -95t-16.5 -119q0 -67 17.5 -122t50 -94t78.5 -60.5t102 -21.5q51 0 88.5 16t63 43t40 62.5t17.5 75.5h102q0 -28 -6.5 -56.5t-18.5 -55.5t-28 -51.5t-36 -43.5
q-74 -74 -207 -79l-47 -41v-2q15 2 33 0t33.5 -9.5t26 -22t10.5 -37.5q0 -40 -31.5 -60.5t-81.5 -20.5z" />
    <glyph glyph-name="Egrave" unicode="&#xc8;" horiz-adv-x="666" 
d="M77 744h529v-90h-427v-225h386v-85h-386v-251h438v-93h-540v744zM226 910h114l53 -125h-78z" />
    <glyph glyph-name="Eacute" unicode="&#xc9;" horiz-adv-x="666" 
d="M77 744h529v-90h-427v-225h386v-85h-386v-251h438v-93h-540v744zM363 910h114l-89 -125h-78z" />
    <glyph glyph-name="Ecircumflex" unicode="&#xca;" horiz-adv-x="666" 
d="M77 744h529v-90h-427v-225h386v-85h-386v-251h438v-93h-540v744zM303 898h103l98 -113h-96l-54 61h-2l-56 -61h-94z" />
    <glyph glyph-name="Edieresis" unicode="&#xcb;" horiz-adv-x="666" 
d="M77 744h529v-90h-427v-225h386v-85h-386v-251h438v-93h-540v744zM205 893h94v-108h-94v108zM407 893h94v-108h-94v108z" />
    <glyph glyph-name="Igrave" unicode="&#xcc;" horiz-adv-x="260" 
d="M79 744h102v-744h-102v744zM3 910h114l53 -125h-78z" />
    <glyph glyph-name="Iacute" unicode="&#xcd;" horiz-adv-x="260" 
d="M79 744h102v-744h-102v744zM140 910h114l-89 -125h-78z" />
    <glyph glyph-name="Icircumflex" unicode="&#xce;" horiz-adv-x="260" 
d="M79 744h102v-744h-102v744zM80 898h103l98 -113h-96l-54 61h-2l-56 -61h-94z" />
    <glyph glyph-name="Idieresis" unicode="&#xcf;" horiz-adv-x="260" 
d="M79 744h102v-744h-102v744zM174 893h94v-108h-94v108zM-8 893h94v-108h-94v108z" />
    <glyph glyph-name="Eth" unicode="&#xd0;" horiz-adv-x="742" 
d="M13 417h74v327h275q84 0 146 -27t103.5 -76.5t62 -118.5t20.5 -153q0 -83 -21.5 -151t-64 -116.5t-106 -75t-147.5 -26.5h-268v331h-74v86zM351 89q63 0 108 19.5t74 56t42.5 88.5t13.5 116t-12.5 117t-40 90.5t-72 58t-107.5 20.5h-167v-238h210v-86h-210v-242h161z" />
    <glyph glyph-name="Ntilde" unicode="&#xd1;" horiz-adv-x="741" 
d="M77 744h107l305 -466q14 -21 28.5 -46.5t26.5 -48.5q14 -26 28 -53h3l-4 56q-2 24 -2.5 52t-0.5 51v455h96v-744h-106l-304 466q-14 21 -28.5 46t-27.5 48q-15 26 -29 53h-2q1 -28 3 -56q1 -24 2 -51t1 -50v-456h-96v744zM445 786q-20 0 -37.5 6t-33 13.5t-29 13.5
t-23.5 6q-12 0 -19.5 -11.5t-9.5 -26.5h-64q2 52 24 79.5t60 27.5q21 0 37.5 -6t31 -13.5t27.5 -13.5t27 -6q15 0 20.5 11.5t7.5 25.5h64q-2 -50 -21.5 -78t-61.5 -28z" />
    <glyph glyph-name="Ograve" unicode="&#xd2;" horiz-adv-x="826" 
d="M413 -16q-84 0 -151.5 29.5t-115 81.5t-72.5 123t-25 154q0 84 25 155t72.5 122.5t115 81t151.5 29.5t151.5 -29.5t115 -81t73 -122.5t25.5 -155q0 -83 -25.5 -154t-73 -123t-115 -81.5t-151.5 -29.5zM413 74q63 0 111.5 22.5t81.5 62.5t49.5 94.5t16.5 118.5t-16.5 119
t-49.5 95t-81.5 63t-111.5 23t-111.5 -23t-81.5 -63t-50 -95t-17 -119t17 -118.5t50 -94.5t81.5 -62.5t111.5 -22.5zM286 910h114l53 -125h-78z" />
    <glyph glyph-name="Oacute" unicode="&#xd3;" horiz-adv-x="826" 
d="M413 -16q-84 0 -151.5 29.5t-115 81.5t-72.5 123t-25 154q0 84 25 155t72.5 122.5t115 81t151.5 29.5t151.5 -29.5t115 -81t73 -122.5t25.5 -155q0 -83 -25.5 -154t-73 -123t-115 -81.5t-151.5 -29.5zM413 74q63 0 111.5 22.5t81.5 62.5t49.5 94.5t16.5 118.5t-16.5 119
t-49.5 95t-81.5 63t-111.5 23t-111.5 -23t-81.5 -63t-50 -95t-17 -119t17 -118.5t50 -94.5t81.5 -62.5t111.5 -22.5zM423 910h114l-89 -125h-78z" />
    <glyph glyph-name="Ocircumflex" unicode="&#xd4;" horiz-adv-x="826" 
d="M413 -16q-84 0 -151.5 29.5t-115 81.5t-72.5 123t-25 154q0 84 25 155t72.5 122.5t115 81t151.5 29.5t151.5 -29.5t115 -81t73 -122.5t25.5 -155q0 -83 -25.5 -154t-73 -123t-115 -81.5t-151.5 -29.5zM413 74q63 0 111.5 22.5t81.5 62.5t49.5 94.5t16.5 118.5t-16.5 119
t-49.5 95t-81.5 63t-111.5 23t-111.5 -23t-81.5 -63t-50 -95t-17 -119t17 -118.5t50 -94.5t81.5 -62.5t111.5 -22.5zM363 898h103l98 -113h-96l-54 61h-2l-56 -61h-94z" />
    <glyph glyph-name="Otilde" unicode="&#xd5;" horiz-adv-x="826" 
d="M413 -16q-84 0 -151.5 29.5t-115 81.5t-72.5 123t-25 154q0 84 25 155t72.5 122.5t115 81t151.5 29.5t151.5 -29.5t115 -81t73 -122.5t25.5 -155q0 -83 -25.5 -154t-73 -123t-115 -81.5t-151.5 -29.5zM413 74q63 0 111.5 22.5t81.5 62.5t49.5 94.5t16.5 118.5t-16.5 119
t-49.5 95t-81.5 63t-111.5 23t-111.5 -23t-81.5 -63t-50 -95t-17 -119t17 -118.5t50 -94.5t81.5 -62.5t111.5 -22.5zM480 786q-20 0 -37.5 6t-33 13.5t-29 13.5t-23.5 6q-12 0 -19.5 -11.5t-9.5 -26.5h-64q2 52 24 79.5t60 27.5q21 0 37.5 -6t31 -13.5t27.5 -13.5t27 -6
q15 0 20.5 11.5t7.5 25.5h64q-2 -50 -21.5 -78t-61.5 -28z" />
    <glyph glyph-name="Odieresis" unicode="&#xd6;" horiz-adv-x="826" 
d="M413 -16q-84 0 -151.5 29.5t-115 81.5t-72.5 123t-25 154q0 84 25 155t72.5 122.5t115 81t151.5 29.5t151.5 -29.5t115 -81t73 -122.5t25.5 -155q0 -83 -25.5 -154t-73 -123t-115 -81.5t-151.5 -29.5zM413 74q63 0 111.5 22.5t81.5 62.5t49.5 94.5t16.5 118.5t-16.5 119
t-49.5 95t-81.5 63t-111.5 23t-111.5 -23t-81.5 -63t-50 -95t-17 -119t17 -118.5t50 -94.5t81.5 -62.5t111.5 -22.5zM467 893h94v-108h-94v108zM265 893h94v-108h-94v108z" />
    <glyph glyph-name="multiply" unicode="&#xd7;" horiz-adv-x="601" 
d="M81 167l169 171l-169 172l51 50l169 -170l168 170l52 -50l-170 -171l170 -171l-52 -50l-169 170l-168 -170z" />
    <glyph glyph-name="Oslash" unicode="&#xd8;" horiz-adv-x="826" 
d="M28 1l104 111q-41 51 -62 117t-21 143q0 84 25 155t72.5 122.5t115 81t151.5 29.5q75 0 136 -23t107 -65l91 97l42 -37l-94 -101q40 -51 61.5 -116.5t21.5 -142.5q0 -83 -25.5 -154t-73 -123t-115 -81.5t-151.5 -29.5q-75 0 -135.5 22.5t-106.5 63.5l-101 -108zM153 372
q0 -54 12 -101.5t35 -85.5l391 417q-32 33 -76.5 51.5t-101.5 18.5q-63 0 -111.5 -23t-81.5 -63t-50 -95t-17 -119zM413 74q63 0 111.5 22.5t81.5 62.5t49.5 94.5t16.5 118.5q0 54 -11.5 100.5t-34.5 84.5l-389 -417q32 -31 75.5 -48.5t100.5 -17.5z" />
    <glyph glyph-name="Ugrave" unicode="&#xd9;" horiz-adv-x="704" 
d="M352 -11q-63 0 -115.5 14.5t-90.5 45t-59.5 78.5t-21.5 115v502h102v-493q0 -92 48.5 -133.5t138.5 -41.5q87 0 135 41.5t48 133.5v493h102v-502q0 -67 -22 -115t-60.5 -78.5t-91 -45t-113.5 -14.5zM225 910h114l53 -125h-78z" />
    <glyph glyph-name="Uacute" unicode="&#xda;" horiz-adv-x="704" 
d="M352 -11q-63 0 -115.5 14.5t-90.5 45t-59.5 78.5t-21.5 115v502h102v-493q0 -92 48.5 -133.5t138.5 -41.5q87 0 135 41.5t48 133.5v493h102v-502q0 -67 -22 -115t-60.5 -78.5t-91 -45t-113.5 -14.5zM362 910h114l-89 -125h-78z" />
    <glyph glyph-name="Ucircumflex" unicode="&#xdb;" horiz-adv-x="704" 
d="M352 -11q-63 0 -115.5 14.5t-90.5 45t-59.5 78.5t-21.5 115v502h102v-493q0 -92 48.5 -133.5t138.5 -41.5q87 0 135 41.5t48 133.5v493h102v-502q0 -67 -22 -115t-60.5 -78.5t-91 -45t-113.5 -14.5zM302 898h103l98 -113h-96l-54 61h-2l-56 -61h-94z" />
    <glyph glyph-name="Udieresis" unicode="&#xdc;" horiz-adv-x="704" 
d="M352 -11q-63 0 -115.5 14.5t-90.5 45t-59.5 78.5t-21.5 115v502h102v-493q0 -92 48.5 -133.5t138.5 -41.5q87 0 135 41.5t48 133.5v493h102v-502q0 -67 -22 -115t-60.5 -78.5t-91 -45t-113.5 -14.5zM406 893h94v-108h-94v108zM204 893h94v-108h-94v108z" />
    <glyph glyph-name="Yacute" unicode="&#xdd;" horiz-adv-x="678" 
d="M286 312l-268 432h114l134 -224q11 -20 24 -44t24 -45l25 -50h2q12 25 25 50q11 21 24 45t25 44l135 224h109l-271 -437v-307h-102v312zM351 910h114l-89 -125h-78z" />
    <glyph glyph-name="Thorn" unicode="&#xde;" horiz-adv-x="647" 
d="M77 744h103v-129h210q60 0 104.5 -18.5t73.5 -53.5q25 -29 39 -65.5t14 -80.5q0 -103 -60 -162t-181 -59h-200v-176h-103v744zM180 525v-266h190q76 0 112.5 36t36.5 98q0 66 -38 99t-107 33h-194z" />
    <glyph glyph-name="germandbls" unicode="&#xdf;" horiz-adv-x="549" 
d="M282 -11q-13 0 -27.5 1.5t-27.5 4.5v73h2q41 -8 76 -1t60.5 27t40 52t14.5 75q0 75 -40.5 117t-117.5 42h-28v67h29q57 0 92.5 33.5t35.5 88.5q0 49 -30 79t-85 30q-58 0 -88.5 -33t-30.5 -87v-558h-93v563q0 42 14.5 77t42.5 60t68 39t90 14q43 0 80 -13t64.5 -36.5
t43 -57t15.5 -73.5q0 -114 -122 -152v-2q70 -17 112 -65.5t42 -130.5q0 -54 -16 -97.5t-46 -73.5t-73 -46.5t-97 -16.5z" />
    <glyph glyph-name="agrave" unicode="&#xe0;" horiz-adv-x="562" 
d="M224 -11q-38 0 -71.5 9.5t-58 28.5t-38.5 47.5t-14 67.5q0 47 16.5 77t47 48t73 28t94.5 16q30 3 54 8t41 13.5t26 21.5t9 34q0 44 -29.5 69t-85.5 25q-64 0 -95.5 -28t-33.5 -76h-90q1 34 15 65t41 55t67.5 38t94.5 14q38 0 71 -7t59 -22q34 -20 53 -56t19 -90v-251
q0 -32 11 -48t46 -8h4v-65q-10 -3 -21.5 -5.5t-28.5 -2.5q-43 0 -65 20.5t-30 63.5h-1q-13 -18 -30 -34t-39 -28.5t-49.5 -20t-61.5 -7.5zM247 57q40 0 69.5 13.5t49 34t29 45.5t9.5 48v88q-20 -13 -52.5 -22.5t-65.5 -15.5t-60 -12.5t-46 -18t-29.5 -29t-10.5 -45.5
q0 -26 9 -42.5t24 -26.5t34.5 -13.5t39.5 -3.5zM159 770h114l53 -145h-78z" />
    <glyph glyph-name="aacute" unicode="&#xe1;" horiz-adv-x="562" 
d="M224 -11q-38 0 -71.5 9.5t-58 28.5t-38.5 47.5t-14 67.5q0 47 16.5 77t47 48t73 28t94.5 16q30 3 54 8t41 13.5t26 21.5t9 34q0 44 -29.5 69t-85.5 25q-64 0 -95.5 -28t-33.5 -76h-90q1 34 15 65t41 55t67.5 38t94.5 14q38 0 71 -7t59 -22q34 -20 53 -56t19 -90v-251
q0 -32 11 -48t46 -8h4v-65q-10 -3 -21.5 -5.5t-28.5 -2.5q-43 0 -65 20.5t-30 63.5h-1q-13 -18 -30 -34t-39 -28.5t-49.5 -20t-61.5 -7.5zM247 57q40 0 69.5 13.5t49 34t29 45.5t9.5 48v88q-20 -13 -52.5 -22.5t-65.5 -15.5t-60 -12.5t-46 -18t-29.5 -29t-10.5 -45.5
q0 -26 9 -42.5t24 -26.5t34.5 -13.5t39.5 -3.5zM292 770h114l-89 -145h-78z" />
    <glyph glyph-name="acircumflex" unicode="&#xe2;" horiz-adv-x="562" 
d="M224 -11q-38 0 -71.5 9.5t-58 28.5t-38.5 47.5t-14 67.5q0 47 16.5 77t47 48t73 28t94.5 16q30 3 54 8t41 13.5t26 21.5t9 34q0 44 -29.5 69t-85.5 25q-64 0 -95.5 -28t-33.5 -76h-90q1 34 15 65t41 55t67.5 38t94.5 14q38 0 71 -7t59 -22q34 -20 53 -56t19 -90v-251
q0 -32 11 -48t46 -8h4v-65q-10 -3 -21.5 -5.5t-28.5 -2.5q-43 0 -65 20.5t-30 63.5h-1q-13 -18 -30 -34t-39 -28.5t-49.5 -20t-61.5 -7.5zM247 57q40 0 69.5 13.5t49 34t29 45.5t9.5 48v88q-20 -13 -52.5 -22.5t-65.5 -15.5t-60 -12.5t-46 -18t-29.5 -29t-10.5 -45.5
q0 -26 9 -42.5t24 -26.5t34.5 -13.5t39.5 -3.5zM232 752h103l94 -123h-94l-52 75h-2l-54 -75h-92z" />
    <glyph glyph-name="atilde" unicode="&#xe3;" horiz-adv-x="562" 
d="M224 -11q-38 0 -71.5 9.5t-58 28.5t-38.5 47.5t-14 67.5q0 47 16.5 77t47 48t73 28t94.5 16q30 3 54 8t41 13.5t26 21.5t9 34q0 44 -29.5 69t-85.5 25q-64 0 -95.5 -28t-33.5 -76h-90q1 34 15 65t41 55t67.5 38t94.5 14q38 0 71 -7t59 -22q34 -20 53 -56t19 -90v-251
q0 -32 11 -48t46 -8h4v-65q-10 -3 -21.5 -5.5t-28.5 -2.5q-43 0 -65 20.5t-30 63.5h-1q-13 -18 -30 -34t-39 -28.5t-49.5 -20t-61.5 -7.5zM247 57q40 0 69.5 13.5t49 34t29 45.5t9.5 48v88q-20 -13 -52.5 -22.5t-65.5 -15.5t-60 -12.5t-46 -18t-29.5 -29t-10.5 -45.5
q0 -26 9 -42.5t24 -26.5t34.5 -13.5t39.5 -3.5zM349 631q-20 0 -37.5 6t-33 13.5t-29 13.5t-23.5 6q-12 0 -19.5 -11.5t-9.5 -26.5h-64q2 52 24 79.5t60 27.5q21 0 37.5 -6t31 -13.5t27.5 -13.5t27 -6q15 0 20.5 11.5t7.5 25.5h64q-2 -50 -21.5 -78t-61.5 -28z" />
    <glyph glyph-name="adieresis" unicode="&#xe4;" horiz-adv-x="562" 
d="M224 -11q-38 0 -71.5 9.5t-58 28.5t-38.5 47.5t-14 67.5q0 47 16.5 77t47 48t73 28t94.5 16q30 3 54 8t41 13.5t26 21.5t9 34q0 44 -29.5 69t-85.5 25q-64 0 -95.5 -28t-33.5 -76h-90q1 34 15 65t41 55t67.5 38t94.5 14q38 0 71 -7t59 -22q34 -20 53 -56t19 -90v-251
q0 -32 11 -48t46 -8h4v-65q-10 -3 -21.5 -5.5t-28.5 -2.5q-43 0 -65 20.5t-30 63.5h-1q-13 -18 -30 -34t-39 -28.5t-49.5 -20t-61.5 -7.5zM247 57q40 0 69.5 13.5t49 34t29 45.5t9.5 48v88q-20 -13 -52.5 -22.5t-65.5 -15.5t-60 -12.5t-46 -18t-29.5 -29t-10.5 -45.5
q0 -26 9 -42.5t24 -26.5t34.5 -13.5t39.5 -3.5zM335 744h92v-108h-92v108zM137 744h92v-108h-92v108z" />
    <glyph glyph-name="aring" unicode="&#xe5;" horiz-adv-x="562" 
d="M224 -11q-38 0 -71.5 9.5t-58 28.5t-38.5 47.5t-14 67.5q0 47 16.5 77t47 48t73 28t94.5 16q30 3 54 8t41 13.5t26 21.5t9 34q0 44 -29.5 69t-85.5 25q-64 0 -95.5 -28t-33.5 -76h-90q1 34 15 65t41 55t67.5 38t94.5 14q38 0 71 -7t59 -22q34 -20 53 -56t19 -90v-251
q0 -32 11 -48t46 -8h4v-65q-10 -3 -21.5 -5.5t-28.5 -2.5q-43 0 -65 20.5t-30 63.5h-1q-13 -18 -30 -34t-39 -28.5t-49.5 -20t-61.5 -7.5zM247 57q40 0 69.5 13.5t49 34t29 45.5t9.5 48v88q-20 -13 -52.5 -22.5t-65.5 -15.5t-60 -12.5t-46 -18t-29.5 -29t-10.5 -45.5
q0 -26 9 -42.5t24 -26.5t34.5 -13.5t39.5 -3.5zM283 599q-21 0 -40 8t-33 21.5t-22 32t-8 39.5t8 39t22 31.5t33 21t40 7.5t39.5 -7.5t32.5 -21t22 -31.5t8 -39t-8 -39.5t-22 -32t-32.5 -21.5t-39.5 -8zM283 641q24 0 39.5 16.5t15.5 42.5q0 25 -15.5 41.5t-39.5 16.5
q-25 0 -40.5 -16.5t-15.5 -41.5q0 -26 15.5 -42.5t40.5 -16.5z" />
    <glyph glyph-name="ae" unicode="&#xe6;" horiz-adv-x="918" 
d="M236 -12q-87 0 -140.5 38.5t-53.5 115.5q0 47 16.5 77t47 48t73 28t94.5 16q30 3 54 8t41 13.5t26 21.5t9 34q0 44 -29.5 69t-85.5 25q-64 0 -95.5 -28t-33.5 -76h-90q1 34 15 65t41 55t67.5 38t94.5 14q65 0 111 -21t67 -70q29 42 73 66.5t104 24.5t104 -22t75 -61
q32 -41 47 -97.5t15 -123.5h-391q2 -39 13 -73t30.5 -59t49 -39t69.5 -14q51 0 85 25t45 67h91q-8 -39 -27 -70t-48 -53t-66 -33.5t-80 -11.5q-77 0 -127.5 32t-78.5 86h-2q-41 -64 -93.5 -89.5t-116.5 -25.5zM247 57q40 0 69.5 13.5t49 34t29 45.5t9.5 48v88
q-20 -13 -52.5 -22.5t-65.5 -15.5t-60 -12.5t-46 -18t-29.5 -29t-10.5 -45.5q0 -26 9 -42.5t24 -26.5t34.5 -13.5t39.5 -3.5zM642 478q-34 0 -60 -12.5t-44.5 -34.5t-29.5 -52t-15 -66h292q-2 78 -41 121.5t-102 43.5z" />
    <glyph glyph-name="ccedilla" unicode="&#xe7;" horiz-adv-x="560" 
d="M261 -208q-38 0 -65 9t-46 22l16 31q35 -16 75 -16q26 0 44.5 7.5t18.5 27.5q0 18 -12 25.5t-30 7.5q-14 0 -24 -2t-19 -5l-16 25l60 63q-53 6 -95 30t-71.5 61.5t-45.5 86t-16 103.5q0 58 18.5 109.5t52.5 90t82.5 60.5t108.5 22q97 0 157.5 -50.5t74.5 -137.5h-93
q-10 53 -45 83t-94 30q-41 0 -72.5 -16t-52.5 -44t-31.5 -66t-10.5 -81q0 -44 10.5 -81.5t31.5 -65.5t52.5 -44t72.5 -16q63 0 99.5 34.5t41.5 94.5h92q-9 -91 -63.5 -144.5t-148.5 -59.5l-47 -42v-2q15 2 33 0t33.5 -9.5t26 -22t10.5 -37.5q0 -40 -31.5 -60.5t-81.5 -20.5z
" />
    <glyph glyph-name="egrave" unicode="&#xe8;" horiz-adv-x="577" 
d="M297 -15q-62 0 -110.5 22t-82.5 60.5t-51.5 90t-17.5 110.5q0 58 18.5 109.5t52 90t81 60.5t105.5 22q60 0 106 -22t78 -61q33 -40 49.5 -96t16.5 -125h-412q3 -39 15 -73t33 -59t51 -39t69 -14q56 0 92.5 24.5t49.5 67.5h91q-18 -75 -79.5 -121.5t-154.5 -46.5zM292 478
q-36 0 -64 -12.5t-48 -34.5t-32 -52t-16 -66h311q-4 78 -42.5 121.5t-108.5 43.5zM170 770h114l53 -145h-78z" />
    <glyph glyph-name="eacute" unicode="&#xe9;" horiz-adv-x="577" 
d="M297 -15q-62 0 -110.5 22t-82.5 60.5t-51.5 90t-17.5 110.5q0 58 18.5 109.5t52 90t81 60.5t105.5 22q60 0 106 -22t78 -61q33 -40 49.5 -96t16.5 -125h-412q3 -39 15 -73t33 -59t51 -39t69 -14q56 0 92.5 24.5t49.5 67.5h91q-18 -75 -79.5 -121.5t-154.5 -46.5zM292 478
q-36 0 -64 -12.5t-48 -34.5t-32 -52t-16 -66h311q-4 78 -42.5 121.5t-108.5 43.5zM303 770h114l-89 -145h-78z" />
    <glyph glyph-name="ecircumflex" unicode="&#xea;" horiz-adv-x="577" 
d="M297 -15q-62 0 -110.5 22t-82.5 60.5t-51.5 90t-17.5 110.5q0 58 18.5 109.5t52 90t81 60.5t105.5 22q60 0 106 -22t78 -61q33 -40 49.5 -96t16.5 -125h-412q3 -39 15 -73t33 -59t51 -39t69 -14q56 0 92.5 24.5t49.5 67.5h91q-18 -75 -79.5 -121.5t-154.5 -46.5zM292 478
q-36 0 -64 -12.5t-48 -34.5t-32 -52t-16 -66h311q-4 78 -42.5 121.5t-108.5 43.5zM243 752h103l94 -123h-94l-52 75h-2l-54 -75h-92z" />
    <glyph glyph-name="edieresis" unicode="&#xeb;" horiz-adv-x="577" 
d="M297 -15q-62 0 -110.5 22t-82.5 60.5t-51.5 90t-17.5 110.5q0 58 18.5 109.5t52 90t81 60.5t105.5 22q60 0 106 -22t78 -61q33 -40 49.5 -96t16.5 -125h-412q3 -39 15 -73t33 -59t51 -39t69 -14q56 0 92.5 24.5t49.5 67.5h91q-18 -75 -79.5 -121.5t-154.5 -46.5zM292 478
q-36 0 -64 -12.5t-48 -34.5t-32 -52t-16 -66h311q-4 78 -42.5 121.5t-108.5 43.5zM346 744h92v-108h-92v108zM148 744h92v-108h-92v108z" />
    <glyph glyph-name="igrave" unicode="&#xec;" horiz-adv-x="221" 
d="M64 537h93v-537h-93v537zM-13 770h114l53 -145h-78z" />
    <glyph glyph-name="iacute" unicode="&#xed;" horiz-adv-x="221" 
d="M64 537h93v-537h-93v537zM120 770h114l-89 -145h-78z" />
    <glyph glyph-name="icircumflex" unicode="&#xee;" horiz-adv-x="221" 
d="M64 537h93v-537h-93v537zM60 752h103l94 -123h-94l-52 75h-2l-54 -75h-92z" />
    <glyph glyph-name="idieresis" unicode="&#xef;" horiz-adv-x="221" 
d="M64 537h93v-537h-93v537zM143 744h92v-108h-92v108zM-15 744h92v-108h-92v108z" />
    <glyph glyph-name="eth" unicode="&#xf0;" horiz-adv-x="597" 
d="M184 634l109 33q-22 20 -44 36.5t-44 33.5v7h110q31 -21 65 -50l111 34l17 -48l-86 -26q28 -30 52.5 -66.5t43.5 -80.5t30 -96t11 -112q0 -68 -17.5 -125.5t-51 -99.5t-82 -65.5t-110.5 -23.5q-61 0 -109.5 22.5t-82.5 60.5t-52.5 89.5t-18.5 110.5q0 58 17 109.5t49 89
t77.5 59.5t102.5 22q44 0 84 -15t67 -50h3q-17 42 -43 77.5t-56 66.5l-136 -41zM297 61q41 0 72.5 16.5t52.5 45t31.5 66.5t10.5 82q0 43 -11 80.5t-32.5 65t-53 43.5t-73.5 16q-41 0 -71.5 -16t-51 -44t-31 -66t-10.5 -82t10.5 -81.5t31.5 -65.5t52.5 -44t72.5 -16z" />
    <glyph glyph-name="ntilde" unicode="&#xf1;" horiz-adv-x="571" 
d="M156 461h3q29 41 70 65t100 24q85 0 133 -45t48 -130v-375h-92v364q0 52 -31.5 80t-86.5 28q-31 0 -57.5 -10.5t-45.5 -29.5t-29.5 -46t-10.5 -59v-327h-93v537h92v-76zM357 631q-20 0 -37.5 6t-33 13.5t-29 13.5t-23.5 6q-12 0 -19.5 -11.5t-9.5 -26.5h-64q2 52 24 79.5
t60 27.5q21 0 37.5 -6t31 -13.5t27.5 -13.5t27 -6q15 0 20.5 11.5t7.5 25.5h64q-2 -50 -21.5 -78t-61.5 -28z" />
    <glyph glyph-name="ograve" unicode="&#xf2;" horiz-adv-x="594" 
d="M298 -15q-61 0 -109.5 22t-82.5 60.5t-52.5 90t-18.5 110.5q0 58 18.5 109.5t52.5 90t82.5 60.5t109.5 22t109 -22t82 -60.5t52 -90t18 -109.5q0 -59 -18 -110.5t-52 -90t-82 -60.5t-109 -22zM297 61q41 0 72.5 16t52.5 44t31.5 65.5t10.5 81.5q0 43 -10.5 81t-31.5 66.5
t-52.5 44.5t-72.5 16t-72.5 -16t-52.5 -44.5t-31.5 -66.5t-10.5 -81q0 -44 10.5 -81.5t31.5 -65.5t52.5 -44t72.5 -16zM174 770h114l53 -145h-78z" />
    <glyph glyph-name="oacute" unicode="&#xf3;" horiz-adv-x="594" 
d="M298 -15q-61 0 -109.5 22t-82.5 60.5t-52.5 90t-18.5 110.5q0 58 18.5 109.5t52.5 90t82.5 60.5t109.5 22t109 -22t82 -60.5t52 -90t18 -109.5q0 -59 -18 -110.5t-52 -90t-82 -60.5t-109 -22zM297 61q41 0 72.5 16t52.5 44t31.5 65.5t10.5 81.5q0 43 -10.5 81t-31.5 66.5
t-52.5 44.5t-72.5 16t-72.5 -16t-52.5 -44.5t-31.5 -66.5t-10.5 -81q0 -44 10.5 -81.5t31.5 -65.5t52.5 -44t72.5 -16zM307 770h114l-89 -145h-78z" />
    <glyph glyph-name="ocircumflex" unicode="&#xf4;" horiz-adv-x="594" 
d="M298 -15q-61 0 -109.5 22t-82.5 60.5t-52.5 90t-18.5 110.5q0 58 18.5 109.5t52.5 90t82.5 60.5t109.5 22t109 -22t82 -60.5t52 -90t18 -109.5q0 -59 -18 -110.5t-52 -90t-82 -60.5t-109 -22zM297 61q41 0 72.5 16t52.5 44t31.5 65.5t10.5 81.5q0 43 -10.5 81t-31.5 66.5
t-52.5 44.5t-72.5 16t-72.5 -16t-52.5 -44.5t-31.5 -66.5t-10.5 -81q0 -44 10.5 -81.5t31.5 -65.5t52.5 -44t72.5 -16zM247 752h103l94 -123h-94l-52 75h-2l-54 -75h-92z" />
    <glyph glyph-name="otilde" unicode="&#xf5;" horiz-adv-x="594" 
d="M298 -15q-61 0 -109.5 22t-82.5 60.5t-52.5 90t-18.5 110.5q0 58 18.5 109.5t52.5 90t82.5 60.5t109.5 22t109 -22t82 -60.5t52 -90t18 -109.5q0 -59 -18 -110.5t-52 -90t-82 -60.5t-109 -22zM297 61q41 0 72.5 16t52.5 44t31.5 65.5t10.5 81.5q0 43 -10.5 81t-31.5 66.5
t-52.5 44.5t-72.5 16t-72.5 -16t-52.5 -44.5t-31.5 -66.5t-10.5 -81q0 -44 10.5 -81.5t31.5 -65.5t52.5 -44t72.5 -16zM364 631q-20 0 -37.5 6t-33 13.5t-29 13.5t-23.5 6q-12 0 -19.5 -11.5t-9.5 -26.5h-64q2 52 24 79.5t60 27.5q21 0 37.5 -6t31 -13.5t27.5 -13.5t27 -6
q15 0 20.5 11.5t7.5 25.5h64q-2 -50 -21.5 -78t-61.5 -28z" />
    <glyph glyph-name="odieresis" unicode="&#xf6;" horiz-adv-x="594" 
d="M298 -15q-61 0 -109.5 22t-82.5 60.5t-52.5 90t-18.5 110.5q0 58 18.5 109.5t52.5 90t82.5 60.5t109.5 22t109 -22t82 -60.5t52 -90t18 -109.5q0 -59 -18 -110.5t-52 -90t-82 -60.5t-109 -22zM297 61q41 0 72.5 16t52.5 44t31.5 65.5t10.5 81.5q0 43 -10.5 81t-31.5 66.5
t-52.5 44.5t-72.5 16t-72.5 -16t-52.5 -44.5t-31.5 -66.5t-10.5 -81q0 -44 10.5 -81.5t31.5 -65.5t52.5 -44t72.5 -16zM350 744h92v-108h-92v108zM152 744h92v-108h-92v108z" />
    <glyph glyph-name="divide" unicode="&#xf7;" horiz-adv-x="600" 
d="M246 576h109v-109h-109v109zM63 376h474v-73h-474v73zM246 211h109v-108h-109v108z" />
    <glyph glyph-name="oslash" unicode="&#xf8;" horiz-adv-x="594" 
d="M19 3l74 80q-29 37 -43.5 84t-14.5 101q0 58 18.5 109.5t52.5 90t82.5 60.5t109.5 22q52 0 95 -16.5t75 -45.5l70 75l36 -32l-73 -79q28 -37 43 -84t15 -100q0 -59 -18 -110.5t-52 -90t-82 -60.5t-109 -22q-53 0 -96 16.5t-76 45.5l-71 -76zM129 268q0 -70 25 -119
l258 279q-20 23 -49 35.5t-66 12.5q-41 0 -72.5 -16t-52.5 -44.5t-32 -66.5t-11 -81zM297 61q41 0 72.5 16t52.5 44t32 65.5t11 81.5q0 66 -25 118l-258 -278q21 -22 49.5 -34.5t65.5 -12.5z" />
    <glyph glyph-name="ugrave" unicode="&#xf9;" horiz-adv-x="564" 
d="M407 0v75h-2q-29 -40 -66.5 -63.5t-95.5 -23.5q-84 0 -133 47t-49 132v370h93v-365q0 -51 30.5 -79.5t86.5 -28.5q31 0 56 11t42.5 30.5t27 46.5t9.5 58v327h93v-537h-92zM157 770h114l53 -145h-78z" />
    <glyph glyph-name="uacute" unicode="&#xfa;" horiz-adv-x="564" 
d="M407 0v75h-2q-29 -40 -66.5 -63.5t-95.5 -23.5q-84 0 -133 47t-49 132v370h93v-365q0 -51 30.5 -79.5t86.5 -28.5q31 0 56 11t42.5 30.5t27 46.5t9.5 58v327h93v-537h-92zM290 770h114l-89 -145h-78z" />
    <glyph glyph-name="ucircumflex" unicode="&#xfb;" horiz-adv-x="564" 
d="M407 0v75h-2q-29 -40 -66.5 -63.5t-95.5 -23.5q-84 0 -133 47t-49 132v370h93v-365q0 -51 30.5 -79.5t86.5 -28.5q31 0 56 11t42.5 30.5t27 46.5t9.5 58v327h93v-537h-92zM230 752h103l94 -123h-94l-52 75h-2l-54 -75h-92z" />
    <glyph glyph-name="udieresis" unicode="&#xfc;" horiz-adv-x="564" 
d="M407 0v75h-2q-29 -40 -66.5 -63.5t-95.5 -23.5q-84 0 -133 47t-49 132v370h93v-365q0 -51 30.5 -79.5t86.5 -28.5q31 0 56 11t42.5 30.5t27 46.5t9.5 58v327h93v-537h-92zM135 744h92v-108h-92v108zM333 744h92v-108h-92v108z" />
    <glyph glyph-name="yacute" unicode="&#xfd;" horiz-adv-x="519" 
d="M130 -187q-23 0 -45.5 3t-33.5 8v80h4q8 -5 23.5 -7.5t32.5 -2.5q28 0 47 13.5t33 51.5q0 1 3 10.5t7 21.5t7 23t2 13l-205 510h101l111 -298q8 -23 16 -48t15 -47q7 -26 14 -50h2q7 24 15 50q7 22 15 47t16 48l107 298h97l-228 -586q-17 -42 -33.5 -69t-35 -42.5
t-40 -21t-47.5 -5.5zM272 770h114l-89 -145h-78z" />
    <glyph glyph-name="thorn" unicode="&#xfe;" horiz-adv-x="596" 
d="M327 -16q-54 0 -97.5 22t-71.5 65h-3q1 -14 1.5 -36.5t0.5 -53.5v-154h-93v917h93v-190q0 -31 -1 -58t-2 -44h3q26 43 70.5 70.5t102.5 27.5q51 0 93.5 -19.5t73 -56t47.5 -89t17 -118.5q0 -65 -16 -117t-46.5 -89t-74 -57t-97.5 -20zM317 61q37 0 65 15.5t46.5 42.5
t28 64.5t9.5 81.5t-9 82t-27.5 65.5t-46.5 43t-65 15.5q-43 0 -74 -16t-51.5 -44t-30.5 -65.5t-10 -80.5q0 -42 9 -79.5t29 -65t51 -43.5t76 -16z" />
    <glyph glyph-name="ydieresis" unicode="&#xff;" horiz-adv-x="519" 
d="M130 -187q-23 0 -45.5 3t-33.5 8v80h4q8 -5 23.5 -7.5t32.5 -2.5q28 0 47 13.5t33 51.5q0 1 3 10.5t7 21.5t7 23t2 13l-205 510h101l111 -298q8 -23 16 -48t15 -47q7 -26 14 -50h2q7 24 15 50q7 22 15 47t16 48l107 298h97l-228 -586q-17 -42 -33.5 -69t-35 -42.5
t-40 -21t-47.5 -5.5zM315 744h92v-108h-92v108zM117 744h92v-108h-92v108z" />
    <glyph glyph-name="Amacron" unicode="&#x100;" horiz-adv-x="698" 
d="M291 744h114l274 -744h-112l-74 217h-293l-76 -217h-105zM228 297h238l-71 208q-10 27 -18 55t-14 51q-7 26 -13 52h-3q-7 -26 -14 -53q-7 -23 -15 -51t-17 -54zM207 870h285v-75h-285v75z" />
    <glyph glyph-name="amacron" unicode="&#x101;" horiz-adv-x="562" 
d="M224 -11q-38 0 -71.5 9.5t-58 28.5t-38.5 47.5t-14 67.5q0 47 16.5 77t47 48t73 28t94.5 16q30 3 54 8t41 13.5t26 21.5t9 34q0 44 -29.5 69t-85.5 25q-64 0 -95.5 -28t-33.5 -76h-90q1 34 15 65t41 55t67.5 38t94.5 14q38 0 71 -7t59 -22q34 -20 53 -56t19 -90v-251
q0 -32 11 -48t46 -8h4v-65q-10 -3 -21.5 -5.5t-28.5 -2.5q-43 0 -65 20.5t-30 63.5h-1q-13 -18 -30 -34t-39 -28.5t-49.5 -20t-61.5 -7.5zM247 57q40 0 69.5 13.5t49 34t29 45.5t9.5 48v88q-20 -13 -52.5 -22.5t-65.5 -15.5t-60 -12.5t-46 -18t-29.5 -29t-10.5 -45.5
q0 -26 9 -42.5t24 -26.5t34.5 -13.5t39.5 -3.5zM146 734h273v-75h-273v75z" />
    <glyph glyph-name="Abreve" unicode="&#x102;" horiz-adv-x="698" 
d="M291 744h114l274 -744h-112l-74 217h-293l-76 -217h-105zM228 297h238l-71 208q-10 27 -18 55t-14 51q-7 26 -13 52h-3q-7 -26 -14 -53q-7 -23 -15 -51t-17 -54zM349 780q-55 0 -94 34t-42 94h66q5 -28 21 -43.5t48 -15.5q31 0 49.5 15.5t22.5 43.5h65q-1 -27 -11 -50.5
t-28 -40.5t-42.5 -27t-54.5 -10z" />
    <glyph glyph-name="abreve" unicode="&#x103;" horiz-adv-x="562" 
d="M224 -11q-38 0 -71.5 9.5t-58 28.5t-38.5 47.5t-14 67.5q0 47 16.5 77t47 48t73 28t94.5 16q30 3 54 8t41 13.5t26 21.5t9 34q0 44 -29.5 69t-85.5 25q-64 0 -95.5 -28t-33.5 -76h-90q1 34 15 65t41 55t67.5 38t94.5 14q38 0 71 -7t59 -22q34 -20 53 -56t19 -90v-251
q0 -32 11 -48t46 -8h4v-65q-10 -3 -21.5 -5.5t-28.5 -2.5q-43 0 -65 20.5t-30 63.5h-1q-13 -18 -30 -34t-39 -28.5t-49.5 -20t-61.5 -7.5zM247 57q40 0 69.5 13.5t49 34t29 45.5t9.5 48v88q-20 -13 -52.5 -22.5t-65.5 -15.5t-60 -12.5t-46 -18t-29.5 -29t-10.5 -45.5
q0 -26 9 -42.5t24 -26.5t34.5 -13.5t39.5 -3.5zM282 620q-55 0 -94 34t-42 94h66q5 -28 21 -43.5t48 -15.5q31 0 49.5 15.5t22.5 43.5h65q-1 -27 -11 -50.5t-28 -40.5t-42.5 -27t-54.5 -10z" />
    <glyph glyph-name="Aogonek" unicode="&#x104;" horiz-adv-x="698" 
d="M625 -191q-57 0 -84.5 24.5t-27.5 63.5q0 19 7.5 34.5t19 28.5t25.5 23t28 17h-26l-74 217h-293l-76 -217h-105l272 744h114l274 -744q-35 -17 -57.5 -42t-22.5 -47q0 -35 43 -35q11 0 22 2t19 5h3v-65q-10 -3 -24.5 -6t-36.5 -3zM228 297h238l-71 208q-10 27 -18 55
t-14 51q-7 26 -13 52h-3q-7 -26 -14 -53q-7 -23 -15 -51t-17 -54z" />
    <glyph glyph-name="aogonek" unicode="&#x105;" horiz-adv-x="562" 
d="M491 -191q-57 0 -84.5 24.5t-27.5 63.5q0 18 7 33.5t18 29t25.5 24t28.5 18.5q-43 16 -52 77h-2q-13 -18 -30 -34t-39 -28.5t-49.5 -20t-61.5 -7.5q-38 0 -71.5 9.5t-58 28.5t-38.5 47.5t-14 67.5q0 47 16.5 77t47 48t73 28t94.5 16q30 3 54 8t41 13.5t26 21.5t9 34
q0 44 -29.5 69t-85.5 25q-64 0 -95.5 -28t-33.5 -76h-90q1 34 15 65t41 55t67.5 38t94.5 14q38 0 71 -7t59 -22q34 -20 53 -56t19 -90v-251q0 -32 11 -48t46 -8h4v-65q-42 -14 -63.5 -41.5t-21.5 -50.5q0 -35 43 -35q11 0 22 2t19 5h3v-65q-10 -3 -24.5 -6t-36.5 -3zM247 57
q40 0 69.5 13.5t49 34t29 45.5t9.5 48v88q-20 -13 -52.5 -22.5t-65.5 -15.5t-60 -12.5t-46 -18t-29.5 -29t-10.5 -45.5q0 -26 9 -42.5t24 -26.5t34.5 -13.5t39.5 -3.5z" />
    <glyph glyph-name="Cacute" unicode="&#x106;" horiz-adv-x="756" 
d="M399 -15q-80 0 -144.5 29t-110 80.5t-70.5 122.5t-25 155q0 82 24 153t69.5 123t111 82t148.5 30q66 0 117.5 -17.5t89.5 -48.5q40 -32 63.5 -76.5t31.5 -98.5h-102q-13 69 -64.5 110.5t-137.5 41.5q-59 0 -105 -22.5t-77.5 -62.5t-48 -95t-16.5 -119q0 -67 17.5 -122
t50 -94t78.5 -60.5t102 -21.5q51 0 88.5 16t63 43t40 62.5t17.5 75.5h102q0 -28 -6.5 -56.5t-18.5 -55.5t-28 -51.5t-36 -43.5q-79 -79 -224 -79zM399 910h114l-89 -125h-78z" />
    <glyph glyph-name="cacute" unicode="&#x107;" horiz-adv-x="560" 
d="M297 -15q-60 0 -108.5 22t-82.5 60.5t-52.5 90t-18.5 110.5q0 58 18.5 109.5t52.5 90t82.5 60.5t108.5 22q97 0 157.5 -50.5t74.5 -137.5h-93q-10 53 -45 83t-94 30q-41 0 -72.5 -16t-52.5 -44t-31.5 -66t-10.5 -81q0 -44 10.5 -81.5t31.5 -65.5t52.5 -44t72.5 -16
q63 0 99.5 34.5t41.5 94.5h92q-9 -97 -69.5 -151t-163.5 -54zM301 770h114l-89 -145h-78z" />
    <glyph glyph-name="Ccircumflex" unicode="&#x108;" horiz-adv-x="756" 
d="M399 -15q-80 0 -144.5 29t-110 80.5t-70.5 122.5t-25 155q0 82 24 153t69.5 123t111 82t148.5 30q66 0 117.5 -17.5t89.5 -48.5q40 -32 63.5 -76.5t31.5 -98.5h-102q-13 69 -64.5 110.5t-137.5 41.5q-59 0 -105 -22.5t-77.5 -62.5t-48 -95t-16.5 -119q0 -67 17.5 -122
t50 -94t78.5 -60.5t102 -21.5q51 0 88.5 16t63 43t40 62.5t17.5 75.5h102q0 -28 -6.5 -56.5t-18.5 -55.5t-28 -51.5t-36 -43.5q-79 -79 -224 -79zM339 898h103l98 -113h-96l-54 61h-2l-56 -61h-94z" />
    <glyph glyph-name="ccircumflex" unicode="&#x109;" horiz-adv-x="560" 
d="M297 -15q-60 0 -108.5 22t-82.5 60.5t-52.5 90t-18.5 110.5q0 58 18.5 109.5t52.5 90t82.5 60.5t108.5 22q97 0 157.5 -50.5t74.5 -137.5h-93q-10 53 -45 83t-94 30q-41 0 -72.5 -16t-52.5 -44t-31.5 -66t-10.5 -81q0 -44 10.5 -81.5t31.5 -65.5t52.5 -44t72.5 -16
q63 0 99.5 34.5t41.5 94.5h92q-9 -97 -69.5 -151t-163.5 -54zM241 752h103l94 -123h-94l-52 75h-2l-54 -75h-92z" />
    <glyph glyph-name="Cdotaccent" unicode="&#x10a;" horiz-adv-x="756" 
d="M399 -15q-80 0 -144.5 29t-110 80.5t-70.5 122.5t-25 155q0 82 24 153t69.5 123t111 82t148.5 30q66 0 117.5 -17.5t89.5 -48.5q40 -32 63.5 -76.5t31.5 -98.5h-102q-13 69 -64.5 110.5t-137.5 41.5q-59 0 -105 -22.5t-77.5 -62.5t-48 -95t-16.5 -119q0 -67 17.5 -122
t50 -94t78.5 -60.5t102 -21.5q51 0 88.5 16t63 43t40 62.5t17.5 75.5h102q0 -28 -6.5 -56.5t-18.5 -55.5t-28 -51.5t-36 -43.5q-79 -79 -224 -79zM341 893h97v-108h-97v108z" />
    <glyph glyph-name="cdotaccent" unicode="&#x10b;" horiz-adv-x="560" 
d="M297 -15q-60 0 -108.5 22t-82.5 60.5t-52.5 90t-18.5 110.5q0 58 18.5 109.5t52.5 90t82.5 60.5t108.5 22q97 0 157.5 -50.5t74.5 -137.5h-93q-10 53 -45 83t-94 30q-41 0 -72.5 -16t-52.5 -44t-31.5 -66t-10.5 -81q0 -44 10.5 -81.5t31.5 -65.5t52.5 -44t72.5 -16
q63 0 99.5 34.5t41.5 94.5h92q-9 -97 -69.5 -151t-163.5 -54zM243 744h97v-108h-97v108z" />
    <glyph glyph-name="Ccaron" unicode="&#x10c;" horiz-adv-x="756" 
d="M399 -15q-80 0 -144.5 29t-110 80.5t-70.5 122.5t-25 155q0 82 24 153t69.5 123t111 82t148.5 30q66 0 117.5 -17.5t89.5 -48.5q40 -32 63.5 -76.5t31.5 -98.5h-102q-13 69 -64.5 110.5t-137.5 41.5q-59 0 -105 -22.5t-77.5 -62.5t-48 -95t-16.5 -119q0 -67 17.5 -122
t50 -94t78.5 -60.5t102 -21.5q51 0 88.5 16t63 43t40 62.5t17.5 75.5h102q0 -28 -6.5 -56.5t-18.5 -55.5t-28 -51.5t-36 -43.5q-79 -79 -224 -79zM439 785h-103l-98 113h96l54 -61h2l56 61h94z" />
    <glyph glyph-name="ccaron" unicode="&#x10d;" horiz-adv-x="560" 
d="M297 -15q-60 0 -108.5 22t-82.5 60.5t-52.5 90t-18.5 110.5q0 58 18.5 109.5t52.5 90t82.5 60.5t108.5 22q97 0 157.5 -50.5t74.5 -137.5h-93q-10 53 -45 83t-94 30q-41 0 -72.5 -16t-52.5 -44t-31.5 -66t-10.5 -81q0 -44 10.5 -81.5t31.5 -65.5t52.5 -44t72.5 -16
q63 0 99.5 34.5t41.5 94.5h92q-9 -97 -69.5 -151t-163.5 -54zM341 625h-103l-94 124h94l52 -76h2l54 76h92z" />
    <glyph glyph-name="Dcaron" unicode="&#x10e;" horiz-adv-x="732" 
d="M77 744h275q83 0 145.5 -27t104 -76.5t62 -118.5t20.5 -153q0 -83 -21.5 -151t-64.5 -116.5t-106 -75t-147 -26.5h-268v744zM341 89q63 0 108 19.5t73.5 56t42 88.5t13.5 116t-12.5 117t-40 90.5t-71.5 58t-107 20.5h-167v-566h161zM388 785h-103l-98 113h96l54 -61h2
l56 61h94z" />
    <glyph glyph-name="dcaron" unicode="&#x10f;" horiz-adv-x="596" 
d="M272 -16q-54 0 -98 20t-75 56.5t-47.5 89t-16.5 117.5q0 66 18 118.5t49.5 89t74.5 56t93 19.5q57 0 100.5 -26t69.5 -69h2q-2 18 -2.5 45t-0.5 54v190h93v-744h-92v77h-2q-26 -44 -67.5 -68.5t-98.5 -24.5zM279 61q43 0 74 15.5t51.5 43t30 65t9.5 81.5q0 45 -10.5 83
t-31.5 65.5t-52 42.5t-71 15q-37 0 -65 -15.5t-46.5 -43t-28 -65.5t-9.5 -82t9.5 -81.5t28 -65t46.5 -43t65 -15.5zM689 661q0 -51 -28 -76.5t-74 -27.5v44q26 4 37 17t11 37h-46v89h100v-83z" />
    <glyph glyph-name="Dcroat" unicode="&#x110;" horiz-adv-x="742" 
d="M13 417h74v327h275q84 0 146 -27t103.5 -76.5t62 -118.5t20.5 -153q0 -83 -21.5 -151t-64 -116.5t-106 -75t-147.5 -26.5h-268v331h-74v86zM351 89q63 0 108 19.5t74 56t42.5 88.5t13.5 116t-12.5 117t-40 90.5t-72 58t-107.5 20.5h-167v-238h210v-86h-210v-242h161z" />
    <glyph glyph-name="dcroat" unicode="&#x111;" horiz-adv-x="596" 
d="M604 608h-72v-608h-92v77h-2q-26 -44 -67.5 -68.5t-98.5 -24.5q-54 0 -98 20t-75 56.5t-47.5 89t-16.5 117.5q0 66 18 118.5t49.5 89t74.5 56t93 19.5q57 0 100.5 -26t69.5 -69h2q-2 18 -2.5 45t-0.5 54v54h-152v62h152v74h93v-74h72v-62zM279 61q43 0 74 15.5t51.5 43
t30 65t9.5 81.5q0 45 -10.5 83t-31.5 65.5t-52 42.5t-71 15q-37 0 -65 -15.5t-46.5 -43t-28 -65.5t-9.5 -82t9.5 -81.5t28 -65t46.5 -43t65 -15.5z" />
    <glyph glyph-name="Emacron" unicode="&#x112;" horiz-adv-x="666" 
d="M77 744h529v-90h-427v-225h386v-85h-386v-251h438v-93h-540v744zM211 870h285v-75h-285v75z" />
    <glyph glyph-name="emacron" unicode="&#x113;" horiz-adv-x="577" 
d="M297 -15q-62 0 -110.5 22t-82.5 60.5t-51.5 90t-17.5 110.5q0 58 18.5 109.5t52 90t81 60.5t105.5 22q60 0 106 -22t78 -61q33 -40 49.5 -96t16.5 -125h-412q3 -39 15 -73t33 -59t51 -39t69 -14q56 0 92.5 24.5t49.5 67.5h91q-18 -75 -79.5 -121.5t-154.5 -46.5zM292 478
q-36 0 -64 -12.5t-48 -34.5t-32 -52t-16 -66h311q-4 78 -42.5 121.5t-108.5 43.5zM157 734h273v-75h-273v75z" />
    <glyph glyph-name="Ebreve" unicode="&#x114;" horiz-adv-x="666" 
d="M77 744h529v-90h-427v-225h386v-85h-386v-251h438v-93h-540v744zM353 780q-55 0 -94 34t-42 94h66q5 -28 21 -43.5t48 -15.5q31 0 49.5 15.5t22.5 43.5h65q-1 -27 -11 -50.5t-28 -40.5t-42.5 -27t-54.5 -10z" />
    <glyph glyph-name="ebreve" unicode="&#x115;" horiz-adv-x="577" 
d="M297 -15q-62 0 -110.5 22t-82.5 60.5t-51.5 90t-17.5 110.5q0 58 18.5 109.5t52 90t81 60.5t105.5 22q60 0 106 -22t78 -61q33 -40 49.5 -96t16.5 -125h-412q3 -39 15 -73t33 -59t51 -39t69 -14q56 0 92.5 24.5t49.5 67.5h91q-18 -75 -79.5 -121.5t-154.5 -46.5zM292 478
q-36 0 -64 -12.5t-48 -34.5t-32 -52t-16 -66h311q-4 78 -42.5 121.5t-108.5 43.5zM293 620q-55 0 -94 34t-42 94h66q5 -28 21 -43.5t48 -15.5q31 0 49.5 15.5t22.5 43.5h65q-1 -27 -11 -50.5t-28 -40.5t-42.5 -27t-54.5 -10z" />
    <glyph glyph-name="Edotaccent" unicode="&#x116;" horiz-adv-x="666" 
d="M77 744h529v-90h-427v-225h386v-85h-386v-251h438v-93h-540v744zM305 893h97v-108h-97v108z" />
    <glyph glyph-name="edotaccent" unicode="&#x117;" horiz-adv-x="577" 
d="M297 -15q-62 0 -110.5 22t-82.5 60.5t-51.5 90t-17.5 110.5q0 58 18.5 109.5t52 90t81 60.5t105.5 22q60 0 106 -22t78 -61q33 -40 49.5 -96t16.5 -125h-412q3 -39 15 -73t33 -59t51 -39t69 -14q56 0 92.5 24.5t49.5 67.5h91q-18 -75 -79.5 -121.5t-154.5 -46.5zM292 478
q-36 0 -64 -12.5t-48 -34.5t-32 -52t-16 -66h311q-4 78 -42.5 121.5t-108.5 43.5zM245 744h97v-108h-97v108z" />
    <glyph glyph-name="Eogonek" unicode="&#x118;" horiz-adv-x="666" 
d="M77 744h529v-90h-427v-225h386v-85h-386v-251h438v-93h-56q-26 -21 -44.5 -44t-18.5 -45q0 -35 43 -35q11 0 22 2t19 5h3v-65q-10 -3 -24.5 -6t-36.5 -3q-57 0 -84.5 24.5t-27.5 63.5q0 19 7.5 34.5t19 28.5t25.5 23t28 17h-415v744z" />
    <glyph glyph-name="eogonek" unicode="&#x119;" horiz-adv-x="577" 
d="M370 -191q-57 0 -84.5 24.5t-27.5 63.5q0 29 16.5 51.5t38.5 37.5q-4 -1 -8 -1h-8q-62 0 -110.5 22t-82.5 60.5t-51.5 90t-17.5 110.5q0 58 18.5 109.5t52 90t81 60.5t105.5 22q60 0 106 -22t78 -61q33 -40 49.5 -96t16.5 -125h-412q3 -39 15 -73t33 -59t51 -39t69 -14
q56 0 92.5 24.5t49.5 67.5h91q-7 -30 -19.5 -52t-26.5 -38.5t-28.5 -28t-25.5 -18.5q-87 -59 -87 -105q0 -35 43 -35q11 0 22 2t19 5h3v-65q-10 -3 -24.5 -6t-36.5 -3zM292 478q-36 0 -64 -12.5t-48 -34.5t-32 -52t-16 -66h311q-4 78 -42.5 121.5t-108.5 43.5z" />
    <glyph glyph-name="Ecaron" unicode="&#x11a;" horiz-adv-x="666" 
d="M77 744h529v-90h-427v-225h386v-85h-386v-251h438v-93h-540v744zM403 785h-103l-98 113h96l54 -61h2l56 61h94z" />
    <glyph glyph-name="ecaron" unicode="&#x11b;" horiz-adv-x="577" 
d="M297 -15q-62 0 -110.5 22t-82.5 60.5t-51.5 90t-17.5 110.5q0 58 18.5 109.5t52 90t81 60.5t105.5 22q60 0 106 -22t78 -61q33 -40 49.5 -96t16.5 -125h-412q3 -39 15 -73t33 -59t51 -39t69 -14q56 0 92.5 24.5t49.5 67.5h91q-18 -75 -79.5 -121.5t-154.5 -46.5zM292 478
q-36 0 -64 -12.5t-48 -34.5t-32 -52t-16 -66h311q-4 78 -42.5 121.5t-108.5 43.5zM343 625h-103l-94 124h94l52 -76h2l54 76h92z" />
    <glyph glyph-name="Gcircumflex" unicode="&#x11c;" horiz-adv-x="781" 
d="M631 105h-3q-40 -61 -98.5 -91t-131.5 -30q-78 0 -142 28.5t-110 79.5q-47 51 -72 121.5t-25 155.5t24 156.5t71 124.5q45 51 110.5 80t152.5 29q66 0 117.5 -17t89.5 -47.5t62 -73t35 -93.5h-106q-17 63 -65 103t-134 40q-65 0 -113 -23t-79 -63.5t-46 -96t-15 -119.5
q0 -66 18.5 -120.5t51.5 -93.5t79 -60.5t101 -21.5t96.5 17.5t68.5 47.5t40.5 69.5t13.5 83.5v16h-216v87h317v-394h-65zM351 898h103l98 -113h-96l-54 61h-2l-56 -61h-94z" />
    <glyph glyph-name="gcircumflex" unicode="&#x11d;" horiz-adv-x="595" 
d="M291 -188q-106 0 -164.5 39.5t-66.5 111.5h87q6 -42 44 -60.5t98 -18.5q72 0 110.5 32.5t38.5 101.5v15q0 23 0.5 43.5t1.5 33.5h-2q-28 -40 -65.5 -63t-94.5 -23q-51 0 -94.5 19t-74.5 54t-48.5 83t-17.5 107q0 62 18 111t49.5 82.5t73.5 51.5t89 18q58 0 97.5 -21.5
t65.5 -62.5h2v71h92v-515q0 -54 -17 -93.5t-48 -65.5q-32 -26 -76 -38.5t-98 -12.5zM287 100q44 0 74 14.5t48.5 40t26.5 60.5t8 76q0 85 -38.5 133.5t-119.5 48.5q-74 0 -111 -51t-37 -136q0 -86 38 -136t111 -50zM242 752h103l94 -123h-94l-52 75h-2l-54 -75h-92z" />
    <glyph glyph-name="Gbreve" unicode="&#x11e;" horiz-adv-x="781" 
d="M631 105h-3q-40 -61 -98.5 -91t-131.5 -30q-78 0 -142 28.5t-110 79.5q-47 51 -72 121.5t-25 155.5t24 156.5t71 124.5q45 51 110.5 80t152.5 29q66 0 117.5 -17t89.5 -47.5t62 -73t35 -93.5h-106q-17 63 -65 103t-134 40q-65 0 -113 -23t-79 -63.5t-46 -96t-15 -119.5
q0 -66 18.5 -120.5t51.5 -93.5t79 -60.5t101 -21.5t96.5 17.5t68.5 47.5t40.5 69.5t13.5 83.5v16h-216v87h317v-394h-65zM401 780q-55 0 -94 34t-42 94h66q5 -28 21 -43.5t48 -15.5q31 0 49.5 15.5t22.5 43.5h65q-1 -27 -11 -50.5t-28 -40.5t-42.5 -27t-54.5 -10z" />
    <glyph glyph-name="gbreve" unicode="&#x11f;" horiz-adv-x="595" 
d="M291 -188q-106 0 -164.5 39.5t-66.5 111.5h87q6 -42 44 -60.5t98 -18.5q72 0 110.5 32.5t38.5 101.5v15q0 23 0.5 43.5t1.5 33.5h-2q-28 -40 -65.5 -63t-94.5 -23q-51 0 -94.5 19t-74.5 54t-48.5 83t-17.5 107q0 62 18 111t49.5 82.5t73.5 51.5t89 18q58 0 97.5 -21.5
t65.5 -62.5h2v71h92v-515q0 -54 -17 -93.5t-48 -65.5q-32 -26 -76 -38.5t-98 -12.5zM287 100q44 0 74 14.5t48.5 40t26.5 60.5t8 76q0 85 -38.5 133.5t-119.5 48.5q-74 0 -111 -51t-37 -136q0 -86 38 -136t111 -50zM292 620q-55 0 -94 34t-42 94h66q5 -28 21 -43.5t48 -15.5
q31 0 49.5 15.5t22.5 43.5h65q-1 -27 -11 -50.5t-28 -40.5t-42.5 -27t-54.5 -10z" />
    <glyph glyph-name="Gdotaccent" unicode="&#x120;" horiz-adv-x="781" 
d="M631 105h-3q-40 -61 -98.5 -91t-131.5 -30q-78 0 -142 28.5t-110 79.5q-47 51 -72 121.5t-25 155.5t24 156.5t71 124.5q45 51 110.5 80t152.5 29q66 0 117.5 -17t89.5 -47.5t62 -73t35 -93.5h-106q-17 63 -65 103t-134 40q-65 0 -113 -23t-79 -63.5t-46 -96t-15 -119.5
q0 -66 18.5 -120.5t51.5 -93.5t79 -60.5t101 -21.5t96.5 17.5t68.5 47.5t40.5 69.5t13.5 83.5v16h-216v87h317v-394h-65zM353 893h97v-108h-97v108z" />
    <glyph glyph-name="gdotaccent" unicode="&#x121;" horiz-adv-x="595" 
d="M291 -188q-106 0 -164.5 39.5t-66.5 111.5h87q6 -42 44 -60.5t98 -18.5q72 0 110.5 32.5t38.5 101.5v15q0 23 0.5 43.5t1.5 33.5h-2q-28 -40 -65.5 -63t-94.5 -23q-51 0 -94.5 19t-74.5 54t-48.5 83t-17.5 107q0 62 18 111t49.5 82.5t73.5 51.5t89 18q58 0 97.5 -21.5
t65.5 -62.5h2v71h92v-515q0 -54 -17 -93.5t-48 -65.5q-32 -26 -76 -38.5t-98 -12.5zM287 100q44 0 74 14.5t48.5 40t26.5 60.5t8 76q0 85 -38.5 133.5t-119.5 48.5q-74 0 -111 -51t-37 -136q0 -86 38 -136t111 -50zM244 744h97v-108h-97v108z" />
    <glyph glyph-name="uni0122" unicode="&#x122;" horiz-adv-x="781" 
d="M631 105h-3q-40 -61 -98.5 -91t-131.5 -30q-78 0 -142 28.5t-110 79.5q-47 51 -72 121.5t-25 155.5t24 156.5t71 124.5q45 51 110.5 80t152.5 29q66 0 117.5 -17t89.5 -47.5t62 -73t35 -93.5h-106q-17 63 -65 103t-134 40q-65 0 -113 -23t-79 -63.5t-46 -96t-15 -119.5
q0 -66 18.5 -120.5t51.5 -93.5t79 -60.5t101 -21.5t96.5 17.5t68.5 47.5t40.5 69.5t13.5 83.5v16h-216v87h317v-394h-65zM456 -141q0 -51 -29 -76.5t-80 -27.5v44q55 7 55 52v2h-54v96h108v-90z" />
    <glyph glyph-name="uni0123" unicode="&#x123;" horiz-adv-x="595" 
d="M291 -188q-106 0 -164.5 39.5t-66.5 111.5h87q6 -42 44 -60.5t98 -18.5q72 0 110.5 32.5t38.5 101.5v15q0 23 0.5 43.5t1.5 33.5h-2q-28 -40 -65.5 -63t-94.5 -23q-51 0 -94.5 19t-74.5 54t-48.5 83t-17.5 107q0 62 18 111t49.5 82.5t73.5 51.5t89 18q58 0 97.5 -21.5
t65.5 -62.5h2v71h92v-515q0 -54 -17 -93.5t-48 -65.5q-32 -26 -76 -38.5t-98 -12.5zM287 100q44 0 74 14.5t48.5 40t26.5 60.5t8 76q0 85 -38.5 133.5t-119.5 48.5q-74 0 -111 -51t-37 -136q0 -86 38 -136t111 -50zM238 726q0 51 29 76.5t80 27.5v-44q-55 -7 -55 -52v-2h54
v-96h-108v90z" />
    <glyph glyph-name="Hcircumflex" unicode="&#x124;" horiz-adv-x="743" 
d="M77 744h102v-313h384v313h103v-744h-103v348h-384v-348h-102v744zM321 898h103l98 -113h-96l-54 61h-2l-56 -61h-94z" />
    <glyph glyph-name="hcircumflex" unicode="&#x125;" horiz-adv-x="571" 
d="M157 549q0 -20 -1 -45t-2 -45h3q30 43 71.5 67t100.5 24q85 0 133 -45t48 -130v-375h-92v364q0 52 -31.5 80t-86.5 28q-31 0 -57.5 -10.5t-45.5 -29.5t-29.5 -46t-10.5 -59v-327h-93v744h93v-195zM237 898h103l98 -113h-96l-54 61h-2l-56 -61h-94z" />
    <glyph glyph-name="Hbar" unicode="&#x126;" horiz-adv-x="743" 
d="M2 613h75v131h102v-131h384v131h103v-131h75v-73h-75v-540h-103v348h-384v-348h-102v540h-75v73zM179 431h384v109h-384v-109z" />
    <glyph glyph-name="hbar" unicode="&#x127;" horiz-adv-x="571" 
d="M-8 670h72v74h93v-74h152v-62h-152v-59q0 -20 -1 -45t-2 -45h3q30 43 71.5 67t100.5 24q85 0 133 -45t48 -130v-375h-92v364q0 52 -31.5 80t-86.5 28q-31 0 -57.5 -10.5t-45.5 -29.5t-29.5 -46t-10.5 -59v-327h-93v608h-72v62z" />
    <glyph glyph-name="Itilde" unicode="&#x128;" horiz-adv-x="260" 
d="M79 744h102v-744h-102v744zM197 786q-20 0 -37.5 6t-33 13.5t-29 13.5t-23.5 6q-12 0 -19.5 -11.5t-9.5 -26.5h-64q2 52 24 79.5t60 27.5q21 0 37.5 -6t31 -13.5t27.5 -13.5t27 -6q15 0 20.5 11.5t7.5 25.5h64q-2 -50 -21.5 -78t-61.5 -28z" />
    <glyph glyph-name="itilde" unicode="&#x129;" horiz-adv-x="221" 
d="M64 537h93v-537h-93v537zM177 631q-20 0 -37.5 6t-33 13.5t-29 13.5t-23.5 6q-12 0 -19.5 -11.5t-9.5 -26.5h-64q2 52 24 79.5t60 27.5q21 0 37.5 -6t31 -13.5t27.5 -13.5t27 -6q15 0 20.5 11.5t7.5 25.5h64q-2 -50 -21.5 -78t-61.5 -28z" />
    <glyph glyph-name="Imacron" unicode="&#x12a;" horiz-adv-x="260" 
d="M79 744h102v-744h-102v744zM8 870h245v-75h-245v75z" />
    <glyph glyph-name="imacron" unicode="&#x12b;" horiz-adv-x="221" 
d="M64 537h93v-537h-93v537zM4 734h214v-75h-214v75z" />
    <glyph glyph-name="Ibreve" unicode="&#x12c;" horiz-adv-x="260" 
d="M79 744h102v-744h-102v744zM130 780q-55 0 -94 34t-42 94h66q5 -28 21 -43.5t48 -15.5q31 0 49.5 15.5t22.5 43.5h65q-1 -27 -11 -50.5t-28 -40.5t-42.5 -27t-54.5 -10z" />
    <glyph glyph-name="ibreve" unicode="&#x12d;" horiz-adv-x="221" 
d="M64 537h93v-537h-93v537zM110 620q-55 0 -94 34t-42 94h66q5 -28 21 -43.5t48 -15.5q31 0 49.5 15.5t22.5 43.5h65q-1 -27 -11 -50.5t-28 -40.5t-42.5 -27t-54.5 -10z" />
    <glyph glyph-name="Iogonek" unicode="&#x12e;" horiz-adv-x="260" 
d="M79 744h102v-744q-31 -17 -51 -42t-20 -47q0 -35 43 -35q11 0 22 2t19 5h3v-65q-10 -3 -24.5 -6t-36.5 -3q-57 0 -84.5 24.5t-27.5 63.5q0 19 7.5 34.5t19 28.5t25.5 23t28 17h-25v744z" />
    <glyph glyph-name="iogonek" unicode="&#x12f;" horiz-adv-x="221" 
d="M64 537h93v-537q-30 -18 -50 -42.5t-20 -46.5q0 -35 43 -35q11 0 22 2t19 5h3v-65q-10 -3 -24.5 -6t-36.5 -3q-57 0 -84.5 24.5t-27.5 63.5q0 19 7.5 34.5t19 28.5t25.5 23t28 17h-17v537zM62 744h97v-108h-97v108z" />
    <glyph glyph-name="Idotaccent" unicode="&#x130;" horiz-adv-x="260" 
d="M79 744h102v-744h-102v744zM82 893h97v-108h-97v108z" />
    <glyph glyph-name="dotlessi" unicode="&#x131;" horiz-adv-x="221" 
d="M64 537h93v-537h-93v537z" />
    <glyph glyph-name="IJ" unicode="&#x132;" horiz-adv-x="769" 
d="M79 744h102v-744h-102v744zM484 -15q-104 0 -163.5 58.5t-59.5 186.5v16h100v-13q0 -47 7.5 -78.5t23 -50t39 -26.5t54.5 -8q55 0 85 30t30 97v547h102v-553q0 -45 -13 -82t-40 -64q-27 -28 -68 -44t-97 -16z" />
    <glyph glyph-name="ij" unicode="&#x133;" horiz-adv-x="443" 
d="M251 -170q-15 0 -28 1.5t-24 3.5v74h3q15 -3 29 -3q27 1 40.5 12.5t13.5 40.5v578h93v-583q0 -39 -9.5 -62.5t-26.5 -37.5q-18 -14 -41 -19t-50 -5zM64 537h93v-537h-93v537zM283 744h97v-108h-97v108zM62 744h97v-108h-97v108z" />
    <glyph glyph-name="Jcircumflex" unicode="&#x134;" horiz-adv-x="539" 
d="M254 -15q-104 0 -163.5 58.5t-59.5 186.5v16h100v-13q0 -47 7.5 -78.5t23 -50t39 -26.5t54.5 -8q55 0 85 30t30 97v547h102v-553q0 -45 -13 -82t-40 -64q-27 -28 -68 -44t-97 -16zM369 898h103l98 -113h-96l-54 61h-2l-56 -61h-94z" />
    <glyph glyph-name="jcircumflex" unicode="&#x135;" horiz-adv-x="222" 
d="M30 -170q-15 0 -28 1.5t-24 3.5v74h3q15 -3 29 -3q27 1 40.5 12.5t13.5 40.5v578h93v-583q0 -39 -9.5 -62.5t-26.5 -37.5q-18 -14 -41 -19t-50 -5zM59 752h103l94 -123h-94l-52 75h-2l-54 -75h-92z" />
    <glyph glyph-name="uni0136" unicode="&#x136;" horiz-adv-x="686" 
d="M77 744h102v-230q0 -38 -1 -74t-3 -63l359 368h128l-299 -299l323 -446h-119l-275 380l-113 -111v-269h-102v744zM403 -141q0 -51 -29 -76.5t-80 -27.5v44q55 7 55 52v2h-54v96h108v-90z" />
    <glyph glyph-name="uni0137" unicode="&#x137;" horiz-adv-x="542" 
d="M233 283l-76 -72v-211h-93v744h93v-353q0 -14 -1 -38.5t-3 -44.5l233 229h116l-205 -193l229 -344h-109zM326 -141q0 -51 -29 -76.5t-80 -27.5v44q55 7 55 52v2h-54v96h108v-90z" />
    <glyph glyph-name="kgreenlandic" unicode="&#x138;" horiz-adv-x="542" 
d="M233 283l-76 -72v-211h-93v537h93v-146q0 -14 -1 -38.5t-3 -44.5l233 229h116l-205 -193l229 -344h-109z" />
    <glyph glyph-name="Lacute" unicode="&#x139;" horiz-adv-x="595" 
d="M77 744h102v-651h385v-93h-487v744zM137 910h114l-89 -125h-78z" />
    <glyph glyph-name="lacute" unicode="&#x13a;" horiz-adv-x="227" 
d="M67 744h93v-744h-93v744zM123 910h114l-89 -125h-78z" />
    <glyph glyph-name="uni013B" unicode="&#x13b;" horiz-adv-x="595" 
d="M77 744h102v-651h385v-93h-487v744zM378 -141q0 -51 -29 -76.5t-80 -27.5v44q55 7 55 52v2h-54v96h108v-90z" />
    <glyph glyph-name="uni013C" unicode="&#x13c;" horiz-adv-x="227" 
d="M67 744h93v-744h-93v744zM168 -141q0 -51 -29 -76.5t-80 -27.5v44q55 7 55 52v2h-54v96h108v-90z" />
    <glyph glyph-name="Lcaron" unicode="&#x13d;" horiz-adv-x="595" 
d="M445 648q0 -53 -28.5 -79t-76.5 -28v45q27 5 38 18t11 38h-47v102h103v-96zM77 744h102v-651h385v-93h-487v744z" />
    <glyph glyph-name="lcaron" unicode="&#x13e;" horiz-adv-x="227" 
d="M67 744h93v-744h-93v744zM317 661q0 -51 -28 -76.5t-74 -27.5v44q26 4 37 17t11 37h-46v89h100v-83z" />
    <glyph glyph-name="Ldot" unicode="&#x13f;" horiz-adv-x="595" 
d="M77 744h102v-651h385v-93h-487v744zM385 413h108v-110h-108v110z" />
    <glyph glyph-name="ldot" unicode="&#x140;" horiz-adv-x="349" 
d="M67 744h93v-744h-93v744zM234 413h108v-110h-108v110z" />
    <glyph glyph-name="Lslash" unicode="&#x141;" horiz-adv-x="596" 
d="M4 292l74 39v413h102v-358l252 135v-84l-252 -136v-208h384v-93h-486v247l-74 -40v85z" />
    <glyph glyph-name="lslash" unicode="&#x142;" horiz-adv-x="267" 
d="M7 324l80 62v358h93v-285l90 70v-84l-90 -70v-375h-93v302l-80 -62v84z" />
    <glyph glyph-name="Nacute" unicode="&#x143;" horiz-adv-x="741" 
d="M77 744h107l305 -466q14 -21 28.5 -46.5t26.5 -48.5q14 -26 28 -53h3l-4 56q-2 24 -2.5 52t-0.5 51v455h96v-744h-106l-304 466q-14 21 -28.5 46t-27.5 48q-15 26 -29 53h-2q1 -28 3 -56q1 -24 2 -51t1 -50v-456h-96v744zM388 910h114l-89 -125h-78z" />
    <glyph glyph-name="nacute" unicode="&#x144;" horiz-adv-x="571" 
d="M156 461h3q29 41 70 65t100 24q85 0 133 -45t48 -130v-375h-92v364q0 52 -31.5 80t-86.5 28q-31 0 -57.5 -10.5t-45.5 -29.5t-29.5 -46t-10.5 -59v-327h-93v537h92v-76zM300 770h114l-89 -145h-78z" />
    <glyph glyph-name="uni0145" unicode="&#x145;" horiz-adv-x="741" 
d="M77 744h107l305 -466q14 -21 28.5 -46.5t26.5 -48.5q14 -26 28 -53h3l-4 56q-2 24 -2.5 52t-0.5 51v455h96v-744h-106l-304 466q-14 21 -28.5 46t-27.5 48q-15 26 -29 53h-2q1 -28 3 -56q1 -24 2 -51t1 -50v-456h-96v744zM433 -141q0 -51 -29 -76.5t-80 -27.5v44
q55 7 55 52v2h-54v96h108v-90z" />
    <glyph glyph-name="uni0146" unicode="&#x146;" horiz-adv-x="571" 
d="M156 461h3q29 41 70 65t100 24q85 0 133 -45t48 -130v-375h-92v364q0 52 -31.5 80t-86.5 28q-31 0 -57.5 -10.5t-45.5 -29.5t-29.5 -46t-10.5 -59v-327h-93v537h92v-76zM345 -141q0 -51 -29 -76.5t-80 -27.5v44q55 7 55 52v2h-54v96h108v-90z" />
    <glyph glyph-name="Ncaron" unicode="&#x147;" horiz-adv-x="741" 
d="M77 744h107l305 -466q14 -21 28.5 -46.5t26.5 -48.5q14 -26 28 -53h3l-4 56q-2 24 -2.5 52t-0.5 51v455h96v-744h-106l-304 466q-14 21 -28.5 46t-27.5 48q-15 26 -29 53h-2q1 -28 3 -56q1 -24 2 -51t1 -50v-456h-96v744zM428 785h-103l-98 113h96l54 -61h2l56 61h94z
" />
    <glyph glyph-name="ncaron" unicode="&#x148;" horiz-adv-x="571" 
d="M156 461h3q29 41 70 65t100 24q85 0 133 -45t48 -130v-375h-92v364q0 52 -31.5 80t-86.5 28q-31 0 -57.5 -10.5t-45.5 -29.5t-29.5 -46t-10.5 -59v-327h-93v537h92v-76zM340 625h-103l-94 124h94l52 -76h2l54 76h92z" />
    <glyph glyph-name="napostrophe" unicode="&#x149;" horiz-adv-x="571" 
d="M156 461h3q29 41 70 65t100 24q85 0 133 -45t48 -130v-375h-92v364q0 52 -31.5 80t-86.5 28q-31 0 -57.5 -10.5t-45.5 -29.5t-29.5 -46t-10.5 -59v-327h-93v537h92v-76zM64 661q0 -51 -28 -76.5t-74 -27.5v44q26 4 37 17t11 37h-46v89h100v-83z" />
    <glyph glyph-name="Eng" unicode="&#x14a;" horiz-adv-x="741" 
d="M434 -103q54 0 88 22t43 71l-311 476q-14 21 -28.5 46t-27.5 48q-15 26 -29 53h-2q1 -28 3 -56q1 -24 2 -51t1 -50v-456h-96v744h107l305 -466q14 -21 28.5 -46.5t26.5 -48.5q14 -26 28 -53h3l-4 56q-2 24 -2.5 52t-0.5 51v455h96v-726q0 -45 -11 -81.5t-38 -64.5
q-27 -29 -67 -44.5t-96 -15.5q-15 0 -31.5 1.5t-26.5 3.5v83h3q15 -3 37 -3z" />
    <glyph glyph-name="eng" unicode="&#x14b;" horiz-adv-x="571" 
d="M418 364q0 52 -31.5 80t-86.5 28q-31 0 -57.5 -10.5t-45.5 -29.5t-29.5 -46t-10.5 -59v-327h-93v537h92v-76h3q29 41 70 65t100 24q85 0 133 -45t48 -130v-421q0 -39 -9.5 -62.5t-26.5 -37.5q-18 -14 -41 -19t-50 -5q-15 0 -28 1.5t-24 3.5v74h3q15 -3 29 -3
q27 1 41 12.5t14 40.5v405z" />
    <glyph glyph-name="Omacron" unicode="&#x14c;" horiz-adv-x="826" 
d="M413 -16q-84 0 -151.5 29.5t-115 81.5t-72.5 123t-25 154q0 84 25 155t72.5 122.5t115 81t151.5 29.5t151.5 -29.5t115 -81t73 -122.5t25.5 -155q0 -83 -25.5 -154t-73 -123t-115 -81.5t-151.5 -29.5zM413 74q63 0 111.5 22.5t81.5 62.5t49.5 94.5t16.5 118.5t-16.5 119
t-49.5 95t-81.5 63t-111.5 23t-111.5 -23t-81.5 -63t-50 -95t-17 -119t17 -118.5t50 -94.5t81.5 -62.5t111.5 -22.5zM271 870h285v-75h-285v75z" />
    <glyph glyph-name="omacron" unicode="&#x14d;" horiz-adv-x="594" 
d="M298 -15q-61 0 -109.5 22t-82.5 60.5t-52.5 90t-18.5 110.5q0 58 18.5 109.5t52.5 90t82.5 60.5t109.5 22t109 -22t82 -60.5t52 -90t18 -109.5q0 -59 -18 -110.5t-52 -90t-82 -60.5t-109 -22zM297 61q41 0 72.5 16t52.5 44t31.5 65.5t10.5 81.5q0 43 -10.5 81t-31.5 66.5
t-52.5 44.5t-72.5 16t-72.5 -16t-52.5 -44.5t-31.5 -66.5t-10.5 -81q0 -44 10.5 -81.5t31.5 -65.5t52.5 -44t72.5 -16zM161 734h273v-75h-273v75z" />
    <glyph glyph-name="Obreve" unicode="&#x14e;" horiz-adv-x="826" 
d="M413 -16q-84 0 -151.5 29.5t-115 81.5t-72.5 123t-25 154q0 84 25 155t72.5 122.5t115 81t151.5 29.5t151.5 -29.5t115 -81t73 -122.5t25.5 -155q0 -83 -25.5 -154t-73 -123t-115 -81.5t-151.5 -29.5zM413 74q63 0 111.5 22.5t81.5 62.5t49.5 94.5t16.5 118.5t-16.5 119
t-49.5 95t-81.5 63t-111.5 23t-111.5 -23t-81.5 -63t-50 -95t-17 -119t17 -118.5t50 -94.5t81.5 -62.5t111.5 -22.5zM413 780q-55 0 -94 34t-42 94h66q5 -28 21 -43.5t48 -15.5q31 0 49.5 15.5t22.5 43.5h65q-1 -27 -11 -50.5t-28 -40.5t-42.5 -27t-54.5 -10z" />
    <glyph glyph-name="obreve" unicode="&#x14f;" horiz-adv-x="594" 
d="M298 -15q-61 0 -109.5 22t-82.5 60.5t-52.5 90t-18.5 110.5q0 58 18.5 109.5t52.5 90t82.5 60.5t109.5 22t109 -22t82 -60.5t52 -90t18 -109.5q0 -59 -18 -110.5t-52 -90t-82 -60.5t-109 -22zM297 61q41 0 72.5 16t52.5 44t31.5 65.5t10.5 81.5q0 43 -10.5 81t-31.5 66.5
t-52.5 44.5t-72.5 16t-72.5 -16t-52.5 -44.5t-31.5 -66.5t-10.5 -81q0 -44 10.5 -81.5t31.5 -65.5t52.5 -44t72.5 -16zM297 620q-55 0 -94 34t-42 94h66q5 -28 21 -43.5t48 -15.5q31 0 49.5 15.5t22.5 43.5h65q-1 -27 -11 -50.5t-28 -40.5t-42.5 -27t-54.5 -10z" />
    <glyph glyph-name="Ohungarumlaut" unicode="&#x150;" horiz-adv-x="826" 
d="M413 -16q-84 0 -151.5 29.5t-115 81.5t-72.5 123t-25 154q0 84 25 155t72.5 122.5t115 81t151.5 29.5t151.5 -29.5t115 -81t73 -122.5t25.5 -155q0 -83 -25.5 -154t-73 -123t-115 -81.5t-151.5 -29.5zM413 74q63 0 111.5 22.5t81.5 62.5t49.5 94.5t16.5 118.5t-16.5 119
t-49.5 95t-81.5 63t-111.5 23t-111.5 -23t-81.5 -63t-50 -95t-17 -119t17 -118.5t50 -94.5t81.5 -62.5t111.5 -22.5zM478 910h97l-59 -125h-69zM331 910h99l-58 -125h-71z" />
    <glyph glyph-name="ohungarumlaut" unicode="&#x151;" horiz-adv-x="594" 
d="M298 -15q-61 0 -109.5 22t-82.5 60.5t-52.5 90t-18.5 110.5q0 58 18.5 109.5t52.5 90t82.5 60.5t109.5 22t109 -22t82 -60.5t52 -90t18 -109.5q0 -59 -18 -110.5t-52 -90t-82 -60.5t-109 -22zM297 61q41 0 72.5 16t52.5 44t31.5 65.5t10.5 81.5q0 43 -10.5 81t-31.5 66.5
t-52.5 44.5t-72.5 16t-72.5 -16t-52.5 -44.5t-31.5 -66.5t-10.5 -81q0 -44 10.5 -81.5t31.5 -65.5t52.5 -44t72.5 -16zM370 770h93l-59 -145h-67zM228 770h94l-60 -145h-68z" />
    <glyph glyph-name="OE" unicode="&#x152;" horiz-adv-x="1132" 
d="M390 -16q-76 0 -138.5 29.5t-107.5 81.5t-70 123t-25 154q0 84 25.5 155t71 122.5t108 81t136.5 29.5q64 0 110.5 -24t78.5 -69v77h493v-90h-394v-225h352v-85h-352v-250h406v-94h-505v72q-31 -42 -77.5 -65t-111.5 -23zM393 72q35 0 68.5 10.5t59.5 29.5t41.5 46.5
t15.5 61.5v291q0 37 -15.5 66.5t-41.5 50.5t-59.5 32.5t-68.5 11.5q-57 0 -101.5 -23t-75.5 -63t-47 -95t-16 -119t16 -118.5t46.5 -95t75.5 -63.5t102 -23z" />
    <glyph glyph-name="oe" unicode="&#x153;" horiz-adv-x="965" 
d="M698 -15q-75 0 -126.5 34.5t-80.5 91.5q-29 -57 -80.5 -91.5t-124.5 -34.5q-58 0 -104.5 22t-79 60.5t-50 90t-17.5 110.5q0 58 17.5 109.5t50 90t79 60.5t104.5 22q74 0 125 -35t80 -92q29 57 80.5 92t121.5 35q57 0 101 -21.5t74 -61.5q31 -40 46.5 -96t15.5 -125h-393
q3 -39 14.5 -73t32 -59t49.5 -39t66 -14q54 0 85 24.5t45 67.5h90q-17 -75 -74.5 -121.5t-146.5 -46.5zM286 61q39 0 69 16t50.5 44t30.5 65.5t10 81.5q0 43 -10 81t-30.5 66.5t-50.5 44.5t-69 16t-68.5 -16t-49 -44.5t-29 -66.5t-9.5 -81q0 -44 9.5 -81.5t29 -65.5t49 -44
t68.5 -16zM693 478q-35 0 -61.5 -12.5t-46 -34.5t-31 -52t-15.5 -66h293q-4 78 -38.5 121.5t-100.5 43.5z" />
    <glyph glyph-name="Racute" unicode="&#x154;" horiz-adv-x="700" 
d="M77 744h348q50 0 91 -14.5t70.5 -41.5t45.5 -65t16 -84q0 -68 -31 -115.5t-105 -70.5v-3q31 -9 52 -24t34 -36.5t19.5 -51.5t9.5 -70q3 -44 7 -73.5t8 -48t8.5 -28t10.5 -13.5v-5h-109q-6 5 -10 15t-7 29t-5 48.5t-5 74.5q-5 79 -40 111t-108 32h-198v-310h-102v744z
M179 392h213q76 0 113.5 35.5t37.5 96.5q0 66 -33.5 99t-112.5 33h-218v-264zM362 910h114l-89 -125h-78z" />
    <glyph glyph-name="racute" unicode="&#x155;" horiz-adv-x="379" 
d="M156 440h3q25 47 65 75.5t94 28.5q11 0 18.5 -1.5t15.5 -4.5v-88h-3q-10 3 -18 4t-20 1q-31 0 -59 -11.5t-49 -32.5t-33.5 -51t-12.5 -68v-292h-93v537h92v-97zM230 770h114l-89 -145h-78z" />
    <glyph glyph-name="uni0156" unicode="&#x156;" horiz-adv-x="700" 
d="M77 744h348q50 0 91 -14.5t70.5 -41.5t45.5 -65t16 -84q0 -68 -31 -115.5t-105 -70.5v-3q31 -9 52 -24t34 -36.5t19.5 -51.5t9.5 -70q3 -44 7 -73.5t8 -48t8.5 -28t10.5 -13.5v-5h-109q-6 5 -10 15t-7 29t-5 48.5t-5 74.5q-5 79 -40 111t-108 32h-198v-310h-102v744z
M179 392h213q76 0 113.5 35.5t37.5 96.5q0 66 -33.5 99t-112.5 33h-218v-264zM409 -141q0 -51 -29 -76.5t-80 -27.5v44q55 7 55 52v2h-54v96h108v-90z" />
    <glyph glyph-name="uni0157" unicode="&#x157;" horiz-adv-x="379" 
d="M156 440h3q25 47 65 75.5t94 28.5q11 0 18.5 -1.5t15.5 -4.5v-88h-3q-10 3 -18 4t-20 1q-31 0 -59 -11.5t-49 -32.5t-33.5 -51t-12.5 -68v-292h-93v537h92v-97zM166 -141q0 -51 -29 -76.5t-80 -27.5v44q55 7 55 52v2h-54v96h108v-90z" />
    <glyph glyph-name="Rcaron" unicode="&#x158;" horiz-adv-x="700" 
d="M77 744h348q50 0 91 -14.5t70.5 -41.5t45.5 -65t16 -84q0 -68 -31 -115.5t-105 -70.5v-3q31 -9 52 -24t34 -36.5t19.5 -51.5t9.5 -70q3 -44 7 -73.5t8 -48t8.5 -28t10.5 -13.5v-5h-109q-6 5 -10 15t-7 29t-5 48.5t-5 74.5q-5 79 -40 111t-108 32h-198v-310h-102v744z
M179 392h213q76 0 113.5 35.5t37.5 96.5q0 66 -33.5 99t-112.5 33h-218v-264zM402 785h-103l-98 113h96l54 -61h2l56 61h94z" />
    <glyph glyph-name="rcaron" unicode="&#x159;" horiz-adv-x="379" 
d="M156 440h3q25 47 65 75.5t94 28.5q11 0 18.5 -1.5t15.5 -4.5v-88h-3q-10 3 -18 4t-20 1q-31 0 -59 -11.5t-49 -32.5t-33.5 -51t-12.5 -68v-292h-93v537h92v-97zM270 625h-103l-94 124h94l52 -76h2l54 76h92z" />
    <glyph glyph-name="Sacute" unicode="&#x15a;" horiz-adv-x="672" 
d="M350 -15q-78 0 -136.5 20t-98 54.5t-60.5 81.5t-24 100h101q9 -85 64 -129.5t157 -44.5q37 0 68.5 8.5t54 25t35.5 41.5t13 59q0 36 -15.5 60t-44 40t-68 27t-88.5 22q-50 10 -94.5 24t-78.5 37.5t-53.5 58.5t-19.5 89q0 47 19 84t53 62.5t81.5 39t104.5 13.5
q69 0 119 -16.5t84.5 -45.5t53.5 -69t26 -88h-99q-10 68 -57 103.5t-126 35.5q-74 0 -118 -29t-44 -85q0 -30 14.5 -50.5t40 -34.5t61 -23.5t77.5 -18.5q54 -11 103.5 -25t88 -39.5t61 -65.5t22.5 -102q0 -53 -20.5 -94t-57.5 -69t-88 -42.5t-111 -14.5zM340 910h114
l-89 -125h-78z" />
    <glyph glyph-name="sacute" unicode="&#x15b;" horiz-adv-x="522" 
d="M270 -16q-112 0 -173 48.5t-67 130.5h94q4 -29 17 -49t32.5 -32t44.5 -17.5t54 -5.5q64 0 92.5 24.5t28.5 60.5q0 44 -34.5 61.5t-105.5 31.5q-39 8 -75.5 18t-64 27t-44 45t-16.5 72q0 69 51.5 109.5t145.5 40.5q101 0 153 -43t61 -113h-93q-6 42 -35.5 64t-87.5 22
q-55 0 -79.5 -22t-24.5 -53q0 -21 9.5 -34.5t28 -22.5t45 -15t60.5 -13q40 -8 76 -18t63.5 -28t43.5 -47.5t16 -76.5q0 -41 -16 -72t-44.5 -51.5t-68.5 -31t-87 -10.5zM267 770h114l-89 -145h-78z" />
    <glyph glyph-name="Scircumflex" unicode="&#x15c;" horiz-adv-x="672" 
d="M350 -15q-78 0 -136.5 20t-98 54.5t-60.5 81.5t-24 100h101q9 -85 64 -129.5t157 -44.5q37 0 68.5 8.5t54 25t35.5 41.5t13 59q0 36 -15.5 60t-44 40t-68 27t-88.5 22q-50 10 -94.5 24t-78.5 37.5t-53.5 58.5t-19.5 89q0 47 19 84t53 62.5t81.5 39t104.5 13.5
q69 0 119 -16.5t84.5 -45.5t53.5 -69t26 -88h-99q-10 68 -57 103.5t-126 35.5q-74 0 -118 -29t-44 -85q0 -30 14.5 -50.5t40 -34.5t61 -23.5t77.5 -18.5q54 -11 103.5 -25t88 -39.5t61 -65.5t22.5 -102q0 -53 -20.5 -94t-57.5 -69t-88 -42.5t-111 -14.5zM274 898h103
l98 -113h-96l-54 61h-2l-56 -61h-94z" />
    <glyph glyph-name="scircumflex" unicode="&#x15d;" horiz-adv-x="522" 
d="M270 -16q-112 0 -173 48.5t-67 130.5h94q4 -29 17 -49t32.5 -32t44.5 -17.5t54 -5.5q64 0 92.5 24.5t28.5 60.5q0 44 -34.5 61.5t-105.5 31.5q-39 8 -75.5 18t-64 27t-44 45t-16.5 72q0 69 51.5 109.5t145.5 40.5q101 0 153 -43t61 -113h-93q-6 42 -35.5 64t-87.5 22
q-55 0 -79.5 -22t-24.5 -53q0 -21 9.5 -34.5t28 -22.5t45 -15t60.5 -13q40 -8 76 -18t63.5 -28t43.5 -47.5t16 -76.5q0 -41 -16 -72t-44.5 -51.5t-68.5 -31t-87 -10.5zM209 752h103l94 -123h-94l-52 75h-2l-54 -75h-92z" />
    <glyph glyph-name="Scedilla" unicode="&#x15e;" horiz-adv-x="672" 
d="M303 -208q-38 0 -65 9t-46 22l16 31q35 -16 75 -16q26 0 44.5 7.5t18.5 27.5q0 18 -12 25.5t-30 7.5q-14 0 -24 -2t-19 -5l-16 25l60 63q-67 6 -117 27.5t-84 55.5t-52 77.5t-21 93.5h101q9 -85 64 -129.5t157 -44.5q37 0 68.5 8.5t54 25t35.5 41.5t13 59q0 36 -15.5 60
t-44 40t-68 27t-88.5 22q-50 10 -94.5 24t-78.5 37.5t-53.5 58.5t-19.5 89q0 47 19 84t53 62.5t81.5 39t104.5 13.5q69 0 119 -16.5t84.5 -45.5t53.5 -69t26 -88h-99q-10 68 -57 103.5t-126 35.5q-74 0 -118 -29t-44 -85q0 -30 14.5 -50.5t40 -34.5t61 -23.5t77.5 -18.5
q54 -11 103.5 -25t88 -39.5t61 -65.5t22.5 -102q0 -52 -20 -92.5t-55 -68.5t-84.5 -43t-107.5 -16l-47 -41v-2q15 2 33 0t33.5 -9.5t26 -22t10.5 -37.5q0 -40 -31.5 -60.5t-81.5 -20.5z" />
    <glyph glyph-name="scedilla" unicode="&#x15f;" horiz-adv-x="522" 
d="M229 -208q-38 0 -65 9t-46 22l16 31q35 -16 75 -16q26 0 44.5 7.5t18.5 27.5q0 18 -12 25.5t-30 7.5q-14 0 -24 -2t-19 -5l-16 25l59 62q-93 8 -144 55t-56 122h94q4 -29 17 -49t32.5 -32t44.5 -17.5t54 -5.5q64 0 92.5 24.5t28.5 60.5q0 44 -34.5 61.5t-105.5 31.5
q-39 8 -75.5 18t-64 27t-44 45t-16.5 72q0 69 51.5 109.5t145.5 40.5q101 0 153 -43t61 -113h-93q-6 42 -35.5 64t-87.5 22q-55 0 -79.5 -22t-24.5 -53q0 -21 9.5 -34.5t28 -22.5t45 -15t60.5 -13q40 -8 76 -18t63.5 -28t43.5 -47.5t16 -76.5q0 -39 -15 -69t-41.5 -50.5
t-63.5 -32t-81 -12.5l-46 -41v-2q15 2 33 0t33.5 -9.5t26 -22t10.5 -37.5q0 -40 -31.5 -60.5t-81.5 -20.5z" />
    <glyph glyph-name="Scaron" unicode="&#x160;" horiz-adv-x="672" 
d="M350 -15q-78 0 -136.5 20t-98 54.5t-60.5 81.5t-24 100h101q9 -85 64 -129.5t157 -44.5q37 0 68.5 8.5t54 25t35.5 41.5t13 59q0 36 -15.5 60t-44 40t-68 27t-88.5 22q-50 10 -94.5 24t-78.5 37.5t-53.5 58.5t-19.5 89q0 47 19 84t53 62.5t81.5 39t104.5 13.5
q69 0 119 -16.5t84.5 -45.5t53.5 -69t26 -88h-99q-10 68 -57 103.5t-126 35.5q-74 0 -118 -29t-44 -85q0 -30 14.5 -50.5t40 -34.5t61 -23.5t77.5 -18.5q54 -11 103.5 -25t88 -39.5t61 -65.5t22.5 -102q0 -53 -20.5 -94t-57.5 -69t-88 -42.5t-111 -14.5zM371 785h-103
l-98 113h96l54 -61h2l56 61h94z" />
    <glyph glyph-name="scaron" unicode="&#x161;" horiz-adv-x="522" 
d="M270 -16q-112 0 -173 48.5t-67 130.5h94q4 -29 17 -49t32.5 -32t44.5 -17.5t54 -5.5q64 0 92.5 24.5t28.5 60.5q0 44 -34.5 61.5t-105.5 31.5q-39 8 -75.5 18t-64 27t-44 45t-16.5 72q0 69 51.5 109.5t145.5 40.5q101 0 153 -43t61 -113h-93q-6 42 -35.5 64t-87.5 22
q-55 0 -79.5 -22t-24.5 -53q0 -21 9.5 -34.5t28 -22.5t45 -15t60.5 -13q40 -8 76 -18t63.5 -28t43.5 -47.5t16 -76.5q0 -41 -16 -72t-44.5 -51.5t-68.5 -31t-87 -10.5zM305 625h-103l-94 124h94l52 -76h2l54 76h92z" />
    <glyph glyph-name="uni0162" unicode="&#x162;" horiz-adv-x="654" 
d="M31 744h592v-90h-245v-654h-103v654h-244v90zM382 -141q0 -51 -29 -76.5t-80 -27.5v44q55 7 55 52v2h-54v96h108v-90z" />
    <glyph glyph-name="uni0163" unicode="&#x163;" horiz-adv-x="351" 
d="M31 537h84v169h92v-169h111v-72h-111v-339q0 -29 14.5 -39.5t40.5 -10.5q12 0 25.5 2.5t21.5 4.5h3v-78q-38 -9 -75 -9q-54 1 -88 25.5t-34 83.5v360h-84v72zM257 -141q0 -51 -29 -76.5t-80 -27.5v44q55 7 55 52v2h-54v96h108v-90z" />
    <glyph glyph-name="Tcaron" unicode="&#x164;" horiz-adv-x="654" 
d="M31 744h592v-90h-245v-654h-103v654h-244v90zM377 785h-103l-98 113h96l54 -61h2l56 61h94z" />
    <glyph glyph-name="tcaron" unicode="&#x165;" horiz-adv-x="351" 
d="M31 537h84v169h92v-169h111v-72h-111v-339q0 -29 14.5 -39.5t40.5 -10.5q12 0 25.5 2.5t21.5 4.5h3v-78q-38 -9 -75 -9q-54 1 -88 25.5t-34 83.5v360h-84v72zM375 668q0 -50 -28 -74.5t-74 -26.5v44q26 4 37 16t11 35h-46v82h100v-76z" />
    <glyph glyph-name="Tbar" unicode="&#x166;" horiz-adv-x="654" 
d="M31 744h592v-90h-245v-221h167v-80h-167v-353h-103v353h-166v80h166v221h-244v90z" />
    <glyph glyph-name="tbar" unicode="&#x167;" horiz-adv-x="351" 
d="M31 537h84v169h92v-169h111v-72h-111v-103h111v-68h-111v-168q0 -29 14.5 -39.5t40.5 -10.5q12 0 25.5 2.5t21.5 4.5h3v-78q-38 -9 -75 -9q-54 1 -88 25.5t-34 83.5v189h-84v68h84v103h-84v72z" />
    <glyph glyph-name="Utilde" unicode="&#x168;" horiz-adv-x="704" 
d="M352 -11q-63 0 -115.5 14.5t-90.5 45t-59.5 78.5t-21.5 115v502h102v-493q0 -92 48.5 -133.5t138.5 -41.5q87 0 135 41.5t48 133.5v493h102v-502q0 -67 -22 -115t-60.5 -78.5t-91 -45t-113.5 -14.5zM419 786q-20 0 -37.5 6t-33 13.5t-29 13.5t-23.5 6q-12 0 -19.5 -11.5
t-9.5 -26.5h-64q2 52 24 79.5t60 27.5q21 0 37.5 -6t31 -13.5t27.5 -13.5t27 -6q15 0 20.5 11.5t7.5 25.5h64q-2 -50 -21.5 -78t-61.5 -28z" />
    <glyph glyph-name="utilde" unicode="&#x169;" horiz-adv-x="564" 
d="M407 0v75h-2q-29 -40 -66.5 -63.5t-95.5 -23.5q-84 0 -133 47t-49 132v370h93v-365q0 -51 30.5 -79.5t86.5 -28.5q31 0 56 11t42.5 30.5t27 46.5t9.5 58v327h93v-537h-92zM347 631q-20 0 -37.5 6t-33 13.5t-29 13.5t-23.5 6q-12 0 -19.5 -11.5t-9.5 -26.5h-64
q2 52 24 79.5t60 27.5q21 0 37.5 -6t31 -13.5t27.5 -13.5t27 -6q15 0 20.5 11.5t7.5 25.5h64q-2 -50 -21.5 -78t-61.5 -28z" />
    <glyph glyph-name="Umacron" unicode="&#x16a;" horiz-adv-x="704" 
d="M352 -11q-63 0 -115.5 14.5t-90.5 45t-59.5 78.5t-21.5 115v502h102v-493q0 -92 48.5 -133.5t138.5 -41.5q87 0 135 41.5t48 133.5v493h102v-502q0 -67 -22 -115t-60.5 -78.5t-91 -45t-113.5 -14.5zM210 870h285v-75h-285v75z" />
    <glyph glyph-name="umacron" unicode="&#x16b;" horiz-adv-x="564" 
d="M407 0v75h-2q-29 -40 -66.5 -63.5t-95.5 -23.5q-84 0 -133 47t-49 132v370h93v-365q0 -51 30.5 -79.5t86.5 -28.5q31 0 56 11t42.5 30.5t27 46.5t9.5 58v327h93v-537h-92zM144 734h273v-75h-273v75z" />
    <glyph glyph-name="Ubreve" unicode="&#x16c;" horiz-adv-x="704" 
d="M352 -11q-63 0 -115.5 14.5t-90.5 45t-59.5 78.5t-21.5 115v502h102v-493q0 -92 48.5 -133.5t138.5 -41.5q87 0 135 41.5t48 133.5v493h102v-502q0 -67 -22 -115t-60.5 -78.5t-91 -45t-113.5 -14.5zM352 780q-55 0 -94 34t-42 94h66q5 -28 21 -43.5t48 -15.5
q31 0 49.5 15.5t22.5 43.5h65q-1 -27 -11 -50.5t-28 -40.5t-42.5 -27t-54.5 -10z" />
    <glyph glyph-name="ubreve" unicode="&#x16d;" horiz-adv-x="564" 
d="M407 0v75h-2q-29 -40 -66.5 -63.5t-95.5 -23.5q-84 0 -133 47t-49 132v370h93v-365q0 -51 30.5 -79.5t86.5 -28.5q31 0 56 11t42.5 30.5t27 46.5t9.5 58v327h93v-537h-92zM280 620q-55 0 -94 34t-42 94h66q5 -28 21 -43.5t48 -15.5q31 0 49.5 15.5t22.5 43.5h65
q-1 -27 -11 -50.5t-28 -40.5t-42.5 -27t-54.5 -10z" />
    <glyph glyph-name="Uring" unicode="&#x16e;" horiz-adv-x="704" 
d="M352 -11q-63 0 -115.5 14.5t-90.5 45t-59.5 78.5t-21.5 115v502h102v-493q0 -92 48.5 -133.5t138.5 -41.5q87 0 135 41.5t48 133.5v493h102v-502q0 -67 -22 -115t-60.5 -78.5t-91 -45t-113.5 -14.5zM353 738q-21 0 -40 8t-33 21.5t-22 32t-8 39.5t8 39t22 31.5t33 21
t40 7.5t39.5 -7.5t32.5 -21t22 -31.5t8 -39t-8 -39.5t-22 -32t-32.5 -21.5t-39.5 -8zM353 780q24 0 39.5 16.5t15.5 42.5q0 25 -15.5 41.5t-39.5 16.5q-25 0 -40.5 -16.5t-15.5 -41.5q0 -26 15.5 -42.5t40.5 -16.5z" />
    <glyph glyph-name="uring" unicode="&#x16f;" horiz-adv-x="564" 
d="M407 0v75h-2q-29 -40 -66.5 -63.5t-95.5 -23.5q-84 0 -133 47t-49 132v370h93v-365q0 -51 30.5 -79.5t86.5 -28.5q31 0 56 11t42.5 30.5t27 46.5t9.5 58v327h93v-537h-92zM281 599q-21 0 -40 8t-33 21.5t-22 32t-8 39.5t8 39t22 31.5t33 21t40 7.5t39.5 -7.5t32.5 -21
t22 -31.5t8 -39t-8 -39.5t-22 -32t-32.5 -21.5t-39.5 -8zM281 641q24 0 39.5 16.5t15.5 42.5q0 25 -15.5 41.5t-39.5 16.5q-25 0 -40.5 -16.5t-15.5 -41.5q0 -26 15.5 -42.5t40.5 -16.5z" />
    <glyph glyph-name="Uhungarumlaut" unicode="&#x170;" horiz-adv-x="704" 
d="M352 -11q-63 0 -115.5 14.5t-90.5 45t-59.5 78.5t-21.5 115v502h102v-493q0 -92 48.5 -133.5t138.5 -41.5q87 0 135 41.5t48 133.5v493h102v-502q0 -67 -22 -115t-60.5 -78.5t-91 -45t-113.5 -14.5zM417 910h97l-59 -125h-69zM270 910h99l-58 -125h-71z" />
    <glyph glyph-name="uhungarumlaut" unicode="&#x171;" horiz-adv-x="564" 
d="M407 0v75h-2q-29 -40 -66.5 -63.5t-95.5 -23.5q-84 0 -133 47t-49 132v370h93v-365q0 -51 30.5 -79.5t86.5 -28.5q31 0 56 11t42.5 30.5t27 46.5t9.5 58v327h93v-537h-92zM211 770h94l-60 -145h-68zM353 770h93l-59 -145h-67z" />
    <glyph glyph-name="Uogonek" unicode="&#x172;" horiz-adv-x="704" 
d="M400 -191q-57 0 -84.5 24.5t-27.5 63.5q0 32 19 54.5t42 37.5q-62 0 -114.5 14.5t-90 45.5t-58.5 78.5t-21 114.5v502h102v-493q0 -92 48.5 -133.5t138.5 -41.5q87 0 135 41.5t48 133.5v493h102v-502q0 -95 -42 -151t-111 -81q-21 -8 -41 -17.5t-36 -22t-25.5 -27.5
t-9.5 -32q0 -35 43 -35q11 0 22 2t19 5h3v-65q-10 -3 -24.5 -6t-36.5 -3z" />
    <glyph glyph-name="uogonek" unicode="&#x173;" horiz-adv-x="564" 
d="M452 -191q-57 0 -84.5 24.5t-27.5 63.5q0 19 7.5 34.5t19 28.5t25.5 23t28 17h-13v75h-2q-29 -40 -66.5 -63.5t-95.5 -23.5q-84 0 -133 47t-49 132v370h93v-365q0 -51 30.5 -79.5t86.5 -28.5q31 0 56 11t42.5 30.5t27 46.5t9.5 58v327h93v-537q-31 -17 -52 -41.5
t-21 -47.5q0 -35 43 -35q11 0 22 2t19 5h3v-65q-10 -3 -24.5 -6t-36.5 -3z" />
    <glyph glyph-name="Wcircumflex" unicode="&#x174;" horiz-adv-x="965" 
d="M18 744h107l107 -438q7 -28 13 -62t11 -64q5 -35 11 -71h2q6 37 12 72q5 30 12 64t15 62l120 437h108l116 -437q7 -28 14.5 -62t12.5 -64q6 -35 12 -72h2q6 36 12 71q5 30 11.5 64t13.5 62l111 438h105l-207 -744h-99l-122 476q-7 25 -13 57t-11 61q-6 33 -11 68h-2
q-6 -35 -12 -68q-5 -29 -11.5 -61t-12.5 -56l-131 -477h-102zM432 898h103l98 -113h-96l-54 61h-2l-56 -61h-94z" />
    <glyph glyph-name="wcircumflex" unicode="&#x175;" horiz-adv-x="781" 
d="M10 537h99l84 -298q6 -23 12.5 -50t11.5 -51q6 -28 11 -56h2q5 26 11 53q5 23 11.5 50t13.5 52l81 300h88l80 -300q5 -22 11.5 -48.5t11.5 -50.5q6 -28 11 -57h2l10 54q5 23 11 51t14 53l89 298h96l-175 -537h-93l-79 296q-5 20 -11 45.5t-11 48.5q-6 27 -12 56h-2
q-6 -29 -12 -56q-5 -23 -10.5 -49t-10.5 -45l-81 -296h-94zM340 752h103l94 -123h-94l-52 75h-2l-54 -75h-92z" />
    <glyph glyph-name="Ycircumflex" unicode="&#x176;" horiz-adv-x="678" 
d="M286 312l-268 432h114l134 -224q11 -20 24 -44t24 -45l25 -50h2q12 25 25 50q11 21 24 45t25 44l135 224h109l-271 -437v-307h-102v312zM291 898h103l98 -113h-96l-54 61h-2l-56 -61h-94z" />
    <glyph glyph-name="ycircumflex" unicode="&#x177;" horiz-adv-x="519" 
d="M130 -187q-23 0 -45.5 3t-33.5 8v80h4q8 -5 23.5 -7.5t32.5 -2.5q28 0 47 13.5t33 51.5q0 1 3 10.5t7 21.5t7 23t2 13l-205 510h101l111 -298q8 -23 16 -48t15 -47q7 -26 14 -50h2q7 24 15 50q7 22 15 47t16 48l107 298h97l-228 -586q-17 -42 -33.5 -69t-35 -42.5
t-40 -21t-47.5 -5.5zM212 752h103l94 -123h-94l-52 75h-2l-54 -75h-92z" />
    <glyph glyph-name="Ydieresis" unicode="&#x178;" horiz-adv-x="678" 
d="M286 312l-268 432h114l134 -224q11 -20 24 -44t24 -45l25 -50h2q12 25 25 50q11 21 24 45t25 44l135 224h109l-271 -437v-307h-102v312zM193 893h94v-108h-94v108zM395 893h94v-108h-94v108z" />
    <glyph glyph-name="Zacute" unicode="&#x179;" horiz-adv-x="668" 
d="M39 95l363 463q12 15 27 32.5t29 32.5q16 18 33 35v3q-23 -1 -47 -2q-20 -1 -43.5 -1.5t-42.5 -0.5h-292v87h539v-80l-358 -463q-14 -17 -31 -36t-32 -36q-18 -19 -35 -39v-3q24 1 49 2q21 1 45 1.5t45 0.5h334v-91h-583v95zM341 910h114l-89 -125h-78z" />
    <glyph glyph-name="zacute" unicode="&#x17a;" horiz-adv-x="512" 
d="M44 72l240 313q8 11 19 23.5t21 23.5q11 13 24 26v3q-19 -1 -37 -2q-16 -1 -33 -1h-31h-185v79h403v-58l-244 -319q-9 -11 -20.5 -24.5t-22.5 -25.5q-12 -14 -25 -28v-3q20 0 39 1q17 1 35 1.5t33 0.5h217v-82h-433v72zM277 770h114l-89 -145h-78z" />
    <glyph glyph-name="Zdotaccent" unicode="&#x17b;" horiz-adv-x="668" 
d="M39 95l363 463q12 15 27 32.5t29 32.5q16 18 33 35v3q-23 -1 -47 -2q-20 -1 -43.5 -1.5t-42.5 -0.5h-292v87h539v-80l-358 -463q-14 -17 -31 -36t-32 -36q-18 -19 -35 -39v-3q24 1 49 2q21 1 45 1.5t45 0.5h334v-91h-583v95zM283 893h97v-108h-97v108z" />
    <glyph glyph-name="zdotaccent" unicode="&#x17c;" horiz-adv-x="512" 
d="M44 72l240 313q8 11 19 23.5t21 23.5q11 13 24 26v3q-19 -1 -37 -2q-16 -1 -33 -1h-31h-185v79h403v-58l-244 -319q-9 -11 -20.5 -24.5t-22.5 -25.5q-12 -14 -25 -28v-3q20 0 39 1q17 1 35 1.5t33 0.5h217v-82h-433v72zM219 744h97v-108h-97v108z" />
    <glyph glyph-name="Zcaron" unicode="&#x17d;" horiz-adv-x="668" 
d="M39 95l363 463q12 15 27 32.5t29 32.5q16 18 33 35v3q-23 -1 -47 -2q-20 -1 -43.5 -1.5t-42.5 -0.5h-292v87h539v-80l-358 -463q-14 -17 -31 -36t-32 -36q-18 -19 -35 -39v-3q24 1 49 2q21 1 45 1.5t45 0.5h334v-91h-583v95zM381 785h-103l-98 113h96l54 -61h2l56 61h94z
" />
    <glyph glyph-name="zcaron" unicode="&#x17e;" horiz-adv-x="512" 
d="M44 72l240 313q8 11 19 23.5t21 23.5q11 13 24 26v3q-19 -1 -37 -2q-16 -1 -33 -1h-31h-185v79h403v-58l-244 -319q-9 -11 -20.5 -24.5t-22.5 -25.5q-12 -14 -25 -28v-3q20 0 39 1q17 1 35 1.5t33 0.5h217v-82h-433v72zM317 625h-103l-94 124h94l52 -76h2l54 76h92z" />
    <glyph glyph-name="florin" unicode="&#x192;" horiz-adv-x="396" 
d="M33 423h106l25 173q8 58 37 89q27 29 70.5 38t103.5 1v-76q-61 5 -87.5 -8t-32.5 -56l-23 -161h118v-70h-128l-54 -385q-9 -63 -40 -94q-23 -23 -58.5 -29t-84.5 0v74q37 -3 60 6.5t29 49.5l55 378h-96v70z" />
    <glyph glyph-name="AEacute" unicode="&#x1fc;" horiz-adv-x="1010" 
d="M949 654h-383v-225h342v-85h-342v-250h395v-94h-498v217h-260l-76 -217h-103l269 744h656v-90zM232 299h231v355h-105zM608 910h114l-89 -125h-78z" />
    <glyph glyph-name="aeacute" unicode="&#x1fd;" horiz-adv-x="918" 
d="M236 -12q-87 0 -140.5 38.5t-53.5 115.5q0 47 16.5 77t47 48t73 28t94.5 16q30 3 54 8t41 13.5t26 21.5t9 34q0 44 -29.5 69t-85.5 25q-64 0 -95.5 -28t-33.5 -76h-90q1 34 15 65t41 55t67.5 38t94.5 14q65 0 111 -21t67 -70q29 42 73 66.5t104 24.5t104 -22t75 -61
q32 -41 47 -97.5t15 -123.5h-391q2 -39 13 -73t30.5 -59t49 -39t69.5 -14q51 0 85 25t45 67h91q-8 -39 -27 -70t-48 -53t-66 -33.5t-80 -11.5q-77 0 -127.5 32t-78.5 86h-2q-41 -64 -93.5 -89.5t-116.5 -25.5zM247 57q40 0 69.5 13.5t49 34t29 45.5t9.5 48v88
q-20 -13 -52.5 -22.5t-65.5 -15.5t-60 -12.5t-46 -18t-29.5 -29t-10.5 -45.5q0 -26 9 -42.5t24 -26.5t34.5 -13.5t39.5 -3.5zM642 478q-34 0 -60 -12.5t-44.5 -34.5t-29.5 -52t-15 -66h292q-2 78 -41 121.5t-102 43.5zM482 770h114l-89 -145h-78z" />
    <glyph glyph-name="Oslashacute" unicode="&#x1fe;" horiz-adv-x="826" 
d="M28 1l104 111q-41 51 -62 117t-21 143q0 84 25 155t72.5 122.5t115 81t151.5 29.5q75 0 136 -23t107 -65l91 97l42 -37l-94 -101q40 -51 61.5 -116.5t21.5 -142.5q0 -83 -25.5 -154t-73 -123t-115 -81.5t-151.5 -29.5q-75 0 -135.5 22.5t-106.5 63.5l-101 -108zM153 372
q0 -54 12 -101.5t35 -85.5l391 417q-32 33 -76.5 51.5t-101.5 18.5q-63 0 -111.5 -23t-81.5 -63t-50 -95t-17 -119zM413 74q63 0 111.5 22.5t81.5 62.5t49.5 94.5t16.5 118.5q0 54 -11.5 100.5t-34.5 84.5l-389 -417q32 -31 75.5 -48.5t100.5 -17.5zM418 910h114l-89 -125
h-78z" />
    <glyph glyph-name="oslashacute" unicode="&#x1ff;" horiz-adv-x="594" 
d="M19 3l74 80q-29 37 -43.5 84t-14.5 101q0 58 18.5 109.5t52.5 90t82.5 60.5t109.5 22q52 0 95 -16.5t75 -45.5l70 75l36 -32l-73 -79q28 -37 43 -84t15 -100q0 -59 -18 -110.5t-52 -90t-82 -60.5t-109 -22q-53 0 -96 16.5t-76 45.5l-71 -76zM129 268q0 -70 25 -119
l258 279q-20 23 -49 35.5t-66 12.5q-41 0 -72.5 -16t-52.5 -44.5t-32 -66.5t-11 -81zM297 61q41 0 72.5 16t52.5 44t32 65.5t11 81.5q0 66 -25 118l-258 -278q21 -22 49.5 -34.5t65.5 -12.5zM306 770h114l-89 -145h-78z" />
    <glyph glyph-name="uni0218" unicode="&#x218;" horiz-adv-x="672" 
d="M350 -15q-78 0 -136.5 20t-98 54.5t-60.5 81.5t-24 100h101q9 -85 64 -129.5t157 -44.5q37 0 68.5 8.5t54 25t35.5 41.5t13 59q0 36 -15.5 60t-44 40t-68 27t-88.5 22q-50 10 -94.5 24t-78.5 37.5t-53.5 58.5t-19.5 89q0 47 19 84t53 62.5t81.5 39t104.5 13.5
q69 0 119 -16.5t84.5 -45.5t53.5 -69t26 -88h-99q-10 68 -57 103.5t-126 35.5q-74 0 -118 -29t-44 -85q0 -30 14.5 -50.5t40 -34.5t61 -23.5t77.5 -18.5q54 -11 103.5 -25t88 -39.5t61 -65.5t22.5 -102q0 -53 -20.5 -94t-57.5 -69t-88 -42.5t-111 -14.5zM388 -141
q0 -51 -29 -76.5t-80 -27.5v44q55 7 55 52v2h-54v96h108v-90z" />
    <glyph glyph-name="uni0219" unicode="&#x219;" horiz-adv-x="522" 
d="M270 -16q-112 0 -173 48.5t-67 130.5h94q4 -29 17 -49t32.5 -32t44.5 -17.5t54 -5.5q64 0 92.5 24.5t28.5 60.5q0 44 -34.5 61.5t-105.5 31.5q-39 8 -75.5 18t-64 27t-44 45t-16.5 72q0 69 51.5 109.5t145.5 40.5q101 0 153 -43t61 -113h-93q-6 42 -35.5 64t-87.5 22
q-55 0 -79.5 -22t-24.5 -53q0 -21 9.5 -34.5t28 -22.5t45 -15t60.5 -13q40 -8 76 -18t63.5 -28t43.5 -47.5t16 -76.5q0 -41 -16 -72t-44.5 -51.5t-68.5 -31t-87 -10.5zM314 -141q0 -51 -29 -76.5t-80 -27.5v44q55 7 55 52v2h-54v96h108v-90z" />
    <glyph glyph-name="uni021A" unicode="&#x21a;" horiz-adv-x="654" 
d="M31 744h592v-90h-245v-654h-103v654h-244v90zM382 -141q0 -51 -29 -76.5t-80 -27.5v44q55 7 55 52v2h-54v96h108v-90z" />
    <glyph glyph-name="uni021B" unicode="&#x21b;" horiz-adv-x="351" 
d="M31 537h84v169h92v-169h111v-72h-111v-339q0 -29 14.5 -39.5t40.5 -10.5q12 0 25.5 2.5t21.5 4.5h3v-78q-38 -9 -75 -9q-54 1 -88 25.5t-34 83.5v360h-84v72zM257 -141q0 -51 -29 -76.5t-80 -27.5v44q55 7 55 52v2h-54v96h108v-90z" />
    <glyph glyph-name="uni0237" unicode="&#x237;" horiz-adv-x="222" 
d="M30 -170q-15 0 -28 1.5t-24 3.5v74h3q15 -3 29 -3q27 1 40.5 12.5t13.5 40.5v578h93v-583q0 -39 -9.5 -62.5t-26.5 -37.5q-18 -14 -41 -19t-50 -5z" />
    <glyph glyph-name="circumflex" unicode="&#x2c6;" 
d="M200 752h103l94 -123h-94l-52 75h-2l-54 -75h-92z" />
    <glyph glyph-name="caron" unicode="&#x2c7;" 
d="M300 625h-103l-94 124h94l52 -76h2l54 76h92z" />
    <glyph glyph-name="uni02C9" unicode="&#x2c9;" 
d="M114 734h273v-75h-273v75z" />
    <glyph glyph-name="breve" unicode="&#x2d8;" 
d="M269 620q-55 0 -94 34t-42 94h66q5 -28 21 -43.5t48 -15.5q31 0 49.5 15.5t22.5 43.5h65q-1 -27 -11 -50.5t-28 -40.5t-42.5 -27t-54.5 -10z" />
    <glyph glyph-name="dotaccent" unicode="&#x2d9;" 
d="M202 744h97v-108h-97v108z" />
    <glyph glyph-name="ring" unicode="&#x2da;" 
d="M250 599q-21 0 -40 8t-33 21.5t-22 32t-8 39.5t8 39t22 31.5t33 21t40 7.5t39.5 -7.5t32.5 -21t22 -31.5t8 -39t-8 -39.5t-22 -32t-32.5 -21.5t-39.5 -8zM250 641q24 0 39.5 16.5t15.5 42.5q0 25 -15.5 41.5t-39.5 16.5q-25 0 -40.5 -16.5t-15.5 -41.5q0 -26 15.5 -42.5
t40.5 -16.5z" />
    <glyph glyph-name="ogonek" unicode="&#x2db;" 
d="M240 -191q-57 0 -84.5 24.5t-27.5 63.5q0 19 7.5 34.5t19 28.5t25.5 23t28 17h69q-26 -21 -44.5 -44t-18.5 -45q0 -35 43 -35q11 0 22 2t19 5h3v-65q-10 -3 -24.5 -6t-36.5 -3z" />
    <glyph glyph-name="tilde" unicode="&#x2dc;" 
d="M315 631q-20 0 -37.5 6t-33 13.5t-29 13.5t-23.5 6q-12 0 -19.5 -11.5t-9.5 -26.5h-64q2 52 24 79.5t60 27.5q21 0 37.5 -6t31 -13.5t27.5 -13.5t27 -6q15 0 20.5 11.5t7.5 25.5h64q-2 -50 -21.5 -78t-61.5 -28z" />
    <glyph glyph-name="hungarumlaut" unicode="&#x2dd;" 
d="M304 770h93l-59 -145h-67zM162 770h94l-60 -145h-68z" />
    <glyph glyph-name="uni0394" unicode="&#x394;" horiz-adv-x="709" 
d="M29 89l264 655h121l266 -656v-88h-651v89zM127 83h448l-172 434q-12 30 -21.5 57.5t-15.5 47.5q-8 24 -13 45h-2q-6 -21 -14 -45q-7 -20 -16 -47.5t-21 -57.5z" />
    <glyph glyph-name="uni03A9" unicode="&#x3a9;" horiz-adv-x="770" 
d="M584 85h138v-85h-294l-1 81q52 8 89.5 36t61.5 70t35.5 94.5t11.5 108.5q0 63 -17 115t-48 89t-75.5 57.5t-99.5 20.5q-56 0 -100 -20.5t-75.5 -57.5t-48 -89t-16.5 -115q0 -56 11.5 -108.5t35.5 -94t61.5 -70t89.5 -36.5l-1 -81h-295v85h138v2q-70 43 -106.5 118
t-36.5 182q0 84 25 152.5t70.5 118t108.5 76.5t139 27t139 -27t108.5 -76.5t70.5 -118t25 -152.5q0 -107 -37 -182t-107 -118v-2z" />
    <glyph glyph-name="uni03BC" unicode="&#x3bc;" horiz-adv-x="568" 
d="M155 22q0 -11 1 -26q1 -13 1.5 -31.5t0.5 -41.5v-105h-93v719h93v-365q0 -51 30.5 -79.5t86.5 -28.5q31 0 56 11t42.5 30.5t27 46.5t9.5 58v327h93v-537h-92v75h-2q-29 -40 -65.5 -63.5t-87.5 -23.5q-35 0 -58 7.5t-40 26.5h-3z" />
    <glyph glyph-name="pi" unicode="&#x3c0;" horiz-adv-x="672" 
d="M30 537h607v-72h-103v-339q0 -29 12 -39.5t37 -10.5q13 0 24 2.5t18 4.5h4v-79q-12 -3 -31.5 -5.5t-38.5 -2.5q-24 0 -45.5 5.5t-37.5 18.5t-25 34t-9 51v360h-228v-465h-92v465h-92v72z" />
    <glyph glyph-name="Wgrave" unicode="&#x1e80;" horiz-adv-x="965" 
d="M18 744h107l107 -438q7 -28 13 -62t11 -64q5 -35 11 -71h2q6 37 12 72q5 30 12 64t15 62l120 437h108l116 -437q7 -28 14.5 -62t12.5 -64q6 -35 12 -72h2q6 36 12 71q5 30 11.5 64t13.5 62l111 438h105l-207 -744h-99l-122 476q-7 25 -13 57t-11 61q-6 33 -11 68h-2
q-6 -35 -12 -68q-5 -29 -11.5 -61t-12.5 -56l-131 -477h-102zM355 910h114l53 -125h-78z" />
    <glyph glyph-name="wgrave" unicode="&#x1e81;" horiz-adv-x="781" 
d="M10 537h99l84 -298q6 -23 12.5 -50t11.5 -51q6 -28 11 -56h2q5 26 11 53q5 23 11.5 50t13.5 52l81 300h88l80 -300q5 -22 11.5 -48.5t11.5 -50.5q6 -28 11 -57h2l10 54q5 23 11 51t14 53l89 298h96l-175 -537h-93l-79 296q-5 20 -11 45.5t-11 48.5q-6 27 -12 56h-2
q-6 -29 -12 -56q-5 -23 -10.5 -49t-10.5 -45l-81 -296h-94zM267 770h114l53 -145h-78z" />
    <glyph glyph-name="Wacute" unicode="&#x1e82;" horiz-adv-x="965" 
d="M18 744h107l107 -438q7 -28 13 -62t11 -64q5 -35 11 -71h2q6 37 12 72q5 30 12 64t15 62l120 437h108l116 -437q7 -28 14.5 -62t12.5 -64q6 -35 12 -72h2q6 36 12 71q5 30 11.5 64t13.5 62l111 438h105l-207 -744h-99l-122 476q-7 25 -13 57t-11 61q-6 33 -11 68h-2
q-6 -35 -12 -68q-5 -29 -11.5 -61t-12.5 -56l-131 -477h-102zM492 910h114l-89 -125h-78z" />
    <glyph glyph-name="wacute" unicode="&#x1e83;" horiz-adv-x="781" 
d="M10 537h99l84 -298q6 -23 12.5 -50t11.5 -51q6 -28 11 -56h2q5 26 11 53q5 23 11.5 50t13.5 52l81 300h88l80 -300q5 -22 11.5 -48.5t11.5 -50.5q6 -28 11 -57h2l10 54q5 23 11 51t14 53l89 298h96l-175 -537h-93l-79 296q-5 20 -11 45.5t-11 48.5q-6 27 -12 56h-2
q-6 -29 -12 -56q-5 -23 -10.5 -49t-10.5 -45l-81 -296h-94zM400 770h114l-89 -145h-78z" />
    <glyph glyph-name="Wdieresis" unicode="&#x1e84;" horiz-adv-x="965" 
d="M18 744h107l107 -438q7 -28 13 -62t11 -64q5 -35 11 -71h2q6 37 12 72q5 30 12 64t15 62l120 437h108l116 -437q7 -28 14.5 -62t12.5 -64q6 -35 12 -72h2q6 36 12 71q5 30 11.5 64t13.5 62l111 438h105l-207 -744h-99l-122 476q-7 25 -13 57t-11 61q-6 33 -11 68h-2
q-6 -35 -12 -68q-5 -29 -11.5 -61t-12.5 -56l-131 -477h-102zM536 893h94v-108h-94v108zM334 893h94v-108h-94v108z" />
    <glyph glyph-name="wdieresis" unicode="&#x1e85;" horiz-adv-x="781" 
d="M10 537h99l84 -298q6 -23 12.5 -50t11.5 -51q6 -28 11 -56h2q5 26 11 53q5 23 11.5 50t13.5 52l81 300h88l80 -300q5 -22 11.5 -48.5t11.5 -50.5q6 -28 11 -57h2l10 54q5 23 11 51t14 53l89 298h96l-175 -537h-93l-79 296q-5 20 -11 45.5t-11 48.5q-6 27 -12 56h-2
q-6 -29 -12 -56q-5 -23 -10.5 -49t-10.5 -45l-81 -296h-94zM443 744h92v-108h-92v108zM245 744h92v-108h-92v108z" />
    <glyph glyph-name="Ygrave" unicode="&#x1ef2;" horiz-adv-x="678" 
d="M286 312l-268 432h114l134 -224q11 -20 24 -44t24 -45l25 -50h2q12 25 25 50q11 21 24 45t25 44l135 224h109l-271 -437v-307h-102v312zM214 910h114l53 -125h-78z" />
    <glyph glyph-name="ygrave" unicode="&#x1ef3;" horiz-adv-x="519" 
d="M130 -187q-23 0 -45.5 3t-33.5 8v80h4q8 -5 23.5 -7.5t32.5 -2.5q28 0 47 13.5t33 51.5q0 1 3 10.5t7 21.5t7 23t2 13l-205 510h101l111 -298q8 -23 16 -48t15 -47q7 -26 14 -50h2q7 24 15 50q7 22 15 47t16 48l107 298h97l-228 -586q-17 -42 -33.5 -69t-35 -42.5
t-40 -21t-47.5 -5.5zM139 770h114l53 -145h-78z" />
    <glyph glyph-name="uni2009" unicode="&#x2009;" horiz-adv-x="110" 
 />
    <glyph glyph-name="endash" unicode="&#x2013;" 
d="M0 305h500v-80h-500v80z" />
    <glyph glyph-name="emdash" unicode="&#x2014;" horiz-adv-x="1000" 
d="M200 305h600v-80h-600v80z" />
    <glyph glyph-name="quoteleft" unicode="&#x2018;" horiz-adv-x="203" 
d="M52 614q0 65 30 96.5t71 36.5v-49q-19 -6 -33 -24t-14 -57v-11h46v-107h-100v115z" />
    <glyph glyph-name="quoteright" unicode="&#x2019;" horiz-adv-x="203" 
d="M152 630q0 -33 -8.5 -57t-22.5 -40.5t-32.5 -25.5t-38.5 -11v49q19 6 33 24t14 57v12h-45v106h100v-114z" />
    <glyph glyph-name="quotesinglbase" unicode="&#x201a;" horiz-adv-x="203" 
d="M152 -8q0 -33 -8.5 -57t-22.5 -40t-32.5 -25t-38.5 -11v48q19 6 33 24t14 57v12h-45v106h100v-114z" />
    <glyph glyph-name="quotedblleft" unicode="&#x201c;" horiz-adv-x="373" 
d="M221 614q0 65 30 96.5t71 36.5v-49q-18 -6 -32.5 -24t-14.5 -57v-11h46v-107h-100v115zM52 614q0 65 30 96.5t71 36.5v-49q-19 -6 -33 -24t-14 -57v-11h46v-107h-100v115z" />
    <glyph glyph-name="quotedblright" unicode="&#x201d;" horiz-adv-x="373" 
d="M152 630q0 -33 -8.5 -57t-22.5 -40.5t-32.5 -25.5t-38.5 -11v49q19 6 33 24t14 57v12h-45v106h100v-114zM321 630q0 -66 -30 -97.5t-71 -36.5v49q19 6 33 24t14 57v12h-46v106h100v-114z" />
    <glyph glyph-name="quotedblbase" unicode="&#x201e;" horiz-adv-x="373" 
d="M152 -8q0 -33 -8.5 -57t-22.5 -40t-32.5 -25t-38.5 -11v48q19 6 33 24t14 57v12h-45v106h100v-114zM321 -8q0 -33 -8 -57t-22 -40t-32.5 -25t-38.5 -11v48q19 6 33 24t14 57v12h-46v106h100v-114z" />
    <glyph glyph-name="dagger" unicode="&#x2020;" horiz-adv-x="591" 
d="M44 548h204v196h95v-196h203v-82h-203v-578h-95v578h-204v82z" />
    <glyph glyph-name="daggerdbl" unicode="&#x2021;" horiz-adv-x="591" 
d="M44 548h204v196h95v-196h203v-82h-203v-301h203v-83h-203v-194h-95v194h-204v83h204v301h-204v82z" />
    <glyph glyph-name="bullet" unicode="&#x2022;" horiz-adv-x="342" 
d="M172 211q-27 0 -50 10t-40.5 27t-27.5 40t-10 49t10 49.5t27.5 41t40.5 27.5t50 10q26 0 49 -10t40 -27.5t27 -41t10 -49.5t-10 -49t-27 -40t-40 -27t-49 -10z" />
    <glyph glyph-name="ellipsis" unicode="&#x2026;" horiz-adv-x="708" 
d="M54 110h108v-110h-108v110zM300 110h109v-110h-109v110zM546 110h109v-110h-109v110z" />
    <glyph glyph-name="perthousand" unicode="&#x2030;" horiz-adv-x="1287" 
d="M609 712h73l-406 -712h-73zM207 316q-38 0 -69 14.5t-53.5 41.5t-35 65.5t-12.5 85.5t13 85t36 65t54 41.5t67 14.5q37 0 68 -14t53.5 -41t35.5 -65t13 -86q0 -47 -12.5 -85.5t-35 -65.5t-53.5 -41.5t-69 -14.5zM678 -15q-38 0 -69 14.5t-53.5 41.5t-35 65t-12.5 85
q0 48 13 86t35.5 64.5t54 41t67.5 14.5q37 0 68 -14t53.5 -40.5t35 -65t12.5 -86.5q0 -47 -12 -85t-34.5 -65t-53.5 -41.5t-69 -14.5zM207 382q45 0 66.5 39.5t21.5 101.5q0 30 -6 55.5t-17 44.5t-27.5 30t-37.5 11q-42 0 -64 -40t-22 -101q0 -60 22 -100.5t64 -40.5z
M678 51q44 0 65.5 39t21.5 101q0 60 -22.5 101t-64.5 41q-43 0 -64.5 -40t-21.5 -102q0 -60 21.5 -100t64.5 -40zM1080 -15q-38 0 -69 14.5t-53.5 41.5t-35 65t-12.5 85q0 48 13 86t36 64.5t54 41t67 14.5q37 0 68 -14t53.5 -40.5t35.5 -65t13 -86.5q0 -47 -12.5 -85
t-35 -65t-53.5 -41.5t-69 -14.5zM1080 51q45 0 66.5 39t21.5 101q0 60 -23 101t-65 41t-64 -40t-22 -102q0 -60 22 -100t64 -40z" />
    <glyph glyph-name="minute" unicode="&#x2032;" horiz-adv-x="197" 
d="M81 744h84l-49 -247h-84z" />
    <glyph glyph-name="second" unicode="&#x2033;" horiz-adv-x="359" 
d="M243 744h84l-49 -247h-84zM81 744h84l-49 -247h-84z" />
    <glyph glyph-name="guilsinglleft" unicode="&#x2039;" horiz-adv-x="322" 
d="M79 231v98l164 151v-101l-113 -97v-2l113 -99v-100z" />
    <glyph glyph-name="guilsinglright" unicode="&#x203a;" horiz-adv-x="322" 
d="M243 329v-98l-164 -150v100l113 98v2l-113 99v100z" />
    <glyph glyph-name="fraction" unicode="&#x2044;" horiz-adv-x="206" 
d="M371 744h86l-650 -874h-85z" />
    <glyph glyph-name="uni2070" unicode="&#x2070;" horiz-adv-x="467" 
d="M234 277q-44 0 -80 17t-62 48.5t-40.5 75.5t-14.5 99q0 54 15 98t41.5 75t62.5 48t78 17t78.5 -16.5t62.5 -47t41 -75t15 -99.5t-14.5 -99t-40.5 -75.5t-62 -48.5t-80 -17zM234 341q59 0 87 48t28 128q0 38 -7.5 70t-22 55t-36 36t-49.5 13q-57 0 -86 -48t-29 -126
t29 -127t86 -49z" />
    <glyph glyph-name="uni2074" unicode="&#x2074;" horiz-adv-x="423" 
d="M255 391h-226v79l227 280h76v-298h73v-61h-73v-105h-77v105zM84 448q13 1 25 2q11 1 23 1.5t23 0.5h100v128q0 12 0.5 26.5t2.5 27.5l4 30h-3l-18 -27q-8 -11 -17.5 -24t-17.5 -23l-67 -80q-8 -10 -17.5 -20t-17.5 -19q-10 -11 -20 -21v-2z" />
    <glyph glyph-name="uni2075" unicode="&#x2075;" horiz-adv-x="403" 
d="M201 277q-75 0 -124 37t-55 97h80q8 -32 32.5 -50.5t64.5 -18.5q42 0 68 26.5t26 68.5q0 46 -27 71t-67 25q-30 0 -52 -11t-36 -27h-73l47 249h263v-67h-210l-23 -121h3q17 19 42 30t57 11q31 0 59.5 -11t50.5 -32t34.5 -50.5t12.5 -66.5q0 -36 -13.5 -65.5t-36.5 -50.5
t-54.5 -32.5t-68.5 -11.5z" />
    <glyph glyph-name="uni2076" unicode="&#x2076;" horiz-adv-x="425" 
d="M226 276q-45 0 -76.5 14.5t-54.5 38.5q-31 32 -44.5 78t-13.5 109q0 55 11.5 100t37.5 77q24 30 57.5 46t80.5 16q35 0 62 -9.5t46.5 -26t31 -38t15.5 -44.5h-79q-5 20 -22 37.5t-52 17.5q-56 0 -82 -42t-29 -120h2q20 32 49 48t70 16q32 0 60.5 -12t49.5 -33t33.5 -49.5
t12.5 -62.5q0 -35 -12.5 -64t-35 -51t-53 -34t-65.5 -12zM222 340q40 0 66.5 26.5t26.5 69.5q0 42 -26.5 68.5t-66.5 26.5q-44 0 -70.5 -26.5t-26.5 -68.5q0 -43 28 -69.5t69 -26.5z" />
    <glyph glyph-name="uni2077" unicode="&#x2077;" horiz-adv-x="370" 
d="M93 286q3 62 19.5 119t42.5 107.5t58.5 92t67.5 71.5v3q-11 -1 -27 -2q-14 -1 -34.5 -1.5t-49.5 -0.5h-148v69h333v-65q-33 -31 -63.5 -72t-54.5 -90.5t-40 -107.5t-19 -123h-85z" />
    <glyph glyph-name="uni2078" unicode="&#x2078;" horiz-adv-x="427" 
d="M216 277q-36 0 -69.5 8.5t-59.5 26t-42 44t-16 63.5q0 46 26.5 75t68.5 44v2q-71 29 -71 93q0 29 12 51.5t34 38.5t51 24t64 8q70 0 115 -31.5t45 -87.5q0 -69 -71 -95v-2q44 -14 69.5 -43.5t25.5 -73.5q0 -38 -15 -65t-40.5 -45t-58 -26.5t-68.5 -8.5zM214 562
q41 0 62.5 18.5t21.5 48.5t-21.5 48t-62.5 18t-62 -18t-21 -48t21 -48.5t62 -18.5zM214 339q48 0 75 22t27 60q0 39 -26 62t-76 23q-49 0 -75.5 -23t-26.5 -62t26.5 -60.5t75.5 -21.5z" />
    <glyph glyph-name="uni2079" unicode="&#x2079;" horiz-adv-x="425" 
d="M210 276q-35 0 -64 10t-50 26.5t-34 39t-16 47.5h80q5 -23 24.5 -41t57.5 -18q49 0 73 34q28 36 33 124h-2q-21 -28 -50 -44t-67 -16q-33 0 -62 12t-50.5 33t-34.5 49.5t-13 62.5t13 63.5t36 51t54.5 33.5t68.5 12q38 0 66.5 -10.5t50.5 -28.5q37 -30 52 -79t15 -121
q0 -63 -13.5 -112.5t-44.5 -80.5q-23 -22 -53 -34.5t-70 -12.5zM208 501q45 0 71 26.5t26 68.5t-27.5 69.5t-69.5 27.5t-68.5 -27t-26.5 -69t26.5 -69t68.5 -27z" />
    <glyph glyph-name="uni2080" unicode="&#x2080;" horiz-adv-x="467" 
d="M234 -169q-44 0 -80 17t-62 48.5t-40.5 75.5t-14.5 99q0 54 15 98t41.5 75t62.5 48t78 17t78.5 -16.5t62.5 -47t41 -75t15 -99.5t-14.5 -99t-40.5 -75.5t-62 -48.5t-80 -17zM234 -105q59 0 87 48t28 128q0 38 -7.5 70t-22 55t-36 36t-49.5 13q-57 0 -86 -48t-29 -126
t29 -127t86 -49z" />
    <glyph glyph-name="uni2081" unicode="&#x2081;" horiz-adv-x="283" 
d="M141 163h-111v53q47 1 81.5 20t40.5 66h69v-462h-80v323z" />
    <glyph glyph-name="uni2082" unicode="&#x2082;" horiz-adv-x="394" 
d="M28 -160q1 39 14 68.5t32.5 53.5t43.5 42.5t48 34.5q22 15 42.5 27.5t36.5 27t25.5 31t9.5 38.5q0 36 -21.5 57t-58.5 21q-40 0 -62 -26t-23 -69h-77q0 74 45 118t122 44q36 0 65 -11.5t49.5 -31t31.5 -45.5t11 -56q0 -33 -10.5 -57t-28 -42.5t-40 -33t-46.5 -29.5
l-32.5 -19.5t-33.5 -22.5t-28 -25.5t-17 -28.5h235v-66h-333v0z" />
    <glyph glyph-name="uni2083" unicode="&#x2083;" horiz-adv-x="403" 
d="M203 -169q-85 0 -133.5 43t-49.5 115h75q2 -43 27.5 -69t77.5 -26q42 0 67.5 20.5t25.5 62.5q0 37 -25.5 56.5t-73.5 19.5h-29v61h28q42 0 64.5 17.5t22.5 49.5t-22 50t-57 18q-44 0 -66.5 -24.5t-24.5 -62.5h-76q1 32 12.5 59t33 46.5t52.5 30.5t70 11q68 0 111.5 -33.5
t43.5 -92.5q0 -38 -21.5 -61t-59.5 -34v-2q98 -22 98 -115q0 -35 -13.5 -61t-37 -43.5t-54.5 -26.5t-66 -9z" />
    <glyph glyph-name="uni2084" unicode="&#x2084;" horiz-adv-x="423" 
d="M255 -55h-226v79l227 280h76v-298h73v-61h-73v-105h-77v105zM84 2q13 1 25 2q11 1 23 1.5t23 0.5h100v128q0 12 0.5 26.5t2.5 27.5l4 30h-3l-18 -27q-8 -11 -17.5 -24t-17.5 -23l-67 -80q-8 -10 -17.5 -20t-17.5 -19q-10 -11 -20 -21v-2z" />
    <glyph glyph-name="uni2085" unicode="&#x2085;" horiz-adv-x="403" 
d="M201 -169q-75 0 -124 37t-55 97h80q8 -32 32.5 -50.5t64.5 -18.5q42 0 68 26.5t26 68.5q0 46 -27 71t-67 25q-30 0 -52 -11t-36 -27h-73l47 249h263v-67h-210l-23 -121h3q17 19 42 30t57 11q31 0 59.5 -11t50.5 -32t34.5 -50.5t12.5 -66.5q0 -36 -13.5 -65.5t-36.5 -50.5
t-54.5 -32.5t-68.5 -11.5z" />
    <glyph glyph-name="uni2086" unicode="&#x2086;" horiz-adv-x="425" 
d="M226 -170q-45 0 -76.5 14.5t-54.5 38.5q-31 32 -44.5 78t-13.5 109q0 55 11.5 100t37.5 77q24 30 57.5 46t80.5 16q35 0 62 -9.5t46.5 -26t31 -38t15.5 -44.5h-79q-5 20 -22 37.5t-52 17.5q-56 0 -82 -42t-29 -120h2q20 32 49 48t70 16q32 0 60.5 -12t49.5 -33
t33.5 -49.5t12.5 -62.5q0 -35 -12.5 -64t-35 -51t-53 -34t-65.5 -12zM222 -106q40 0 66.5 26.5t26.5 69.5q0 42 -26.5 68.5t-66.5 26.5q-44 0 -70.5 -26.5t-26.5 -68.5q0 -43 28 -69.5t69 -26.5z" />
    <glyph glyph-name="uni2087" unicode="&#x2087;" horiz-adv-x="370" 
d="M93 -160q3 62 19.5 119t42.5 107.5t58.5 92t67.5 71.5v3q-11 -1 -27 -2q-14 -1 -34.5 -1.5t-49.5 -0.5h-148v69h333v-65q-33 -31 -63.5 -72t-54.5 -90.5t-40 -107.5t-19 -123h-85z" />
    <glyph glyph-name="uni2088" unicode="&#x2088;" horiz-adv-x="427" 
d="M216 -169q-36 0 -69.5 8.5t-59.5 26t-42 44t-16 63.5q0 46 26.5 75t68.5 44v2q-71 29 -71 93q0 29 12 51.5t34 38.5t51 24t64 8q70 0 115 -31.5t45 -87.5q0 -69 -71 -95v-2q44 -14 69.5 -43.5t25.5 -73.5q0 -38 -15 -65t-40.5 -45t-58 -26.5t-68.5 -8.5zM214 116
q41 0 62.5 18.5t21.5 48.5t-21.5 48t-62.5 18t-62 -18t-21 -48t21 -48.5t62 -18.5zM214 -107q48 0 75 22t27 60q0 39 -26 62t-76 23q-49 0 -75.5 -23t-26.5 -62t26.5 -60.5t75.5 -21.5z" />
    <glyph glyph-name="uni2089" unicode="&#x2089;" horiz-adv-x="425" 
d="M210 -170q-35 0 -64 10t-50 26.5t-34 39t-16 47.5h80q5 -23 24.5 -41t57.5 -18q49 0 73 34q28 36 33 124h-2q-21 -28 -50 -44t-67 -16q-33 0 -62 12t-50.5 33t-34.5 49.5t-13 62.5t13 63.5t36 51t54.5 33.5t68.5 12q38 0 66.5 -10.5t50.5 -28.5q37 -30 52 -79t15 -121
q0 -63 -13.5 -112.5t-44.5 -80.5q-23 -22 -53 -34.5t-70 -12.5zM208 55q45 0 71 26.5t26 68.5t-27.5 69.5t-69.5 27.5t-68.5 -27t-26.5 -69t26.5 -69t68.5 -27z" />
    <glyph glyph-name="Euro" unicode="&#x20ac;" horiz-adv-x="657" 
d="M31 452h66q11 63 35.5 114t60.5 87.5t81.5 56t99.5 19.5q51 0 92.5 -15.5t72 -43t50 -65t25.5 -82.5h-94q-12 58 -48.5 91t-98.5 33q-75 0 -118.5 -52t-57.5 -143h203v-57h-209q-1 -10 -1 -20v-20v-21t1 -20h209v-57h-202q16 -94 63 -142t120 -48q69 0 107 45t46 114h90
q-2 -50 -19.5 -94t-49 -76.5t-75.5 -51.5t-98 -19t-101 18t-84 53t-63 85.5t-37 115.5h-66v57h59q-1 10 -1 20v21v20t1 20h-59v57z" />
    <glyph glyph-name="uni2113" unicode="&#x2113;" horiz-adv-x="397" 
d="M85 612q0 37 11 64t30 43.5t45 24.5t55 8q66 0 99.5 -36.5t33.5 -127.5q0 -71 -13.5 -125.5t-38 -95.5t-57.5 -71.5t-72 -53.5v-92q0 -39 16.5 -56t48.5 -17q29 0 48.5 7t35.5 15h3v-79q-15 -10 -41.5 -16.5t-54.5 -6.5q-34 0 -61.5 8t-47 25.5t-30 45.5t-10.5 69v55
q-14 -5 -31.5 -11t-31.5 -9v67q14 5 31.5 11t31.5 12v342zM232 385q20 35 33 85.5t13 117.5q0 54 -14 72t-37 18t-36 -15t-13 -52v-297q16 14 29.5 32.5t24.5 38.5z" />
    <glyph glyph-name="trademark" unicode="&#x2122;" horiz-adv-x="868" 
d="M422 744h104l50 -164q5 -19 12 -44t12 -48q6 -27 13 -55h2q7 28 13 55q5 23 11.5 48t12.5 44l50 164h106v-382h-68v140q0 26 0.5 56t1.5 56l2 62h-3q-7 -28 -15 -56q-7 -25 -15 -54t-17 -58l-46 -146h-69l-45 146q-9 29 -17.5 59t-14.5 54q-8 28 -14 55h-3l2 -62
q1 -26 1.5 -56t0.5 -56v-140h-67v382zM39 744h313v-63h-119v-319h-74v319h-120v63z" />
    <glyph glyph-name="Omega" unicode="&#x2126;" horiz-adv-x="770" 
d="M584 85h138v-85h-294l-1 81q52 8 89.5 36t61.5 70t35.5 94.5t11.5 108.5q0 63 -17 115t-48 89t-75.5 57.5t-99.5 20.5q-56 0 -100 -20.5t-75.5 -57.5t-48 -89t-16.5 -115q0 -56 11.5 -108.5t35.5 -94t61.5 -70t89.5 -36.5l-1 -81h-295v85h138v2q-70 43 -106.5 118
t-36.5 182q0 84 25 152.5t70.5 118t108.5 76.5t139 27t139 -27t108.5 -76.5t70.5 -118t25 -152.5q0 -107 -37 -182t-107 -118v-2z" />
    <glyph glyph-name="estimated" unicode="&#x212e;" horiz-adv-x="685" 
d="M187 301v-203q29 -29 70.5 -45t101.5 -16q91 0 141 39.5t75 109.5h52q-10 -43 -31.5 -79t-55 -62.5t-79 -41t-102.5 -14.5q-73 0 -130 23.5t-96 66t-59.5 101t-20.5 129.5q0 70 22 128.5t62 100.5t95.5 65.5t121.5 23.5q55 0 99.5 -15.5t79.5 -43.5q56 -47 77.5 -114
t20.5 -153h-444zM354 582q-55 0 -97.5 -17t-69.5 -45v-175h313v188q-23 23 -60.5 36t-85.5 13z" />
    <glyph glyph-name="onethird" unicode="&#x2153;" horiz-adv-x="904" 
d="M144 609h-111v53q47 1 81.5 20t40.5 66h69v-462h-80v323zM683 744h86l-650 -874h-85zM701 -119q-85 0 -133.5 43t-49.5 115h75q2 -43 27.5 -69t77.5 -26q42 0 67.5 20.5t25.5 62.5q0 37 -25.5 56.5t-73.5 19.5h-29v61h28q42 0 64.5 17.5t22.5 49.5t-22 50t-57 18
q-44 0 -66.5 -24.5t-24.5 -62.5h-76q1 32 12.5 59t33 46.5t52.5 30.5t70 11q68 0 111.5 -33.5t43.5 -92.5q0 -38 -21.5 -61t-59.5 -34v-2q98 -22 98 -115q0 -35 -13.5 -61t-37 -43.5t-54.5 -26.5t-66 -9z" />
    <glyph glyph-name="twothirds" unicode="&#x2154;" horiz-adv-x="981" 
d="M31 286q1 39 14 68.5t32.5 53.5t43.5 42.5t48 34.5q22 15 42.5 27.5t36.5 27t25.5 31t9.5 38.5q0 36 -21.5 57t-58.5 21q-40 0 -62 -26t-23 -69h-77q0 74 45 118t122 44q36 0 65 -11.5t49.5 -31t31.5 -45.5t11 -56q0 -33 -10.5 -57t-28 -42.5t-40 -33t-46.5 -29.5
l-32.5 -19.5t-33.5 -22.5t-28 -25.5t-17 -28.5h235v-66h-333zM775 744h86l-650 -874h-85zM778 -119q-85 0 -133.5 43t-49.5 115h75q2 -43 27.5 -69t77.5 -26q42 0 67.5 20.5t25.5 62.5q0 37 -25.5 56.5t-73.5 19.5h-29v61h28q42 0 64.5 17.5t22.5 49.5t-22 50t-57 18
q-44 0 -66.5 -24.5t-24.5 -62.5h-76q1 32 12.5 59t33 46.5t52.5 30.5t70 11q68 0 111.5 -33.5t43.5 -92.5q0 -38 -21.5 -61t-59.5 -34v-2q98 -22 98 -115q0 -35 -13.5 -61t-37 -43.5t-54.5 -26.5t-66 -9z" />
    <glyph glyph-name="oneeighth" unicode="&#x215b;" horiz-adv-x="914" 
d="M146 609h-111v53q47 1 81.5 20t40.5 66h69v-462h-80v323zM682 744h86l-650 -874h-85zM700 -119q-36 0 -69.5 8.5t-59.5 26t-42 44t-16 63.5q0 46 26.5 75t68.5 44v2q-71 29 -71 93q0 29 12 51.5t34 38.5t51 24t64 8q70 0 115 -31.5t45 -87.5q0 -69 -71 -95v-2
q44 -14 69.5 -43.5t25.5 -73.5q0 -38 -15 -65t-40.5 -45t-58 -26.5t-68.5 -8.5zM698 166q41 0 62.5 18.5t21.5 48.5t-21.5 48t-62.5 18t-62 -18t-21 -48t21 -48.5t62 -18.5zM698 -57q48 0 75 22t27 60q0 39 -26 62t-76 23q-49 0 -75.5 -23t-26.5 -62t26.5 -60.5t75.5 -21.5z
" />
    <glyph glyph-name="threeeighths" unicode="&#x215c;" horiz-adv-x="973" 
d="M206 277q-85 0 -133.5 43t-49.5 115h75q2 -43 27.5 -69t77.5 -26q42 0 67.5 20.5t25.5 62.5q0 37 -25.5 56.5t-73.5 19.5h-29v61h28q42 0 64.5 17.5t22.5 49.5t-22 50t-57 18q-44 0 -66.5 -24.5t-24.5 -62.5h-76q1 32 12.5 59t33 46.5t52.5 30.5t70 11q68 0 111.5 -33.5
t43.5 -92.5q0 -38 -21.5 -61t-59.5 -34v-2q98 -22 98 -115q0 -35 -13.5 -61t-37 -43.5t-54.5 -26.5t-66 -9zM759 744h86l-650 -874h-85zM759 -119q-36 0 -69.5 8.5t-59.5 26t-42 44t-16 63.5q0 46 26.5 75t68.5 44v2q-71 29 -71 93q0 29 12 51.5t34 38.5t51 24t64 8
q70 0 115 -31.5t45 -87.5q0 -69 -71 -95v-2q44 -14 69.5 -43.5t25.5 -73.5q0 -38 -15 -65t-40.5 -45t-58 -26.5t-68.5 -8.5zM757 166q41 0 62.5 18.5t21.5 48.5t-21.5 48t-62.5 18t-62 -18t-21 -48t21 -48.5t62 -18.5zM757 -57q48 0 75 22t27 60q0 39 -26 62t-76 23
q-49 0 -75.5 -23t-26.5 -62t26.5 -60.5t75.5 -21.5z" />
    <glyph glyph-name="fiveeighths" unicode="&#x215d;" horiz-adv-x="964" 
d="M204 277q-75 0 -124 37t-55 97h80q8 -32 32.5 -50.5t64.5 -18.5q42 0 68 26.5t26 68.5q0 46 -27 71t-67 25q-30 0 -52 -11t-36 -27h-73l47 249h263v-67h-210l-23 -121h3q17 19 42 30t57 11q31 0 59.5 -11t50.5 -32t34.5 -50.5t12.5 -66.5q0 -36 -13.5 -65.5t-36.5 -50.5
t-54.5 -32.5t-68.5 -11.5zM748 744h86l-650 -874h-85zM750 -119q-36 0 -69.5 8.5t-59.5 26t-42 44t-16 63.5q0 46 26.5 75t68.5 44v2q-71 29 -71 93q0 29 12 51.5t34 38.5t51 24t64 8q70 0 115 -31.5t45 -87.5q0 -69 -71 -95v-2q44 -14 69.5 -43.5t25.5 -73.5q0 -38 -15 -65
t-40.5 -45t-58 -26.5t-68.5 -8.5zM748 166q41 0 62.5 18.5t21.5 48.5t-21.5 48t-62.5 18t-62 -18t-21 -48t21 -48.5t62 -18.5zM748 -57q48 0 75 22t27 60q0 39 -26 62t-76 23q-49 0 -75.5 -23t-26.5 -62t26.5 -60.5t75.5 -21.5z" />
    <glyph glyph-name="seveneighths" unicode="&#x215e;" horiz-adv-x="917" 
d="M703 -119q-36 0 -69.5 8.5t-59.5 26t-42 44t-16 63.5q0 46 26.5 75t68.5 44v2q-71 29 -71 93q0 29 12 51.5t34 38.5t51 24t64 8q70 0 115 -31.5t45 -87.5q0 -69 -71 -95v-2q44 -14 69.5 -43.5t25.5 -73.5q0 -38 -15 -65t-40.5 -45t-58 -26.5t-68.5 -8.5zM674 744h86
l-650 -874h-85zM97 286q3 62 19.5 119t42.5 107.5t58.5 92t67.5 71.5v3q-11 -1 -27 -2q-14 -1 -34.5 -1.5t-49.5 -0.5h-148v69h333v-65q-33 -31 -63.5 -72t-54.5 -90.5t-40 -107.5t-19 -123h-85zM701 -57q48 0 75 22t27 60q0 39 -26 62t-76 23q-49 0 -75.5 -23t-26.5 -62
t26.5 -60.5t75.5 -21.5zM701 166q41 0 62.5 18.5t21.5 48.5t-21.5 48t-62.5 18t-62 -18t-21 -48t21 -48.5t62 -18.5z" />
    <glyph glyph-name="partialdiff" unicode="&#x2202;" horiz-adv-x="594" 
d="M444 415q-9 58 -30.5 101.5t-55 74t-80.5 49.5t-108 30v81q102 -13 172.5 -50.5t115 -96t64 -135.5t19.5 -169q0 -58 -15.5 -114.5t-48 -101t-83 -72t-119.5 -27.5q-53 0 -95.5 17t-72 46.5t-45.5 69.5t-16 87q0 57 18.5 107t52.5 87t81 58t103 21q40 0 79 -15.5
t64 -47.5zM277 62q40 0 71 17t52.5 45.5t33 64t11.5 73.5q0 62 -35 101t-104 39q-38 0 -68.5 -14.5t-52 -40t-33.5 -62t-12 -79.5q0 -63 34 -103.5t103 -40.5z" />
    <glyph glyph-name="Delta" unicode="&#x2206;" horiz-adv-x="709" 
d="M29 89l264 655h121l266 -656v-88h-651v89zM127 83h448l-172 434q-12 30 -21.5 57.5t-15.5 47.5q-8 24 -13 45h-2q-6 -21 -14 -45q-7 -20 -16 -47.5t-21 -57.5z" />
    <glyph glyph-name="product" unicode="&#x220f;" horiz-adv-x="749" 
d="M667 744v-848h-103v758h-379v-758h-103v848h585z" />
    <glyph glyph-name="summation" unicode="&#x2211;" horiz-adv-x="670" 
d="M52 -104v99l293 333v2l-293 320v94h559v-87h-439v-2l280 -302v-42l-287 -323v-2h456v-90h-569z" />
    <glyph glyph-name="minus" unicode="&#x2212;" horiz-adv-x="601" 
d="M63 376h475v-73h-475v73z" />
    <glyph glyph-name="uni2215" unicode="&#x2215;" horiz-adv-x="206" 
d="M371 744h86l-650 -874h-85z" />
    <glyph glyph-name="uni2219" unicode="&#x2219;" horiz-adv-x="234" 
d="M63 381h108v-110h-108v110z" />
    <glyph glyph-name="radical" unicode="&#x221a;" horiz-adv-x="643" 
d="M28 326h153l71 -186q11 -30 21 -61t18 -56q9 -29 16 -56h2q6 27 13 56q6 25 14.5 55.5t17.5 60.5l182 605h97l-266 -848h-116l-135 343h-88v87z" />
    <glyph glyph-name="infinity" unicode="&#x221e;" horiz-adv-x="744" 
d="M194 136q-39 0 -69 15t-49.5 39.5t-29.5 57.5t-10 69t10 68.5t30 57.5t49.5 39.5t68.5 14.5q31 0 57 -9.5t48.5 -26t41 -38.5t34.5 -47q16 25 34 47t39 38.5t46 26t55 9.5q36 0 65.5 -13t50 -36.5t32 -57t11.5 -73.5q0 -41 -11.5 -74t-32 -57t-50 -37t-65.5 -13
q-30 0 -55 9.5t-46 26t-39 39t-34 47.5q-16 -25 -34.5 -47.5t-41 -39t-48.5 -26t-57 -9.5zM199 416q-41 0 -59 -29t-18 -70t18 -70.5t59 -29.5q19 0 36 8.5t32 22.5t28 31.5t24 36.5q-23 40 -52.5 70t-67.5 30zM544 217q41 0 59.5 29.5t18.5 70.5t-18.5 70t-59.5 29
q-36 0 -63.5 -30t-50.5 -70q12 -19 24.5 -36.5t26.5 -31.5t29.5 -22.5t33.5 -8.5z" />
    <glyph glyph-name="integral" unicode="&#x222b;" horiz-adv-x="351" 
d="M122 606q0 39 11 66t31 44.5t47.5 25t59.5 7.5q44 0 76 -9v-78h-3q-8 3 -22.5 6t-35.5 3q-71 0 -71 -73v-642q0 -39 -11.5 -66t-31.5 -44t-47 -24.5t-59 -7.5q-24 0 -42.5 2.5t-33.5 7.5v78h3q8 -3 22.5 -6.5t35.5 -3.5q71 0 71 73v641z" />
    <glyph glyph-name="approxequal" unicode="&#x2248;" horiz-adv-x="601" 
d="M431 359q-31 0 -67 6.5t-71.5 14t-67 14t-53.5 6.5q-44 0 -46 -49h-71q2 60 33.5 91t81.5 31q32 0 68 -6.5t70.5 -14t64.5 -14t51 -6.5q26 0 37.5 12.5t12.5 35.5h72q-2 -55 -30 -88t-85 -33zM431 177q-31 0 -67 6.5t-71.5 14t-67 14t-53.5 6.5q-44 0 -46 -49h-71
q2 60 33.5 91t81.5 31q32 0 68 -6.5t70.5 -14t64.5 -14t51 -6.5q26 0 37.5 12.5t12.5 35.5h72q-2 -55 -30 -88t-85 -33z" />
    <glyph glyph-name="notequal" unicode="&#x2260;" horiz-adv-x="601" 
d="M64 455h266l63 123h71l-63 -123h136v-73h-173l-57 -113h230v-73h-267l-62 -123h-71l62 123h-135v73h172l57 113h-229v73z" />
    <glyph glyph-name="lessequal" unicode="&#x2264;" horiz-adv-x="548" 
d="M60 73h424v-73h-424v73zM60 287v97l424 166v-83l-229 -85q-20 -8 -43.5 -15.5t-43.5 -14.5q-24 -8 -47 -15v-2q23 -7 47 -15q20 -7 43.5 -14.5t43.5 -14.5l229 -86v-84z" />
    <glyph glyph-name="greaterequal" unicode="&#x2265;" horiz-adv-x="548" 
d="M488 0h-424v73h424v-73zM64 121v84l229 86q20 7 43 14.5t43 14.5q24 8 48 15v2q-24 7 -48 15q-20 7 -43 14.5t-43 15.5l-229 85v83l424 -166v-97z" />
    <glyph glyph-name="uni24C5" unicode="&#x24c5;" horiz-adv-x="863" 
d="M431 -18q-80 0 -149.5 29t-120.5 81t-80.5 123t-29.5 154q0 84 29.5 155t80.5 122.5t120.5 81t149.5 29.5t150 -29.5t121.5 -81t81 -122.5t29.5 -155q0 -83 -29.5 -154t-81 -123t-121.5 -81t-150 -29zM431 24q71 0 132 26t105.5 72t69.5 109.5t25 137.5q0 75 -25 138.5
t-69.5 110t-105.5 72.5t-132 26t-131.5 -26t-105 -72.5t-70 -110t-25.5 -138.5q0 -74 25.5 -137.5t70 -109.5t105 -72t131.5 -26zM289 584h184q71 0 108 -39q17 -19 26 -42t9 -51q0 -60 -36.5 -95.5t-103.5 -35.5h-108v-160h-79v423zM368 383h94q37 0 56 18t19 49
q0 33 -19 50.5t-54 17.5h-96v-135z" />
    <glyph glyph-name="lozenge" unicode="&#x25ca;" horiz-adv-x="584" 
d="M555 371l-209 -371h-107l-210 373l209 371h107zM233 189q16 -29 26.5 -51.5t18.5 -39.5q8 -19 14 -34h2q5 15 13 34q13 31 45 91l98 179l-100 186q-16 29 -27 51.5t-18 39.5q-9 19 -14 34h-2q-5 -15 -13 -34q-7 -17 -18 -39.5t-27 -51.5l-98 -179z" />
    <glyph glyph-name="uniF001" unicode="&#xf001;" horiz-adv-x="561" 
d="M31 537h83v74q0 74 38 107q20 17 49.5 24t68.5 7q11 0 23 -0.5t25 -1.5v-77q-33 2 -54.5 0.5t-34 -9t-17.5 -20.5t-5 -34v-70h110v-73h-110v-464h-93v464h-83v73zM404 537h93v-537h-93v537zM402 744h97v-108h-97v108z" />
    <glyph glyph-name="uniF002" unicode="&#xf002;" horiz-adv-x="564" 
d="M31 537h83v74q0 74 38 107q20 17 49.5 24t68.5 7q11 0 23 -0.5t25 -1.5v-77q-33 2 -54.5 0.5t-34 -9t-17.5 -20.5t-5 -34v-70h110v-73h-110v-464h-93v464h-83v73zM404 744h93v-744h-93v744z" />
    <glyph glyph-name="uniF8FF" unicode="&#xf8ff;" horiz-adv-x="880" 
d="M68 745h745v-745h-745v745zM190 299h175v-176h150v176h175v149h-175v170h-150v-170h-175v-149z" />
    <glyph glyph-name="glyph326" horiz-adv-x="222" 
d="M30 -170q-15 0 -28 1.5t-24 3.5v74h3q15 -3 29 -3q27 1 40.5 12.5t13.5 40.5v578h93v-583q0 -39 -9.5 -62.5t-26.5 -37.5q-18 -14 -41 -19t-50 -5z" />
    <glyph glyph-name="glyph336" 
d="M305 -141q0 -51 -29 -76.5t-80 -27.5v44q55 7 55 52v2h-54v96h108v-90z" />
    <glyph glyph-name="zero.dnom" horiz-adv-x="467" 
d="M234 -119q-44 0 -80 17t-62 48.5t-40.5 75.5t-14.5 99q0 54 15 98t41.5 75t62.5 48t78 17t78.5 -16.5t62.5 -47t41 -75t15 -99.5t-14.5 -99t-40.5 -75.5t-62 -48.5t-80 -17zM234 -55q59 0 87 48t28 128q0 38 -7.5 70t-22 55t-36 36t-49.5 13q-57 0 -86 -48t-29 -126
t29 -127t86 -49z" />
    <glyph glyph-name="one.dnom" horiz-adv-x="283" 
d="M141 213h-111v53q47 1 81.5 20t40.5 66h69v-462h-80v323z" />
    <glyph glyph-name="two.dnom" horiz-adv-x="394" 
d="M28 -110q1 39 14 68.5t32.5 53.5t43.5 42.5t48 34.5q22 15 42.5 27.5t36.5 27t25.5 31t9.5 38.5q0 36 -21.5 57t-58.5 21q-40 0 -62 -26t-23 -69h-77q0 74 45 118t122 44q36 0 65 -11.5t49.5 -31t31.5 -45.5t11 -56q0 -33 -10.5 -57t-28 -42.5t-40 -33t-46.5 -29.5
l-32.5 -19.5t-33.5 -22.5t-28 -25.5t-17 -28.5h235v-66h-333v0z" />
    <glyph glyph-name="three.dnom" horiz-adv-x="403" 
d="M203 -119q-85 0 -133.5 43t-49.5 115h75q2 -43 27.5 -69t77.5 -26q42 0 67.5 20.5t25.5 62.5q0 37 -25.5 56.5t-73.5 19.5h-29v61h28q42 0 64.5 17.5t22.5 49.5t-22 50t-57 18q-44 0 -66.5 -24.5t-24.5 -62.5h-76q1 32 12.5 59t33 46.5t52.5 30.5t70 11q68 0 111.5 -33.5
t43.5 -92.5q0 -38 -21.5 -61t-59.5 -34v-2q98 -22 98 -115q0 -35 -13.5 -61t-37 -43.5t-54.5 -26.5t-66 -9z" />
    <glyph glyph-name="four.dnom" horiz-adv-x="423" 
d="M255 -5h-226v79l227 280h76v-298h73v-61h-73v-105h-77v105zM84 52q13 1 25 2q11 1 23 1.5t23 0.5h100v128q0 12 0.5 26.5t2.5 27.5l4 30h-3l-18 -27q-8 -11 -17.5 -24t-17.5 -23l-67 -80q-8 -10 -17.5 -20t-17.5 -19q-10 -11 -20 -21v-2z" />
    <glyph glyph-name="five.dnom" horiz-adv-x="403" 
d="M201 -119q-75 0 -124 37t-55 97h80q8 -32 32.5 -50.5t64.5 -18.5q42 0 68 26.5t26 68.5q0 46 -27 71t-67 25q-30 0 -52 -11t-36 -27h-73l47 249h263v-67h-210l-23 -121h3q17 19 42 30t57 11q31 0 59.5 -11t50.5 -32t34.5 -50.5t12.5 -66.5q0 -36 -13.5 -65.5t-36.5 -50.5
t-54.5 -32.5t-68.5 -11.5z" />
    <glyph glyph-name="six.dnom" horiz-adv-x="425" 
d="M226 -120q-45 0 -76.5 14.5t-54.5 38.5q-31 32 -44.5 78t-13.5 109q0 55 11.5 100t37.5 77q24 30 57.5 46t80.5 16q35 0 62 -9.5t46.5 -26t31 -38t15.5 -44.5h-79q-5 20 -22 37.5t-52 17.5q-56 0 -82 -42t-29 -120h2q20 32 49 48t70 16q32 0 60.5 -12t49.5 -33
t33.5 -49.5t12.5 -62.5q0 -35 -12.5 -64t-35 -51t-53 -34t-65.5 -12zM222 -56q40 0 66.5 26.5t26.5 69.5q0 42 -26.5 68.5t-66.5 26.5q-44 0 -70.5 -26.5t-26.5 -68.5q0 -43 28 -69.5t69 -26.5z" />
    <glyph glyph-name="seven.dnom" horiz-adv-x="370" 
d="M93 -110q3 62 19.5 119t42.5 107.5t58.5 92t67.5 71.5v3q-11 -1 -27 -2q-14 -1 -34.5 -1.5t-49.5 -0.5h-148v69h333v-65q-33 -31 -63.5 -72t-54.5 -90.5t-40 -107.5t-19 -123h-85z" />
    <glyph glyph-name="eight.dnom" horiz-adv-x="427" 
d="M216 -119q-36 0 -69.5 8.5t-59.5 26t-42 44t-16 63.5q0 46 26.5 75t68.5 44v2q-71 29 -71 93q0 29 12 51.5t34 38.5t51 24t64 8q70 0 115 -31.5t45 -87.5q0 -69 -71 -95v-2q44 -14 69.5 -43.5t25.5 -73.5q0 -38 -15 -65t-40.5 -45t-58 -26.5t-68.5 -8.5zM214 166
q41 0 62.5 18.5t21.5 48.5t-21.5 48t-62.5 18t-62 -18t-21 -48t21 -48.5t62 -18.5zM214 -57q48 0 75 22t27 60q0 39 -26 62t-76 23q-49 0 -75.5 -23t-26.5 -62t26.5 -60.5t75.5 -21.5z" />
    <glyph glyph-name="nine.dnom" horiz-adv-x="425" 
d="M210 -120q-35 0 -64 10t-50 26.5t-34 39t-16 47.5h80q5 -23 24.5 -41t57.5 -18q49 0 73 34q28 36 33 124h-2q-21 -28 -50 -44t-67 -16q-33 0 -62 12t-50.5 33t-34.5 49.5t-13 62.5t13 63.5t36 51t54.5 33.5t68.5 12q38 0 66.5 -10.5t50.5 -28.5q37 -30 52 -79t15 -121
q0 -63 -13.5 -112.5t-44.5 -80.5q-23 -22 -53 -34.5t-70 -12.5zM208 105q45 0 71 26.5t26 68.5t-27.5 69.5t-69.5 27.5t-68.5 -27t-26.5 -69t26.5 -69t68.5 -27z" />
    <glyph glyph-name="zero.numr" horiz-adv-x="467" 
d="M234 277q-44 0 -80 17t-62 48.5t-40.5 75.5t-14.5 99q0 54 15 98t41.5 75t62.5 48t78 17t78.5 -16.5t62.5 -47t41 -75t15 -99.5t-14.5 -99t-40.5 -75.5t-62 -48.5t-80 -17zM234 341q59 0 87 48t28 128q0 38 -7.5 70t-22 55t-36 36t-49.5 13q-57 0 -86 -48t-29 -126
t29 -127t86 -49z" />
    <glyph glyph-name="one.numr" horiz-adv-x="283" 
d="M141 609h-111v53q47 1 81.5 20t40.5 66h69v-462h-80v323z" />
    <glyph glyph-name="two.numr" horiz-adv-x="394" 
d="M28 286q1 39 14 68.5t32.5 53.5t43.5 42.5t48 34.5q22 15 42.5 27.5t36.5 27t25.5 31t9.5 38.5q0 36 -21.5 57t-58.5 21q-40 0 -62 -26t-23 -69h-77q0 74 45 118t122 44q36 0 65 -11.5t49.5 -31t31.5 -45.5t11 -56q0 -33 -10.5 -57t-28 -42.5t-40 -33t-46.5 -29.5
l-32.5 -19.5t-33.5 -22.5t-28 -25.5t-17 -28.5h235v-66h-333v0z" />
    <glyph glyph-name="three.numr" horiz-adv-x="403" 
d="M203 277q-85 0 -133.5 43t-49.5 115h75q2 -43 27.5 -69t77.5 -26q42 0 67.5 20.5t25.5 62.5q0 37 -25.5 56.5t-73.5 19.5h-29v61h28q42 0 64.5 17.5t22.5 49.5t-22 50t-57 18q-44 0 -66.5 -24.5t-24.5 -62.5h-76q1 32 12.5 59t33 46.5t52.5 30.5t70 11q68 0 111.5 -33.5
t43.5 -92.5q0 -38 -21.5 -61t-59.5 -34v-2q98 -22 98 -115q0 -35 -13.5 -61t-37 -43.5t-54.5 -26.5t-66 -9z" />
    <glyph glyph-name="four.numr" horiz-adv-x="423" 
d="M255 391h-226v79l227 280h76v-298h73v-61h-73v-105h-77v105zM84 448q13 1 25 2q11 1 23 1.5t23 0.5h100v128q0 12 0.5 26.5t2.5 27.5l4 30h-3l-18 -27q-8 -11 -17.5 -24t-17.5 -23l-67 -80q-8 -10 -17.5 -20t-17.5 -19q-10 -11 -20 -21v-2z" />
    <glyph glyph-name="five.numr" horiz-adv-x="403" 
d="M201 277q-75 0 -124 37t-55 97h80q8 -32 32.5 -50.5t64.5 -18.5q42 0 68 26.5t26 68.5q0 46 -27 71t-67 25q-30 0 -52 -11t-36 -27h-73l47 249h263v-67h-210l-23 -121h3q17 19 42 30t57 11q31 0 59.5 -11t50.5 -32t34.5 -50.5t12.5 -66.5q0 -36 -13.5 -65.5t-36.5 -50.5
t-54.5 -32.5t-68.5 -11.5z" />
    <glyph glyph-name="six.numr" horiz-adv-x="425" 
d="M226 276q-45 0 -76.5 14.5t-54.5 38.5q-31 32 -44.5 78t-13.5 109q0 55 11.5 100t37.5 77q24 30 57.5 46t80.5 16q35 0 62 -9.5t46.5 -26t31 -38t15.5 -44.5h-79q-5 20 -22 37.5t-52 17.5q-56 0 -82 -42t-29 -120h2q20 32 49 48t70 16q32 0 60.5 -12t49.5 -33t33.5 -49.5
t12.5 -62.5q0 -35 -12.5 -64t-35 -51t-53 -34t-65.5 -12zM222 340q40 0 66.5 26.5t26.5 69.5q0 42 -26.5 68.5t-66.5 26.5q-44 0 -70.5 -26.5t-26.5 -68.5q0 -43 28 -69.5t69 -26.5z" />
    <glyph glyph-name="seven.numr" horiz-adv-x="370" 
d="M93 286q3 62 19.5 119t42.5 107.5t58.5 92t67.5 71.5v3q-11 -1 -27 -2q-14 -1 -34.5 -1.5t-49.5 -0.5h-148v69h333v-65q-33 -31 -63.5 -72t-54.5 -90.5t-40 -107.5t-19 -123h-85z" />
    <glyph glyph-name="eight.numr" horiz-adv-x="427" 
d="M216 277q-36 0 -69.5 8.5t-59.5 26t-42 44t-16 63.5q0 46 26.5 75t68.5 44v2q-71 29 -71 93q0 29 12 51.5t34 38.5t51 24t64 8q70 0 115 -31.5t45 -87.5q0 -69 -71 -95v-2q44 -14 69.5 -43.5t25.5 -73.5q0 -38 -15 -65t-40.5 -45t-58 -26.5t-68.5 -8.5zM214 562
q41 0 62.5 18.5t21.5 48.5t-21.5 48t-62.5 18t-62 -18t-21 -48t21 -48.5t62 -18.5zM214 339q48 0 75 22t27 60q0 39 -26 62t-76 23q-49 0 -75.5 -23t-26.5 -62t26.5 -60.5t75.5 -21.5z" />
    <glyph glyph-name="nine.numr" horiz-adv-x="425" 
d="M210 276q-35 0 -64 10t-50 26.5t-34 39t-16 47.5h80q5 -23 24.5 -41t57.5 -18q49 0 73 34q28 36 33 124h-2q-21 -28 -50 -44t-67 -16q-33 0 -62 12t-50.5 33t-34.5 49.5t-13 62.5t13 63.5t36 51t54.5 33.5t68.5 12q38 0 66.5 -10.5t50.5 -28.5q37 -30 52 -79t15 -121
q0 -63 -13.5 -112.5t-44.5 -80.5q-23 -22 -53 -34.5t-70 -12.5zM208 501q45 0 71 26.5t26 68.5t-27.5 69.5t-69.5 27.5t-68.5 -27t-26.5 -69t26.5 -69t68.5 -27z" />
    <glyph glyph-name="acute.aalt" 
d="M257 910h114l-89 -125h-78z" />
    <glyph glyph-name="breve.aalt" 
d="M269 780q-55 0 -94 34t-42 94h66q5 -28 21 -43.5t48 -15.5q31 0 49.5 15.5t22.5 43.5h65q-1 -27 -11 -50.5t-28 -40.5t-42.5 -27t-54.5 -10z" />
    <glyph glyph-name="glyph432" 
d="M301 661q0 -51 -28 -76.5t-74 -27.5v44q26 4 37 17t11 37h-46v89h100v-83z" />
    <glyph glyph-name="glyph433" 
d="M300 785h-103l-98 113h96l54 -61h2l56 61h94z" />
    <glyph glyph-name="circumflex.aalt" 
d="M200 898h103l98 -113h-96l-54 61h-2l-56 -61h-94z" />
    <glyph glyph-name="glyph435" 
d="M305 -141q0 -51 -29 -76.5t-80 -27.5v44q55 7 55 52v2h-54v96h108v-90z" />
    <glyph glyph-name="dieresis.aalt" 
d="M304 893h94v-108h-94v108zM102 893h94v-108h-94v108z" />
    <glyph glyph-name="dotaccent.aalt" 
d="M202 893h97v-108h-97v108z" />
    <glyph glyph-name="grave.aalt" 
d="M129 910h114l53 -125h-78z" />
    <glyph glyph-name="hungarumlaut.aalt" 
d="M302 910h97l-59 -125h-69zM155 910h99l-58 -125h-71z" />
    <glyph glyph-name="macron.aalt" 
d="M108 870h285v-75h-285v75z" />
    <glyph glyph-name="ring.aalt" 
d="M250 768q-21 0 -40 8t-33 21.5t-22 32t-8 39.5t8 39t22 31.5t33 21t40 7.5t39.5 -7.5t32.5 -21t22 -31.5t8 -39t-8 -39.5t-22 -32t-32.5 -21.5t-39.5 -8zM250 810q24 0 39.5 16.5t15.5 42.5q0 25 -15.5 41.5t-39.5 16.5q-25 0 -40.5 -16.5t-15.5 -41.5q0 -26 15.5 -42.5
t40.5 -16.5z" />
    <glyph glyph-name="tilde.aalt" 
d="M315 786q-20 0 -37.5 6t-33 13.5t-29 13.5t-23.5 6q-12 0 -19.5 -11.5t-9.5 -26.5h-64q2 52 24 79.5t60 27.5q21 0 37.5 -6t31 -13.5t27.5 -13.5t27 -6q15 0 20.5 11.5t7.5 25.5h64q-2 -50 -21.5 -78t-61.5 -28z" />
    <glyph glyph-name="glyph446" horiz-adv-x="221" 
d="M62 744h97v-108h-97v108zM64 537h93v-537h-93v537z" />
    <glyph glyph-name="glyph449" 
d="M304 -141q0 -51 -29 -76.5t-80 -27.5v44q55 7 55 52v2h-54v96h108v-90z" />
    <glyph glyph-name="glyph450" 
d="M196 726q0 51 29 76.5t80 27.5v-44q-55 -7 -55 -52v-2h54v-96h-108v90z" />
    <glyph glyph-name="R.aalt" horiz-adv-x="690" 
d="M381 307h-201v-307h-103v744h335q60 0 105 -18.5t74 -53.5q25 -29 39 -65t14 -80q0 -79 -42.5 -134.5t-117.5 -75.5l182 -317h-116zM180 390h212q150 0 150 133q0 132 -145 132h-217v-265z" />
    <glyph glyph-name="Racute.aalt" horiz-adv-x="690" 
d="M381 307h-201v-307h-103v744h335q60 0 105 -18.5t74 -53.5q25 -29 39 -65t14 -80q0 -79 -42.5 -134.5t-117.5 -75.5l182 -317h-116zM180 390h212q150 0 150 133q0 132 -145 132h-217v-265zM357 910h114l-89 -125h-78z" />
    <glyph glyph-name="Rcaron.aalt" horiz-adv-x="690" 
d="M381 307h-201v-307h-103v744h335q60 0 105 -18.5t74 -53.5q25 -29 39 -65t14 -80q0 -79 -42.5 -134.5t-117.5 -75.5l182 -317h-116zM180 390h212q150 0 150 133q0 132 -145 132h-217v-265zM397 785h-103l-98 113h96l54 -61h2l56 61h94z" />
    <glyph glyph-name="uni0156.aalt" horiz-adv-x="690" 
d="M381 307h-201v-307h-103v744h335q60 0 105 -18.5t74 -53.5q25 -29 39 -65t14 -80q0 -79 -42.5 -134.5t-117.5 -75.5l182 -317h-116zM180 390h212q150 0 150 133q0 132 -145 132h-217v-265zM401 -141q0 -51 -29 -76.5t-80 -27.5v44q55 7 55 52v2h-54v96h108v-90z" />
    <glyph glyph-name="Ccedilla.aalt" horiz-adv-x="756" 
d="M334 -86v77q-66 11 -118.5 43.5t-89.5 82.5t-57 115t-20 140q0 82 24 153t69.5 123t111 82t148.5 30q66 0 117.5 -17.5t89.5 -48.5q40 -32 63.5 -76.5t31.5 -98.5h-102q-13 69 -64.5 110.5t-137.5 41.5q-59 0 -105 -22.5t-77.5 -62.5t-48 -95t-16.5 -119q0 -67 17.5 -122
t50 -94t78.5 -60.5t102 -21.5q51 0 88.5 16t63 43t40 62.5t17.5 75.5h102q0 -28 -6.5 -56.5t-18.5 -55.5t-28 -51.5t-36 -43.5q-66 -66 -181 -77v-67q0 -51 -29 -76.5t-80 -27.5v44q55 7 55 52v2h-54z" />
    <glyph glyph-name="Scedilla.aalt" horiz-adv-x="672" 
d="M627 205q0 -48 -17 -86t-47.5 -65.5t-73.5 -44t-94 -21.5v-68q0 -51 -29 -76.5t-80 -27.5v44q55 7 55 52v2h-54v75q-62 8 -109 30.5t-78.5 56t-48.5 75.5t-20 90h101q9 -85 64 -129.5t157 -44.5q37 0 68.5 8.5t54 25t35.5 41.5t13 59q0 36 -15.5 60t-44 40t-68 27
t-88.5 22q-50 10 -94.5 24t-78.5 37.5t-53.5 58.5t-19.5 89q0 47 19 84t53 62.5t81.5 39t104.5 13.5q69 0 119 -16.5t84.5 -45.5t53.5 -69t26 -88h-99q-10 68 -57 103.5t-126 35.5q-74 0 -118 -29t-44 -85q0 -30 14.5 -50.5t40 -34.5t61 -23.5t77.5 -18.5q54 -11 103.5 -25
t88 -39.5t61 -65.5t22.5 -102z" />
    <glyph glyph-name="ccedilla.aalt" horiz-adv-x="560" 
d="M240 -86v77q-48 9 -86 34t-64.5 62t-40.5 83t-14 98q0 58 18.5 109.5t52.5 90t82.5 60.5t108.5 22q97 0 157.5 -50.5t74.5 -137.5h-93q-10 53 -45 83t-94 30q-41 0 -72.5 -16t-52.5 -44t-31.5 -66t-10.5 -81q0 -44 10.5 -81.5t31.5 -65.5t52.5 -44t72.5 -16
q63 0 99.5 34.5t41.5 94.5h92q-8 -84 -55 -136t-127 -65v-69q0 -51 -29 -76.5t-80 -27.5v44q55 7 55 52v2h-54z" />
    <glyph glyph-name="scedilla.aalt" horiz-adv-x="522" 
d="M214 -86v74q-85 11 -132 57t-52 118h94q4 -29 17 -49t32.5 -32t44.5 -17.5t54 -5.5q64 0 92.5 24.5t28.5 60.5q0 44 -34.5 61.5t-105.5 31.5q-39 8 -75.5 18t-64 27t-44 45t-16.5 72q0 69 51.5 109.5t145.5 40.5q101 0 153 -43t61 -113h-93q-6 42 -35.5 64t-87.5 22
q-55 0 -79.5 -22t-24.5 -53q0 -21 9.5 -34.5t28 -22.5t45 -15t60.5 -13q40 -8 76 -18t63.5 -28t43.5 -47.5t16 -76.5q0 -71 -45 -111t-119 -50v-68q0 -51 -29 -76.5t-80 -27.5v44q55 7 55 52v2h-54z" />
    <glyph glyph-name="hyphen.aalt" horiz-adv-x="394" 
d="M47 378h300v-96h-300v96z" />
    <glyph glyph-name="endash.aalt" 
d="M0 370h500v-80h-500v80z" />
    <glyph glyph-name="emdash.aalt" horiz-adv-x="1000" 
d="M200 370h600v-80h-600v80z" />
    <glyph glyph-name="questiondown.aalt" horiz-adv-x="547" 
d="M343 634h-109v110h109v-110zM331 528q0 -38 -6 -66t-19 -52t-33 -45.5t-48 -46.5q-17 -15 -33 -29.5t-28 -30t-19.5 -34.5t-7.5 -43q0 -48 34 -80t97 -32q39 0 68 12t48.5 33.5t30 50.5t12.5 63h93q-1 -45 -16.5 -88.5t-46.5 -77.5t-78 -54.5t-112 -20.5q-53 0 -95.5 15
t-72 40.5t-45 60.5t-15.5 76q0 31 7.5 55.5t20.5 44.5t30 37t35 32q33 27 54 46.5t34 37.5q14 19 19 41t6 55h86z" />
    <glyph glyph-name="exclamdown.aalt" horiz-adv-x="264" 
d="M183 233v-233h-101v233l25 295h51zM187 634h-109v110h109v-110z" />
    <glyph glyph-name="parenleft.aalt" horiz-adv-x="338" 
d="M238 -94q-34 48 -63 100t-50 109.5t-33 122t-12 137.5q0 68 12.5 130t34.5 117.5t50.5 103.5t60.5 89h75q-55 -88 -90.5 -198.5t-35.5 -241.5q0 -69 8.5 -131.5t24.5 -119.5t39.5 -111t53.5 -107h-75v0z" />
    <glyph glyph-name="parenright.aalt" horiz-adv-x="338" 
d="M25 -94q31 53 54.5 107t40 111t25 119.5t8.5 131.5q0 131 -35.5 241.5t-92.5 198.5h77q31 -41 59.5 -89t50 -103.5t34 -117.5t12.5 -130q0 -73 -12 -137.5t-33 -122t-49.5 -109.5t-61.5 -100h-77v0z" />
    <glyph glyph-name="bracketleft.aalt" horiz-adv-x="356" 
d="M87 815h228v-74h-134v-757h134v-78h-228v909z" />
    <glyph glyph-name="bracketright.aalt" horiz-adv-x="356" 
d="M40 -16h133v757h-133v74h229v-909h-229v78z" />
    <glyph glyph-name="braceleft.aalt" horiz-adv-x="338" 
d="M284 -94q-82 0 -125.5 38t-43.5 133v179q0 35 -18.5 52t-63.5 19v75q45 2 63.5 18.5t18.5 51.5v175q0 48 11 80t32.5 51.5t53 28t72.5 8.5h31v-74h-28q-41 0 -59 -19.5t-18 -75.5v-181q0 -82 -61 -99v-3q61 -20 61 -99v-186q0 -28 4.5 -46t13.5 -28.5t23.5 -15t35.5 -4.5
h28v-78h-31v0z" />
    <glyph glyph-name="braceright.aalt" horiz-adv-x="338" 
d="M40 -16h18q20 0 34.5 4t24 14t14 27.5t4.5 45.5v186q0 42 14.5 65t46.5 34v3q-32 10 -46.5 33.5t-14.5 65.5v182q0 56 -18 76.5t-59 20.5h-18v74h20q41 0 72.5 -9t53 -29t32.5 -52.5t11 -79.5v-175q0 -35 15.5 -52t59.5 -19v-76q-42 -2 -58.5 -18.5t-16.5 -51.5v-178
q0 -48 -11 -80.5t-32.5 -52t-53 -28t-72.5 -8.5h-20v78z" />
    <glyph glyph-name="guillemotleft.aalt" horiz-adv-x="515" 
d="M287 284v97l149 150v-108l-91 -89v-2l91 -90v-108zM79 284v97l150 150v-108l-92 -89v-2l92 -90v-108z" />
    <glyph glyph-name="guillemotright.aalt" horiz-adv-x="515" 
d="M79 134v108l91 90v2l-91 89v108l149 -150v-97zM286 134v108l92 90v2l-92 89v108l150 -150v-97z" />
    <glyph glyph-name="guilsinglleft.aalt" horiz-adv-x="322" 
d="M79 283v98l164 151v-109l-103 -89v-2l103 -91v-108z" />
    <glyph glyph-name="guilsinglright.aalt" horiz-adv-x="322" 
d="M243 381v-98l-164 -150v108l103 90v2l-103 91v108z" />
    <glyph glyph-name="registered.aalt" horiz-adv-x="863" 
d="M431 -18q-80 0 -149.5 29t-120.5 81t-80.5 123t-29.5 154q0 84 29.5 155t80.5 122.5t120.5 81t149.5 29.5t150 -29.5t121.5 -81t81 -122.5t29.5 -155q0 -83 -29.5 -154t-81 -123t-121.5 -81t-150 -29zM431 24q71 0 132 26t105.5 72t69.5 109.5t25 137.5q0 75 -25 138.5
t-69.5 110t-105.5 72.5t-132 26t-131.5 -26t-105 -72.5t-70 -110t-25.5 -138.5q0 -74 25.5 -137.5t70 -109.5t105 -72t131.5 -26zM272 584h199q60 0 98.5 -31.5t38.5 -87.5q0 -38 -18.5 -64.5t-60.5 -39.5v-2q35 -10 49 -31t18 -61q5 -47 8 -71t11 -29v-6h-80q-7 5 -9 30
t-7 67q-3 38 -21.5 54.5t-57.5 16.5h-89v-168h-79v423zM351 389h102q38 0 56.5 18t18.5 47q0 32 -17 49t-55 17h-105v-131z" />
    <glyph glyph-name="dollar.case" horiz-adv-x="668" 
d="M306 -5q-70 4 -120 26t-82.5 55t-49 74t-18.5 85h98q7 -68 47.5 -110.5t124.5 -50.5v273q-51 11 -94.5 25t-75 37t-49.5 57.5t-18 86.5q0 46 17.5 82.5t48.5 62.5t74.5 41t96.5 18v76h62v-76q109 -8 166 -59t69 -136h-96q-7 50 -42 79.5t-97 37.5v-254q54 -11 100 -24.5
t79.5 -37t53 -60t19.5 -91.5q0 -49 -19.5 -88t-53.5 -67t-80 -44t-99 -19v-109h-62v110zM522 208q0 29 -10 48.5t-29.5 33.5t-48.5 24t-66 19v-260q31 3 59 13t49 27t33.5 41t12.5 54zM163 558q0 -51 35 -77t108 -43v242q-65 -5 -104 -36.5t-39 -85.5z" />
    <glyph glyph-name="Euro.case" horiz-adv-x="686" 
d="M32 472h69q11 66 36.5 119.5t63 91.5t86 58.5t104.5 20.5q52 0 95.5 -16t75.5 -44.5t52.5 -68t26.5 -85.5h-97q-13 60 -51.5 94.5t-102.5 34.5q-79 0 -125 -54.5t-60 -150.5h213v-59h-219q-1 -11 -1 -21v-21v-21.5t1 -21.5h219v-59h-212q17 -98 66 -149t126 -51
q72 0 112.5 47t48.5 119h92q-2 -52 -20.5 -97.5t-51 -79.5t-78.5 -54t-102 -20t-105 19t-88 56t-66 89.5t-39 120.5h-69v59h62q-1 11 -1 21.5v21.5v21t1 21h-62v59z" />
    <glyph glyph-name="sterling.case" horiz-adv-x="621" 
d="M51 399h65q-14 35 -24.5 71t-10.5 78q0 46 17.5 85t50 67.5t78.5 44.5t104 16q49 0 93 -14t78 -44q35 -29 55.5 -75.5t21.5 -111.5h-97q-1 43 -13 74t-32.5 50.5t-48 28.5t-59.5 9q-71 0 -108 -35t-37 -97q0 -38 11.5 -73.5t25.5 -73.5h153v-73h-133q3 -15 5 -30t2 -31
q0 -55 -25.5 -94t-74.5 -78l3 -3q30 16 50 21.5t48 5.5q29 0 52.5 -7t44.5 -15t41 -15t44 -7q34 0 61.5 15.5t51.5 36.5l54 -71q-34 -29 -76 -48t-94 -19q-37 0 -64.5 9t-52 19.5t-49.5 19.5t-57 9t-58.5 -15t-49.5 -32l-55 77q23 17 44 34.5t36.5 38t24.5 46t9 57.5
q0 20 -3.5 38.5t-9.5 37.5h-92v73z" />
    <glyph glyph-name="yen.case" horiz-adv-x="636" 
d="M79 353h178l-235 391h111l93 -167q14 -26 31 -59t31 -62q17 -34 34 -69h2q17 35 34 69q14 29 31 62t32 59l92 167h107l-234 -391h181v-59h-195v-85h195v-59h-195v-150h-98v150h-195v59h195v85h-195v59z" />
    <glyph glyph-name="zero.case" horiz-adv-x="695" 
d="M348 -17q-69 0 -123.5 27.5t-92.5 78.5t-58 123t-20 161q0 90 21 162t59.5 122.5t93 77.5t121.5 27t121 -26.5t92 -77t59 -122.5t21 -163q0 -89 -20 -161t-57.5 -123t-92 -78.5t-124.5 -27.5zM349 68q97 0 143 81.5t46 223.5q0 70 -12 126t-35.5 96t-59 61.5t-82.5 21.5
q-48 0 -84 -21t-59.5 -61t-35.5 -96.5t-12 -126.5t12 -126.5t35.5 -96t59.5 -61t84 -21.5z" />
    <glyph glyph-name="one.case" horiz-adv-x="411" 
d="M217 537h-172v66q35 1 68 8.5t59.5 24.5t44.5 44.5t23 68.5h77v-749h-100v537z" />
    <glyph glyph-name="two.case" horiz-adv-x="625" 
d="M42 0q3 68 24 117.5t55 87.5q43 47 96.5 81t107.5 66q35 20 63 38t47 38.5t29 44.5t10 57q0 67 -41.5 107.5t-113.5 40.5q-74 0 -115 -46q-22 -23 -32 -54.5t-10 -79.5h-102q0 63 18 109t52 81q35 36 86 54.5t111 18.5q57 0 103 -17t79 -48t50.5 -73t17.5 -91
q0 -52 -16 -89t-44 -65t-65.5 -50.5t-80.5 -46.5q-29 -18 -61.5 -37.5t-62 -43t-52.5 -50.5t-32 -58h400v-92h-521v0z" />
    <glyph glyph-name="three.case" horiz-adv-x="640" 
d="M327 -17q-63 0 -116.5 17t-93.5 50q-41 33 -64 81t-24 110h96q3 -83 55.5 -129.5t143.5 -46.5q37 0 68.5 9.5t54 28.5t35 47.5t12.5 66.5q0 69 -49 104.5t-140 35.5h-47v77h46q85 0 127 33t42 91q0 30 -12.5 53t-33.5 39.5t-49.5 25t-60.5 8.5q-40 0 -71 -12t-52.5 -33.5
t-33 -51t-11.5 -65.5h-96q0 53 18.5 97t53 76t84 49.5t111.5 17.5q52 0 97.5 -14t79.5 -40t53.5 -64.5t19.5 -86.5q0 -63 -34.5 -100.5t-89.5 -55.5v-3q78 -20 114 -68.5t36 -120.5q0 -54 -20.5 -96.5t-57 -71t-85.5 -43.5t-106 -15z" />
    <glyph glyph-name="four.case" horiz-adv-x="650" 
d="M404 181h-360v89l376 482h81v-494h122v-77h-122v-181h-97v181zM124 254q20 1 39 2q17 1 36 1.5t36 0.5h169v255q0 15 0.5 34t2.5 36q1 19 3 40h-2q-10 -17 -21 -34q-10 -15 -21.5 -32t-22.5 -31l-139 -178q-11 -14 -25 -30t-26 -30q-14 -16 -29 -32v-2z" />
    <glyph glyph-name="five.case" horiz-adv-x="616" 
d="M303 -16q-59 0 -107 16.5t-83 46t-55.5 69t-24.5 84.5h98q12 -58 53 -94t118 -36q78 0 123.5 47.5t45.5 128.5q0 40 -12.5 72t-34.5 54.5t-51.5 34t-62.5 11.5q-63 0 -103 -21t-62 -49h-94l81 396h396v-87h-326l-49 -222h2q32 32 74 49.5t99 17.5q47 0 91 -17.5
t78.5 -50.5t55 -81t20.5 -110q0 -60 -20.5 -107.5t-56.5 -81.5t-85.5 -52t-107.5 -18z" />
    <glyph glyph-name="six.case" horiz-adv-x="653" 
d="M349 -17q-63 0 -109 19t-80 51q-59 53 -82 131.5t-23 191.5q0 88 18.5 159t56.5 122q37 51 91 78t126 27q56 0 98 -17t71 -44.5t45.5 -61.5t21.5 -68h-97q-3 19 -12.5 38.5t-27 35.5t-42 25.5t-55.5 9.5q-53 0 -90 -21t-61 -60.5t-35.5 -96.5t-13.5 -130h2q38 62 88 90
t117 28q51 0 96 -20t79 -54t53.5 -79.5t19.5 -97.5q0 -53 -19.5 -99.5t-54 -81.5t-81.5 -55t-100 -20zM347 63q35 0 65.5 12.5t52.5 35.5t34.5 54.5t12.5 70.5t-13 71t-35.5 55t-53 35.5t-66.5 12.5q-39 0 -71.5 -12.5t-56 -35t-36 -54.5t-12.5 -71t14 -71t38 -55
t56.5 -35.5t70.5 -12.5z" />
    <glyph glyph-name="seven.case" horiz-adv-x="579" 
d="M139 0q6 98 33.5 194t70.5 182t99 159t119 124v2q-18 -1 -39 -2q-18 -1 -43 -1.5t-54 -0.5h-292v87h524v-79q-57 -50 -110.5 -119t-97 -154t-71.5 -183.5t-34 -208.5h-105v0z" />
    <glyph glyph-name="eight.case" horiz-adv-x="655" 
d="M331 -17q-53 0 -104.5 12.5t-92.5 40t-66 71.5t-25 106q0 40 12.5 71.5t34 55.5t51.5 40.5t66 26.5v3q-61 18 -93.5 58.5t-32.5 97.5q0 45 19 81.5t52 62t78 39.5t98 14q52 0 97.5 -14t79 -39.5t52.5 -61.5t19 -81q0 -57 -32.5 -97.5t-92.5 -59.5v-3q72 -19 116 -69
t44 -125q0 -63 -24 -106.5t-63 -71t-89.5 -40t-103.5 -12.5zM328 444q70 0 111 31.5t41 87.5q0 57 -41 88t-111 31q-71 0 -111 -31t-40 -88q0 -56 40 -87.5t111 -31.5zM331 65q85 0 133.5 39t48.5 110t-48.5 113t-136.5 42q-87 0 -135 -42t-48 -113q0 -72 49 -110.5
t137 -38.5z" />
    <glyph glyph-name="nine.case" horiz-adv-x="653" 
d="M319 -17q-56 0 -101.5 16t-79.5 43.5t-54 64t-23 77.5h99q3 -24 14.5 -45.5t31 -38t47.5 -26t64 -9.5q80 0 124 50q32 35 48 95.5t19 149.5h-2q-36 -49 -88 -77t-118 -28q-52 0 -97.5 20t-79 54t-53.5 80t-20 98q0 53 19.5 99.5t55 81t84 54.5t105.5 20q56 0 99 -16
t76 -42q64 -48 88 -129.5t24 -204.5q0 -112 -24 -193.5t-79 -130.5q-68 -63 -179 -63zM313 334q41 0 74 13t56.5 36t36 55.5t12.5 70.5q0 39 -14 70.5t-38 54.5t-56.5 35.5t-69.5 12.5q-38 0 -69.5 -12.5t-54 -35.5t-35 -54.5t-12.5 -70.5q0 -38 13 -70.5t36 -55.5t54 -36
t67 -13z" />
    <glyph glyph-name="percent.case" horiz-adv-x="936" 
d="M642 744h76l-425 -744h-76zM216 330q-39 0 -71.5 15.5t-56 43.5t-36.5 68t-13 90q0 49 13.5 89t37.5 68t56 43t70 15t70.5 -15t56 -42.5t37 -67.5t13.5 -90t-13 -90t-36 -68t-55.5 -43.5t-72.5 -15.5zM720 -16q-40 0 -72.5 15.5t-56 43.5t-36 68t-12.5 89t13.5 89t37 68
t56 43t70.5 15t70.5 -15t56 -42.5t36.5 -67.5t13 -90q0 -49 -12.5 -89t-36 -68t-56 -43.5t-71.5 -15.5zM216 399q47 0 69.5 41.5t22.5 106.5q0 31 -6 58t-18 47t-29 31.5t-39 11.5t-39 -11.5t-28.5 -31t-17.5 -47t-6 -58.5q0 -32 6 -59t17.5 -46.5t28.5 -31t39 -11.5z
M720 52q46 0 68.5 41.5t22.5 106.5q0 31 -6 58t-17.5 47t-28.5 31.5t-39 11.5q-45 0 -68 -42t-23 -106q0 -63 23 -105.5t68 -42.5z" />
    <glyph glyph-name="perthousand.case" horiz-adv-x="1343" 
d="M636 744h76l-425 -744h-76zM216 330q-39 0 -71.5 15.5t-56 43.5t-36.5 68t-13 90q0 49 13.5 89t37.5 68t56 43t70 15t70.5 -15t56 -42.5t37 -67.5t13.5 -90t-13 -90t-36 -68t-55.5 -43.5t-72.5 -15.5zM708 -16q-40 0 -72.5 15.5t-56 43.5t-36 68t-12.5 89t13.5 89t37 68
t56 43t70.5 15t70.5 -15t56 -42.5t36.5 -67.5t13 -90q0 -49 -12.5 -89t-36 -68t-56 -43.5t-71.5 -15.5zM216 399q47 0 69.5 41.5t22.5 106.5q0 31 -6 58t-18 47t-29 31.5t-39 11.5t-39 -11.5t-28.5 -31t-17.5 -47t-6 -58.5q0 -32 6 -59t17.5 -46.5t28.5 -31t39 -11.5z
M708 52q46 0 68.5 41.5t22.5 106.5q0 31 -6 58t-17.5 47t-28.5 31.5t-39 11.5q-45 0 -68 -42t-23 -106q0 -63 23 -105.5t68 -42.5zM1128 -16q-40 0 -72.5 15.5t-56 43.5t-36.5 68t-13 89t13.5 89t37.5 68t56.5 43t70.5 15t70 -15t55.5 -42.5t37 -67.5t13.5 -90
q0 -49 -12.5 -89t-36 -68t-56 -43.5t-71.5 -15.5zM1128 52q46 0 69 41.5t23 106.5q0 31 -6 58t-18 47t-29 31.5t-39 11.5q-45 0 -68 -42t-23 -106q0 -63 23 -105.5t68 -42.5z" />
    <glyph glyph-name="dollar.tnum" horiz-adv-x="650" 
d="M298 -5q-67 4 -115 25t-79 52.5t-47 71t-18 81.5h96q7 -65 45 -105.5t118 -48.5v260q-49 11 -90.5 24.5t-72 35t-47.5 55t-17 83.5q0 44 16.5 79.5t46.5 60t71.5 39t92.5 16.5v73h59v-73q105 -8 160 -57t66 -130h-94q-6 48 -39.5 76.5t-92.5 35.5v-241q51 -11 95.5 -24.5
t77 -36t51 -57t18.5 -87.5q0 -47 -18.5 -84.5t-51 -64t-77 -42t-95.5 -18.5v-104h-59v105zM504 199q0 27 -9.5 46t-28.5 32t-46 22t-63 18v-246q30 3 56.5 12.5t47 26t32 39t11.5 50.5zM162 534q0 -48 33 -73t103 -41v230q-61 -5 -98.5 -34.5t-37.5 -81.5z" />
    <glyph glyph-name="Euro.tnum" horiz-adv-x="650" 
d="M28 452h66q11 63 35.5 114t60.5 87.5t81.5 56t99.5 19.5q51 0 92.5 -15.5t72 -43t50 -65t25.5 -82.5h-94q-12 58 -48.5 91t-98.5 33q-75 0 -118.5 -52t-57.5 -143h203v-57h-209q-1 -10 -1 -20v-20v-21t1 -20h209v-57h-202q16 -94 63 -142t120 -48q69 0 107 45t46 114h90
q-2 -50 -19.5 -94t-49 -76.5t-75.5 -51.5t-98 -19t-101 18t-84 53t-63 85.5t-37 115.5h-66v57h59q-1 10 -1 20v21v20t1 20h-59v57z" />
    <glyph glyph-name="sterling.tnum" horiz-adv-x="650" 
d="M77 382h62q-14 33 -24 67.5t-10 74.5q0 44 16.5 81.5t47.5 64.5t75.5 42.5t100.5 15.5q47 0 89.5 -13t74.5 -42q33 -29 53 -73t21 -106h-95q-1 41 -12 70.5t-30.5 48t-46 27t-56.5 8.5q-67 0 -102.5 -33.5t-35.5 -92.5q0 -35 11 -69.5t24 -70.5h147v-70h-127l4 -28t2 -29
q0 -53 -24 -90t-71 -75l2 -3q29 15 48.5 20.5t46.5 5.5q28 0 50 -6.5t42 -14t39 -14t42 -6.5q32 0 58.5 14.5t49.5 34.5l52 -69q-32 -28 -72 -46t-90 -18q-36 0 -62.5 8.5t-50 18.5t-47.5 18.5t-54 8.5q-31 0 -56 -14.5t-47 -30.5l-54 75q22 16 42 33t35 36.5t23.5 43.5
t8.5 54q0 19 -3.5 37t-8.5 36h-88v70z" />
    <glyph glyph-name="yen.tnum" horiz-adv-x="650" 
d="M96 338h170l-225 374h108l88 -159q14 -25 30 -56t30 -59q16 -33 32 -67h2q16 34 32 67q14 28 30 59t30 56l88 159h104l-223 -374h172v-57h-186v-81h186v-57h-186v-143h-96v143h-186v57h186v81h-186v57z" />
    <glyph glyph-name="cent.aalt" horiz-adv-x="650" 
d="M310 -13q-54 6 -96.5 30t-72 61.5t-45.5 86t-16 103.5q0 54 16 102.5t46 86t72.5 62t95.5 30.5v86h59v-85q86 -8 139 -58t67 -130h-93q-9 46 -37.5 75.5t-75.5 36.5v-411q51 7 80.5 40t34.5 87h91q-8 -91 -61.5 -143.5t-144.5 -60.5v-105h-59v106zM174 268
q0 -39 8.5 -73.5t25.5 -62t42.5 -45.5t59.5 -24v410q-34 -6 -59.5 -24t-42.5 -45.5t-25.5 -62t-8.5 -73.5z" />
    <glyph glyph-name="florin.aalt" horiz-adv-x="650" 
d="M150 423h116l25 173q8 58 37 89q27 29 70.5 38t103.5 1v-76q-61 5 -87.5 -8t-32.5 -56l-23 -161h128v-70h-138l-54 -385q-9 -63 -40 -94q-23 -23 -58.5 -29t-84.5 0v74q37 -3 60 6.5t29 49.5l55 378h-106v70z" />
    <glyph glyph-name="currency.aalt" horiz-adv-x="650" 
d="M325 222q57 0 88 40.5t31 102.5q0 30 -8 56.5t-23 46t-37.5 30.5t-50.5 11q-29 0 -51 -11t-37.5 -30.5t-23.5 -46t-8 -56.5q0 -31 8 -57t23.5 -45t37.5 -30t51 -11zM91 168l69 71q-38 55 -38 126t38 124l-69 71l45 43l67 -69q24 18 54.5 29t67.5 11q36 0 67 -11t55 -29
l67 69l45 -43l-69 -71q37 -54 37 -124q0 -35 -10 -67t-28 -58l70 -72l-45 -43l-68 69q-49 -37 -121 -37t-121 37l-68 -69z" />
    <glyph glyph-name="zero.tnum" horiz-adv-x="650" 
d="M325 -16q-64 0 -114 26.5t-84.5 75t-52.5 117.5t-18 154q0 86 19 155t54 117t85 74t112 26t111.5 -25.5t84 -73.5t53 -117t18.5 -156q0 -85 -17.5 -154t-51.5 -117.5t-84 -75t-115 -26.5zM326 66q45 0 76.5 20t52 58t29.5 91.5t9 121.5q0 66 -9.5 120t-30 92t-52 58.5
t-75.5 20.5t-76.5 -20.5t-53.5 -58t-31 -91.5t-10 -121q0 -66 10 -120t31 -92t53.5 -58.5t76.5 -20.5z" />
    <glyph glyph-name="one.tnum" horiz-adv-x="650" 
d="M326 503h-195v64q105 2 156.5 39.5t60.5 110.5h75v-717h-97v503z" />
    <glyph glyph-name="two.tnum" horiz-adv-x="650" 
d="M66 0q3 65 23.5 112t52.5 84q41 45 93 78t103 64q33 19 59.5 36.5t44.5 36.5t27.5 42t9.5 54q0 63 -39.5 102t-108.5 39q-70 0 -109 -44q-21 -22 -30.5 -52.5t-9.5 -75.5h-99q0 60 17 104t49 77q33 35 82 53t108 18q55 0 99 -16.5t75.5 -46t48.5 -69.5t17 -87
q0 -50 -15.5 -84.5t-41.5 -61.5t-61.5 -48.5t-75.5 -44.5q-28 -17 -58.5 -35.5t-58.5 -40t-50 -45.5t-32 -52l-2 -8h382v-89h-500v0z" />
    <glyph glyph-name="three.tnum" horiz-adv-x="650" 
d="M332 -16q-60 0 -111.5 16t-89.5 48q-39 32 -61 77.5t-23 105.5h94q2 -79 51.5 -123.5t136.5 -44.5q72 0 116 36t44 109q0 66 -45.5 99.5t-132.5 33.5h-45v74h44q80 0 119.5 31.5t39.5 87.5q0 28 -11.5 50.5t-31 38t-46.5 23.5t-58 8q-38 0 -67 -11.5t-49.5 -32t-31.5 -49
t-11 -61.5h-93q0 50 17.5 92t50.5 72.5t80 47.5t107 17q50 0 93.5 -13.5t75.5 -38.5t50.5 -61.5t18.5 -82.5q0 -60 -32.5 -96t-85.5 -53v-3q75 -20 109 -66t34 -115q0 -52 -19.5 -92.5t-54 -68t-81.5 -41.5t-101 -14z" />
    <glyph glyph-name="four.tnum" horiz-adv-x="650" 
d="M405 173h-345v86l360 461h79v-472h103v-75h-103v-173h-94v173zM138 244q20 1 38 2q16 1 34 1.5t34 0.5h161v242q0 14 0.5 32t1.5 35q1 18 3 38h-2q-9 -16 -20 -33q-9 -14 -20 -30t-22 -30l-132 -168q-11 -14 -24.5 -28.5t-24.5 -28.5q-14 -16 -27 -31v-2z" />
    <glyph glyph-name="five.tnum" horiz-adv-x="650" 
d="M321 -15q-56 0 -102.5 16t-80 44t-53.5 65.5t-23 80.5h95q11 -54 50 -88.5t112 -34.5q75 0 118.5 45.5t43.5 121.5q0 39 -12 69.5t-33 51.5t-49 32t-60 11q-60 0 -98 -20t-58 -46h-92l77 379h380v-84h-312l-46 -212h2q30 31 70 47.5t95 16.5q45 0 87 -16.5t75 -48
t52.5 -77.5t19.5 -105q0 -57 -19.5 -103t-54 -78.5t-82 -49.5t-102.5 -17z" />
    <glyph glyph-name="six.tnum" horiz-adv-x="650" 
d="M346 -16q-60 0 -105 18t-77 50q-56 51 -77.5 125.5t-21.5 182.5q0 84 18 152t53 117q35 48 87 74t121 26q54 0 94 -16t68 -42.5t44 -59t21 -65.5h-95q-3 18 -12 36.5t-25.5 33.5t-39.5 24.5t-53 9.5q-50 0 -85.5 -20t-58 -57.5t-33.5 -92t-13 -123.5h2q35 59 83 85.5
t113 26.5q49 0 92 -19t75 -51.5t51 -76t19 -93.5q0 -51 -19 -95.5t-52 -77.5t-78 -52.5t-96 -19.5zM344 61q34 0 62.5 12t49.5 33.5t33 52t12 67.5t-12 67t-33.5 52t-51 34t-63.5 12q-75 0 -121 -44.5t-46 -119.5q0 -37 13 -67.5t36 -52.5t54 -34t67 -12z" />
    <glyph glyph-name="seven.tnum" horiz-adv-x="650" 
d="M181 0q6 94 31.5 185.5t65.5 174t92.5 151.5t111.5 118v2q-17 -1 -37 -2q-17 -1 -41.5 -1.5t-52.5 -0.5h-268v85h492v-77q-53 -48 -103 -114t-90.5 -147t-67 -175t-31.5 -199h-102v0z" />
    <glyph glyph-name="eight.tnum" horiz-adv-x="650" 
d="M328 -16q-48 0 -96 12t-86.5 38.5t-62 68.5t-23.5 101q0 76 42 121t111 64v3q-58 17 -89 56t-31 94q0 43 18.5 77.5t50 59t73.5 38t90 13.5t90 -13t73.5 -37.5t50 -59t18.5 -77.5q0 -55 -31 -94t-88 -57v-3q69 -17 109 -65t40 -120q0 -60 -22.5 -101.5t-59 -68t-83 -38.5
t-94.5 -12zM325 425q63 0 100.5 30t37.5 84t-37.5 83.5t-100.5 29.5t-101 -29.5t-38 -83.5t38 -84t101 -30zM328 63q77 0 120 37.5t43 104.5q0 68 -43.5 107.5t-122.5 39.5q-78 0 -122 -39.5t-44 -107.5t44.5 -105t124.5 -37z" />
    <glyph glyph-name="nine.tnum" horiz-adv-x="650" 
d="M317 -16q-53 0 -97 15t-76 41.5t-51.5 61.5t-22.5 74h97q3 -22 14 -42.5t29.5 -36t44.5 -25t60 -9.5q77 0 119 48q31 34 45.5 91t17.5 142h-2q-35 -48 -84 -74.5t-112 -26.5q-50 0 -93 19t-75.5 52t-51.5 77t-19 94q0 51 19 95.5t52.5 77.5t80 52t101.5 19q54 0 95 -15.5
t73 -39.5q61 -47 84 -124.5t23 -195.5q0 -107 -23 -184.5t-75 -124.5q-66 -61 -173 -61zM312 321q39 0 70.5 12t53.5 34t34 52.5t12 67.5t-13 67t-36 52t-54 34t-66 12q-36 0 -66 -12t-51.5 -34t-33.5 -52t-12 -67q0 -36 12.5 -66.5t34.5 -52.5t51.5 -34.5t63.5 -12.5z" />
    <glyph glyph-name="percent.tnum" horiz-adv-x="900" 
d="M215 316q-38 0 -69 14.5t-53.5 41.5t-35 65.5t-12.5 85.5t13 85t36 65t54 41.5t67 14.5q37 0 68 -14t53.5 -41t35.5 -65t13 -86q0 -47 -12.5 -85.5t-35 -65.5t-53.5 -41.5t-69 -14.5zM617 712h73l-406 -712h-74zM685 -15q-38 0 -69 14.5t-53.5 41.5t-35 65t-12.5 85
q0 48 13 86t36 64.5t54 41t67 14.5q37 0 68 -14t53.5 -40.5t35.5 -65t13 -86.5q0 -47 -12.5 -85t-35 -65t-53.5 -41.5t-69 -14.5zM215 382q45 0 66.5 39.5t21.5 101.5q0 30 -6 55.5t-17 44.5t-27.5 30t-37.5 11q-42 0 -64 -40t-22 -101q0 -60 22 -100.5t64 -40.5zM685 51
q45 0 66 39t21 101q0 60 -22.5 101t-64.5 41t-64 -40t-22 -102q0 -60 22 -100t64 -40z" />
    <glyph glyph-name="perthousand.tnum" horiz-adv-x="1200" 
d="M583 712h73l-406 -712h-73zM995 -15q-36 0 -65.5 14.5t-50.5 41.5t-32.5 65t-11.5 85q0 48 12 86t33.5 64.5t50.5 41t64 14.5t64.5 -14t50.5 -40.5t33 -65t12 -86.5q0 -47 -11.5 -85t-32.5 -65t-50.5 -41.5t-65.5 -14.5zM995 51q43 0 60.5 39t17.5 101q0 60 -19 101
t-59 41q-20 0 -34.5 -10.5t-23.5 -29.5t-13.5 -45t-4.5 -57q0 -30 4.5 -55.5t13.5 -44.5t23.5 -29.5t34.5 -10.5zM628 -15q-36 0 -65.5 14.5t-50.5 41.5t-32.5 65t-11.5 85q0 48 12 86t33.5 64.5t50.5 41t64 14.5t64.5 -14t50.5 -40.5t33 -65t12 -86.5q0 -47 -11.5 -85
t-32.5 -65t-50.5 -41.5t-65.5 -14.5zM628 51q43 0 60.5 39t17.5 101q0 60 -19 101t-59 41q-20 0 -34.5 -10.5t-23.5 -29.5t-13.5 -45t-4.5 -57q0 -30 4.5 -55.5t13.5 -44.5t23.5 -29.5t34.5 -10.5zM205 317q-36 0 -65.5 14.5t-50.5 41.5t-32.5 65t-11.5 85q0 48 12 86
t33.5 64.5t50.5 41t64 14.5t64.5 -14t50.5 -40.5t33 -65t12 -86.5q0 -47 -11.5 -85t-32.5 -65t-50.5 -41.5t-65.5 -14.5zM205 383q43 0 60.5 39t17.5 101q0 60 -19 101t-59 41q-20 0 -34.5 -10.5t-23.5 -29.5t-13.5 -45t-4.5 -57q0 -30 4.5 -55.5t13.5 -44.5t23.5 -29.5
t34.5 -10.5z" />
    <glyph glyph-name="minus.aalt" horiz-adv-x="650" 
d="M88 376h475v-73h-475v73z" />
    <glyph glyph-name="multiply.aalt" horiz-adv-x="650" 
d="M106 167l169 171l-169 172l51 50l169 -170l168 170l52 -50l-170 -171l170 -171l-52 -50l-169 170l-168 -170z" />
    <glyph glyph-name="divide.aalt" horiz-adv-x="650" 
d="M271 576h109v-109h-109v109zM88 376h474v-73h-474v73zM271 211h109v-108h-109v108z" />
    <glyph glyph-name="plusminus.aalt" horiz-adv-x="650" 
d="M88 406h199v176h77v-176h199v-73h-199v-177h-77v177h-199v73zM88 73h475v-73h-475v73z" />
    <glyph glyph-name="notequal.aalt" horiz-adv-x="650" 
d="M89 455h266l63 123h71l-63 -123h136v-73h-173l-57 -113h230v-73h-267l-62 -123h-71l62 123h-135v73h172l57 113h-229v73z" />
    <glyph glyph-name="approxequal.aalt" horiz-adv-x="650" 
d="M456 359q-31 0 -67 6.5t-71.5 14t-67 14t-53.5 6.5q-44 0 -46 -49h-71q2 60 33.5 91t81.5 31q32 0 68 -6.5t70.5 -14t64.5 -14t51 -6.5q26 0 37.5 12.5t12.5 35.5h72q-2 -55 -30 -88t-85 -33zM456 177q-31 0 -67 6.5t-71.5 14t-67 14t-53.5 6.5q-44 0 -46 -49h-71
q2 60 33.5 91t81.5 31q32 0 68 -6.5t70.5 -14t64.5 -14t51 -6.5q26 0 37.5 12.5t12.5 35.5h72q-2 -55 -30 -88t-85 -33z" />
    <glyph glyph-name="lessequal.aalt" horiz-adv-x="650" 
d="M111 73h424v-73h-424v73zM111 287v97l424 166v-83l-229 -85q-20 -8 -43.5 -15.5t-43.5 -14.5q-24 -8 -47 -15v-2q23 -7 47 -15q20 -7 43.5 -14.5t43.5 -14.5l229 -86v-84z" />
    <glyph glyph-name="greaterequal.aalt" horiz-adv-x="650" 
d="M539 0h-424v73h424v-73zM115 121v84l229 86q20 7 43 14.5t43 14.5q24 8 48 15v2q-24 7 -48 15q-20 7 -43 14.5t-43 15.5l-229 85v83l424 -166v-97z" />
    <glyph glyph-name="less.aalt" horiz-adv-x="650" 
d="M111 277v93l424 180v-83l-229 -93q-20 -8 -43.5 -16t-43.5 -16q-24 -9 -47 -17v-2q23 -8 47 -16q20 -7 43.5 -15.5t43.5 -16.5l229 -93v-85z" />
    <glyph glyph-name="equal.aalt" horiz-adv-x="650" 
d="M89 455h473v-73h-473v73zM89 269h473v-73h-473v73z" />
    <glyph glyph-name="greater.aalt" horiz-adv-x="650" 
d="M539 370v-93l-424 -180v84l230 92q19 8 42.5 16t43.5 16q24 9 47 17v2q-23 8 -47 16q-20 7 -43.5 15.5t-42.5 16.5l-230 93v85z" />
    <glyph glyph-name="space.aalt" horiz-adv-x="325" 
 />
    <glyph glyph-name="comma.aalt" horiz-adv-x="325" 
d="M110 -103q21 7 35 26.5t14 66.5v10h-50v110h108v-120q0 -131 -107 -145v52z" />
    <glyph glyph-name="period.aalt" horiz-adv-x="325" 
d="M109 110h108v-110h-108v110z" />
    <glyph glyph-name="colon.aalt" horiz-adv-x="325" 
d="M109 426h108v-110h-108v110zM109 110h108v-110h-108v110z" />
    <glyph glyph-name="semicolon.aalt" horiz-adv-x="325" 
d="M109 426h108v-110h-108v110zM110 -103q21 7 35 26.5t14 66.5v10h-50v110h108v-120q0 -131 -107 -145v52z" />
    <glyph glyph-name="glyph536" horiz-adv-x="654" 
d="M31 744h592v-90h-245v-654h-103v654h-244v90zM381 -141q0 -51 -29 -76.5t-80 -27.5v44q55 7 55 52v2h-54v96h108v-90z" />
    <glyph glyph-name="glyph537" horiz-adv-x="351" 
d="M31 537h84v169h92v-169h111v-72h-111v-339q0 -29 14.5 -39.5t40.5 -10.5q12 0 25.5 2.5t21.5 4.5h3v-78q-38 -9 -75 -9q-54 1 -88 25.5t-34 83.5v360h-84v72zM230 -141q0 -51 -29 -76.5t-80 -27.5v44q55 7 55 52v2h-54v96h108v-90z" />
    </font>
</defs>
</svg>
