<?xml version="1.0" standalone="no"?>
<!DOCTYPE svg PUBLIC "-//W3C//DTD SVG 20010904//EN"
 "http://www.w3.org/TR/2001/REC-SVG-20010904/DTD/svg10.dtd">
<svg version="1.0" xmlns="http://www.w3.org/2000/svg"
 width="500.000000pt" height="500.000000pt" viewBox="0 0 500.000000 500.000000"
 preserveAspectRatio="xMidYMid meet">
<metadata>
Created by potrace 1.11, written by Peter Selinger 2001-2013
</metadata>
<g transform="translate(0.000000,500.000000) scale(0.100000,-0.100000)"
fill="#000000" stroke="none">
<path d="M1176 4991 c-1 -3 -2 -69 -2 -146 l1 -140 1657 -5 1658 -5 -2242
-2243 -2241 -2244 105 -105 105 -105 2241 2241 c1232 1233 2243 2241 2245
2241 3 0 5 -730 5 -1622 1 -893 1 -1639 1 -1658 l1 -35 127 2 c71 1 136 2 146
2 16 1 17 99 17 1914 l0 1914 -1910 0 c-1051 0 -1912 -3 -1914 -6z"/>
</g>
</svg>
